<svg width="1297" height="48" viewBox="0 0 1297 48" fill="none" xmlns="http://www.w3.org/2000/svg">
<path d="M26.8608 9.90909V39H21.5483L8.89205 20.6903H8.67898V39H2.52841V9.90909H7.92614L20.483 28.2045H20.7386V9.90909H26.8608ZM38.0504 39.4119C36.6584 39.4119 35.4179 39.1705 34.3288 38.6875C33.2398 38.1951 32.3781 37.4706 31.7436 36.5142C31.1186 35.5483 30.8061 34.3456 30.8061 32.9062C30.8061 31.6941 31.0286 30.6761 31.4737 29.8523C31.9188 29.0284 32.5249 28.3655 33.2919 27.8636C34.0589 27.3617 34.9302 26.983 35.9055 26.7273C36.8904 26.4716 37.9226 26.2917 39.0021 26.1875C40.2711 26.0549 41.2938 25.9318 42.0703 25.8182C42.8468 25.6951 43.4103 25.5152 43.7607 25.2784C44.111 25.0417 44.2862 24.6913 44.2862 24.2273V24.142C44.2862 23.2424 44.0021 22.5464 43.4339 22.054C42.8752 21.5616 42.0798 21.3153 41.0476 21.3153C39.9586 21.3153 39.0921 21.5568 38.4482 22.0398C37.8042 22.5133 37.3781 23.1098 37.1697 23.8295L31.5732 23.375C31.8572 22.0492 32.416 20.9034 33.2493 19.9375C34.0826 18.9621 35.1574 18.214 36.4737 17.6932C37.7995 17.1629 39.3336 16.8977 41.076 16.8977C42.2881 16.8977 43.4482 17.0398 44.5561 17.3239C45.6735 17.608 46.6631 18.0483 47.5249 18.6449C48.3961 19.2415 49.0826 20.0085 49.5845 20.946C50.0864 21.8741 50.3374 22.9867 50.3374 24.2841V39H44.5987V35.9744H44.4283C44.0779 36.6562 43.6091 37.2576 43.022 37.7784C42.4349 38.2898 41.7294 38.6922 40.9055 38.9858C40.0817 39.2699 39.13 39.4119 38.0504 39.4119ZM39.7834 35.2358C40.6735 35.2358 41.4595 35.0606 42.1413 34.7102C42.8232 34.3504 43.3582 33.8674 43.7464 33.2614C44.1347 32.6553 44.3288 31.9687 44.3288 31.2017V28.8864C44.1394 29.0095 43.879 29.1231 43.5476 29.2273C43.2256 29.322 42.861 29.4119 42.4538 29.4972C42.0466 29.5729 41.6394 29.6439 41.2322 29.7102C40.825 29.767 40.4557 29.8191 40.1243 29.8665C39.4141 29.9706 38.7938 30.1364 38.2635 30.3636C37.7332 30.5909 37.3213 30.8987 37.0277 31.2869C36.7341 31.6657 36.5874 32.1392 36.5874 32.7074C36.5874 33.5312 36.8857 34.161 37.4822 34.5966C38.0883 35.0227 38.8554 35.2358 39.7834 35.2358ZM66.6371 17.1818V21.7273H53.4979V17.1818H66.6371ZM56.4808 11.9545H62.532V32.2955C62.532 32.8542 62.6172 33.2898 62.7876 33.6023C62.9581 33.9053 63.1948 34.1184 63.4979 34.2415C63.8104 34.3646 64.1702 34.4261 64.5774 34.4261C64.8615 34.4261 65.1456 34.4025 65.4297 34.3551C65.7138 34.2983 65.9316 34.2557 66.0831 34.2273L67.0348 38.7301C66.7318 38.8248 66.3056 38.9337 65.7564 39.0568C65.2071 39.1894 64.5395 39.2699 63.7536 39.2983C62.2952 39.3551 61.0168 39.161 59.9183 38.7159C58.8293 38.2708 57.9818 37.5795 57.3757 36.642C56.7696 35.7045 56.4714 34.5208 56.4808 33.0909V11.9545ZM84.5703 29.7102V17.1818H90.6214V39H84.8118V35.0369H84.5845C84.0921 36.3153 83.273 37.3428 82.1271 38.1193C80.9908 38.8958 79.6035 39.2841 77.9652 39.2841C76.5069 39.2841 75.2237 38.9527 74.1158 38.2898C73.0078 37.6269 72.1413 36.6847 71.5163 35.4631C70.9008 34.2415 70.5883 32.7784 70.5788 31.0739V17.1818H76.63V29.9943C76.6394 31.2822 76.9851 32.3002 77.6669 33.0483C78.3487 33.7964 79.2625 34.1705 80.4084 34.1705C81.1375 34.1705 81.8194 34.0047 82.4538 33.6733C83.0883 33.3324 83.5997 32.8305 83.9879 32.1676C84.3857 31.5047 84.5798 30.6856 84.5703 29.7102ZM95.4616 39V17.1818H101.328V20.9886H101.555C101.953 19.6345 102.621 18.6117 103.558 17.9205C104.496 17.2197 105.575 16.8693 106.797 16.8693C107.1 16.8693 107.427 16.8883 107.777 16.9261C108.127 16.964 108.435 17.0161 108.7 17.0824V22.4517C108.416 22.3665 108.023 22.2907 107.521 22.2244C107.019 22.1581 106.56 22.125 106.143 22.125C105.253 22.125 104.458 22.3191 103.757 22.7074C103.066 23.0862 102.517 23.6165 102.109 24.2983C101.712 24.9801 101.513 25.7661 101.513 26.6562V39H95.4616ZM120.756 39.4261C118.512 39.4261 116.58 38.9716 114.961 38.0625C113.351 37.1439 112.111 35.8466 111.239 34.1705C110.368 32.4848 109.933 30.4915 109.933 28.1903C109.933 25.946 110.368 23.9763 111.239 22.2812C112.111 20.5862 113.337 19.2652 114.918 18.3182C116.509 17.3712 118.375 16.8977 120.515 16.8977C121.954 16.8977 123.294 17.1297 124.535 17.5938C125.785 18.0483 126.874 18.7348 127.802 19.6534C128.739 20.572 129.469 21.7273 129.989 23.1193C130.51 24.5019 130.771 26.1212 130.771 27.9773V29.6392H112.347V25.8892H125.075C125.075 25.018 124.885 24.2462 124.506 23.5739C124.128 22.9015 123.602 22.3759 122.93 21.9972C122.267 21.6089 121.495 21.4148 120.614 21.4148C119.696 21.4148 118.881 21.6278 118.171 22.054C117.47 22.4706 116.921 23.0341 116.523 23.7443C116.126 24.4451 115.922 25.2263 115.913 26.0881V29.6534C115.913 30.733 116.112 31.6657 116.509 32.4517C116.916 33.2377 117.489 33.8438 118.228 34.2699C118.967 34.696 119.843 34.9091 120.856 34.9091C121.528 34.9091 122.144 34.8144 122.702 34.625C123.261 34.4356 123.739 34.1515 124.137 33.7727C124.535 33.3939 124.838 32.9299 125.046 32.3807L130.643 32.75C130.359 34.0947 129.776 35.2689 128.896 36.2727C128.024 37.267 126.897 38.0436 125.515 38.6023C124.142 39.1515 122.556 39.4261 120.756 39.4261ZM142.983 14.9801V9.90909H166.875V14.9801H157.969V39H151.889V14.9801H142.983ZM177.39 39.4261C175.183 39.4261 173.275 38.9574 171.665 38.0199C170.065 37.0729 168.829 35.7566 167.958 34.071C167.087 32.3759 166.651 30.411 166.651 28.1761C166.651 25.9223 167.087 23.9527 167.958 22.267C168.829 20.572 170.065 19.2557 171.665 18.3182C173.275 17.3712 175.183 16.8977 177.39 16.8977C179.596 16.8977 181.5 17.3712 183.1 18.3182C184.71 19.2557 185.951 20.572 186.822 22.267C187.693 23.9527 188.129 25.9223 188.129 28.1761C188.129 30.411 187.693 32.3759 186.822 34.071C185.951 35.7566 184.71 37.0729 183.1 38.0199C181.5 38.9574 179.596 39.4261 177.39 39.4261ZM177.418 34.7386C178.422 34.7386 179.26 34.4545 179.933 33.8864C180.605 33.3087 181.112 32.5227 181.452 31.5284C181.803 30.5341 181.978 29.4025 181.978 28.1335C181.978 26.8646 181.803 25.733 181.452 24.7386C181.112 23.7443 180.605 22.9583 179.933 22.3807C179.26 21.803 178.422 21.5142 177.418 21.5142C176.405 21.5142 175.553 21.803 174.862 22.3807C174.18 22.9583 173.664 23.7443 173.313 24.7386C172.972 25.733 172.802 26.8646 172.802 28.1335C172.802 29.4025 172.972 30.5341 173.313 31.5284C173.664 32.5227 174.18 33.3087 174.862 33.8864C175.553 34.4545 176.405 34.7386 177.418 34.7386ZM206.055 29.7102V17.1818H212.106V39H206.296V35.0369H206.069C205.576 36.3153 204.757 37.3428 203.612 38.1193C202.475 38.8958 201.088 39.2841 199.45 39.2841C197.991 39.2841 196.708 38.9527 195.6 38.2898C194.492 37.6269 193.626 36.6847 193.001 35.4631C192.385 34.2415 192.073 32.7784 192.063 31.0739V17.1818H198.114V29.9943C198.124 31.2822 198.469 32.3002 199.151 33.0483C199.833 33.7964 200.747 34.1705 201.893 34.1705C202.622 34.1705 203.304 34.0047 203.938 33.6733C204.573 33.3324 205.084 32.8305 205.472 32.1676C205.87 31.5047 206.064 30.6856 206.055 29.7102ZM216.946 39V17.1818H222.812V20.9886H223.04C223.438 19.6345 224.105 18.6117 225.043 17.9205C225.98 17.2197 227.06 16.8693 228.281 16.8693C228.584 16.8693 228.911 16.8883 229.261 16.9261C229.612 16.964 229.92 17.0161 230.185 17.0824V22.4517C229.901 22.3665 229.508 22.2907 229.006 22.2244C228.504 22.1581 228.045 22.125 227.628 22.125C226.738 22.125 225.942 22.3191 225.241 22.7074C224.55 23.0862 224.001 23.6165 223.594 24.2983C223.196 24.9801 222.997 25.7661 222.997 26.6562V39H216.946ZM251.467 23.4034L245.927 23.7443C245.832 23.2708 245.629 22.8447 245.316 22.4659C245.004 22.0777 244.592 21.7699 244.08 21.5426C243.578 21.3059 242.977 21.1875 242.276 21.1875C241.339 21.1875 240.548 21.3864 239.904 21.7841C239.26 22.1723 238.938 22.6932 238.938 23.3466C238.938 23.8674 239.147 24.3078 239.563 24.6676C239.98 25.0275 240.695 25.3163 241.708 25.5341L245.657 26.3295C247.778 26.7652 249.36 27.4659 250.401 28.4318C251.443 29.3977 251.964 30.6667 251.964 32.2386C251.964 33.6686 251.542 34.9233 250.7 36.0028C249.866 37.0824 248.72 37.9252 247.262 38.5312C245.813 39.1278 244.142 39.4261 242.248 39.4261C239.36 39.4261 237.058 38.8248 235.344 37.6222C233.64 36.41 232.641 34.7623 232.347 32.679L238.299 32.3665C238.479 33.2472 238.915 33.9195 239.606 34.3835C240.297 34.8381 241.183 35.0653 242.262 35.0653C243.323 35.0653 244.175 34.8617 244.819 34.4545C245.472 34.0379 245.804 33.5028 245.813 32.8494C245.804 32.3002 245.572 31.8504 245.117 31.5C244.663 31.1402 243.962 30.8655 243.015 30.6761L239.237 29.9233C237.106 29.4972 235.52 28.7585 234.478 27.7074C233.446 26.6562 232.93 25.3163 232.93 23.6875C232.93 22.286 233.308 21.0786 234.066 20.0653C234.833 19.0521 235.908 18.2708 237.29 17.7216C238.683 17.1723 240.311 16.8977 242.177 16.8977C244.933 16.8977 247.101 17.4801 248.683 18.6449C250.273 19.8097 251.201 21.3958 251.467 23.4034Z" fill="white"/>
<line x1="322" y1="23.5" x2="1297" y2="23.5" stroke="white"/>
</svg>
