<svg width="1382" height="47" viewBox="0 0 1382 47" fill="none" xmlns="http://www.w3.org/2000/svg">
<path d="M477.102 13.4258L469.367 37H463.137L473.703 8.5625H477.668L477.102 13.4258ZM483.527 37L475.773 13.4258L475.148 8.5625H479.152L489.777 37H483.527ZM483.176 26.4141V31.0039H468.156V26.4141H483.176ZM502.023 7H507.648V32.1562L507.082 37H502.023V7ZM521.027 26.2188V26.6289C521.027 28.2044 520.858 29.6497 520.52 30.9648C520.194 32.2799 519.686 33.4193 518.996 34.3828C518.306 35.3333 517.447 36.0755 516.418 36.6094C515.402 37.1302 514.204 37.3906 512.824 37.3906C511.535 37.3906 510.415 37.1302 509.465 36.6094C508.527 36.0885 507.74 35.3529 507.102 34.4023C506.464 33.4518 505.949 32.3385 505.559 31.0625C505.168 29.7865 504.875 28.3932 504.68 26.8828V25.9844C504.875 24.474 505.168 23.0807 505.559 21.8047C505.949 20.5286 506.464 19.4154 507.102 18.4648C507.74 17.5143 508.527 16.7786 509.465 16.2578C510.402 15.737 511.509 15.4766 512.785 15.4766C514.178 15.4766 515.389 15.7435 516.418 16.2773C517.46 16.7982 518.319 17.5404 518.996 18.5039C519.686 19.4544 520.194 20.5872 520.52 21.9023C520.858 23.2044 521.027 24.6432 521.027 26.2188ZM515.402 26.6289V26.2188C515.402 25.3594 515.337 24.5521 515.207 23.7969C515.09 23.0286 514.882 22.3581 514.582 21.7852C514.283 21.1992 513.872 20.737 513.352 20.3984C512.844 20.0599 512.186 19.8906 511.379 19.8906C510.611 19.8906 509.96 20.0208 509.426 20.2812C508.892 20.5417 508.449 20.9062 508.098 21.375C507.759 21.8438 507.505 22.4036 507.336 23.0547C507.167 23.6927 507.062 24.3958 507.023 25.1641V27.7227C507.062 28.7513 507.232 29.6628 507.531 30.457C507.844 31.2383 508.312 31.8568 508.938 32.3125C509.576 32.7552 510.402 32.9766 511.418 32.9766C512.212 32.9766 512.87 32.8203 513.391 32.5078C513.911 32.1953 514.315 31.7526 514.602 31.1797C514.901 30.6068 515.109 29.9362 515.227 29.168C515.344 28.3867 515.402 27.5404 515.402 26.6289ZM530.148 20.4766V37H524.523V15.8672H529.816L530.148 20.4766ZM536.516 15.7305L536.418 20.9453C536.145 20.9062 535.812 20.8737 535.422 20.8477C535.044 20.8086 534.699 20.7891 534.387 20.7891C533.592 20.7891 532.902 20.8932 532.316 21.1016C531.743 21.2969 531.262 21.5898 530.871 21.9805C530.493 22.3711 530.207 22.8464 530.012 23.4062C529.829 23.9661 529.725 24.6042 529.699 25.3203L528.566 24.9688C528.566 23.6016 528.703 22.3451 528.977 21.1992C529.25 20.0404 529.647 19.0312 530.168 18.1719C530.702 17.3125 531.353 16.6484 532.121 16.1797C532.889 15.7109 533.768 15.4766 534.758 15.4766C535.07 15.4766 535.389 15.5026 535.715 15.5547C536.04 15.5938 536.307 15.6523 536.516 15.7305ZM545.109 15.8672V37H539.465V15.8672H545.109ZM539.113 10.3594C539.113 9.53906 539.4 8.86198 539.973 8.32812C540.546 7.79427 541.314 7.52734 542.277 7.52734C543.228 7.52734 543.99 7.79427 544.562 8.32812C545.148 8.86198 545.441 9.53906 545.441 10.3594C545.441 11.1797 545.148 11.8568 544.562 12.3906C543.99 12.9245 543.228 13.1914 542.277 13.1914C541.314 13.1914 540.546 12.9245 539.973 12.3906C539.4 11.8568 539.113 11.1797 539.113 10.3594ZM559.484 37.3906C557.844 37.3906 556.372 37.1302 555.07 36.6094C553.768 36.0755 552.661 35.3398 551.75 34.4023C550.852 33.4648 550.161 32.3776 549.68 31.1406C549.198 29.8906 548.957 28.5625 548.957 27.1562V26.375C548.957 24.7734 549.185 23.3086 549.641 21.9805C550.096 20.6523 550.747 19.5 551.594 18.5234C552.453 17.5469 553.495 16.7982 554.719 16.2773C555.943 15.7435 557.323 15.4766 558.859 15.4766C560.357 15.4766 561.685 15.724 562.844 16.2188C564.003 16.7135 564.973 17.4167 565.754 18.3281C566.548 19.2396 567.147 20.3333 567.551 21.6094C567.954 22.8724 568.156 24.2786 568.156 25.8281V28.1719H551.359V24.4219H562.629V23.9922C562.629 23.2109 562.486 22.5143 562.199 21.9023C561.926 21.2773 561.509 20.7826 560.949 20.418C560.389 20.0534 559.673 19.8711 558.801 19.8711C558.059 19.8711 557.421 20.0339 556.887 20.3594C556.353 20.6849 555.917 21.1406 555.578 21.7266C555.253 22.3125 555.005 23.0026 554.836 23.7969C554.68 24.5781 554.602 25.4375 554.602 26.375V27.1562C554.602 28.0026 554.719 28.7839 554.953 29.5C555.201 30.2161 555.546 30.8346 555.988 31.3555C556.444 31.8763 556.991 32.2799 557.629 32.5664C558.28 32.8529 559.016 32.9961 559.836 32.9961C560.852 32.9961 561.796 32.8008 562.668 32.4102C563.553 32.0065 564.315 31.401 564.953 30.5938L567.688 33.5625C567.245 34.2005 566.639 34.8125 565.871 35.3984C565.116 35.9844 564.204 36.4661 563.137 36.8438C562.069 37.2083 560.852 37.3906 559.484 37.3906ZM578.527 37H572.863V13.9922C572.863 12.3906 573.176 11.043 573.801 9.94922C574.439 8.84245 575.331 8.00911 576.477 7.44922C577.635 6.8763 579.009 6.58984 580.598 6.58984C581.118 6.58984 581.62 6.62891 582.102 6.70703C582.583 6.77214 583.052 6.85677 583.508 6.96094L583.449 11.1992C583.202 11.1341 582.941 11.0885 582.668 11.0625C582.395 11.0365 582.076 11.0234 581.711 11.0234C581.034 11.0234 580.454 11.1406 579.973 11.375C579.504 11.5964 579.146 11.9284 578.898 12.3711C578.651 12.8138 578.527 13.3542 578.527 13.9922V37ZM582.746 15.8672V19.8516H569.719V15.8672H582.746ZM601.145 7V37H595.52V7H601.145ZM600.344 25.6914H598.801C598.814 24.2201 599.009 22.8659 599.387 21.6289C599.764 20.3789 600.305 19.2982 601.008 18.3867C601.711 17.4622 602.551 16.7461 603.527 16.2383C604.517 15.7305 605.611 15.4766 606.809 15.4766C607.85 15.4766 608.794 15.6263 609.641 15.9258C610.5 16.2122 611.236 16.681 611.848 17.332C612.473 17.9701 612.954 18.8099 613.293 19.8516C613.632 20.8932 613.801 22.1562 613.801 23.6406V37H608.137V23.6016C608.137 22.6641 608 21.9284 607.727 21.3945C607.466 20.8477 607.082 20.4635 606.574 20.2422C606.079 20.0078 605.467 19.8906 604.738 19.8906C603.931 19.8906 603.241 20.0404 602.668 20.3398C602.108 20.6393 601.659 21.056 601.32 21.5898C600.982 22.1107 600.734 22.7227 600.578 23.4258C600.422 24.1289 600.344 24.8841 600.344 25.6914ZM624.016 15.8672V37H618.371V15.8672H624.016ZM618.02 10.3594C618.02 9.53906 618.306 8.86198 618.879 8.32812C619.452 7.79427 620.22 7.52734 621.184 7.52734C622.134 7.52734 622.896 7.79427 623.469 8.32812C624.055 8.86198 624.348 9.53906 624.348 10.3594C624.348 11.1797 624.055 11.8568 623.469 12.3906C622.896 12.9245 622.134 13.1914 621.184 13.1914C620.22 13.1914 619.452 12.9245 618.879 12.3906C618.306 11.8568 618.02 11.1797 618.02 10.3594ZM640.09 31.1602C640.09 30.7565 639.973 30.3919 639.738 30.0664C639.504 29.7409 639.068 29.4414 638.43 29.168C637.805 28.8815 636.9 28.6211 635.715 28.3867C634.647 28.1523 633.651 27.8594 632.727 27.5078C631.815 27.1432 631.021 26.707 630.344 26.1992C629.68 25.6914 629.159 25.0924 628.781 24.4023C628.404 23.6992 628.215 22.8984 628.215 22C628.215 21.1146 628.404 20.2812 628.781 19.5C629.172 18.7188 629.725 18.0286 630.441 17.4297C631.171 16.8177 632.056 16.3424 633.098 16.0039C634.152 15.6523 635.337 15.4766 636.652 15.4766C638.488 15.4766 640.064 15.7695 641.379 16.3555C642.707 16.9414 643.723 17.7487 644.426 18.7773C645.142 19.793 645.5 20.9518 645.5 22.2539H639.875C639.875 21.707 639.758 21.2188 639.523 20.7891C639.302 20.3464 638.951 20.0013 638.469 19.7539C638 19.4935 637.388 19.3633 636.633 19.3633C636.008 19.3633 635.467 19.474 635.012 19.6953C634.556 19.9036 634.204 20.1901 633.957 20.5547C633.723 20.9062 633.605 21.2969 633.605 21.7266C633.605 22.0521 633.671 22.3451 633.801 22.6055C633.944 22.8529 634.172 23.0807 634.484 23.2891C634.797 23.4974 635.201 23.6927 635.695 23.875C636.203 24.0443 636.828 24.2005 637.57 24.3438C639.094 24.6562 640.454 25.0664 641.652 25.5742C642.85 26.069 643.801 26.7461 644.504 27.6055C645.207 28.4518 645.559 29.5651 645.559 30.9453C645.559 31.8828 645.35 32.7422 644.934 33.5234C644.517 34.3047 643.918 34.9883 643.137 35.5742C642.355 36.1471 641.418 36.5964 640.324 36.9219C639.243 37.2344 638.026 37.3906 636.672 37.3906C634.706 37.3906 633.039 37.0391 631.672 36.3359C630.318 35.6328 629.289 34.7409 628.586 33.6602C627.896 32.5664 627.551 31.4466 627.551 30.3008H632.883C632.909 31.069 633.104 31.6875 633.469 32.1562C633.846 32.625 634.322 32.9635 634.895 33.1719C635.48 33.3802 636.112 33.4844 636.789 33.4844C637.518 33.4844 638.124 33.3867 638.605 33.1914C639.087 32.9831 639.452 32.7096 639.699 32.3711C639.96 32.0195 640.09 31.6159 640.09 31.1602ZM659.562 15.8672V19.8516H647.258V15.8672H659.562ZM650.305 10.6523H655.93V30.6328C655.93 31.2448 656.008 31.7135 656.164 32.0391C656.333 32.3646 656.581 32.5924 656.906 32.7227C657.232 32.8398 657.642 32.8984 658.137 32.8984C658.488 32.8984 658.801 32.8854 659.074 32.8594C659.361 32.8203 659.602 32.7812 659.797 32.7422L659.816 36.8828C659.335 37.0391 658.814 37.1628 658.254 37.2539C657.694 37.3451 657.076 37.3906 656.398 37.3906C655.161 37.3906 654.081 37.1888 653.156 36.7852C652.245 36.3685 651.542 35.7044 651.047 34.793C650.552 33.8815 650.305 32.6836 650.305 31.1992V10.6523ZM661.359 26.6484V26.2383C661.359 24.6888 661.581 23.263 662.023 21.9609C662.466 20.6458 663.111 19.5065 663.957 18.543C664.803 17.5794 665.845 16.8307 667.082 16.2969C668.319 15.75 669.738 15.4766 671.34 15.4766C672.941 15.4766 674.367 15.75 675.617 16.2969C676.867 16.8307 677.915 17.5794 678.762 18.543C679.621 19.5065 680.272 20.6458 680.715 21.9609C681.158 23.263 681.379 24.6888 681.379 26.2383V26.6484C681.379 28.1849 681.158 29.6107 680.715 30.9258C680.272 32.2279 679.621 33.3672 678.762 34.3438C677.915 35.3073 676.874 36.056 675.637 36.5898C674.4 37.1237 672.98 37.3906 671.379 37.3906C669.777 37.3906 668.352 37.1237 667.102 36.5898C665.865 36.056 664.816 35.3073 663.957 34.3438C663.111 33.3672 662.466 32.2279 662.023 30.9258C661.581 29.6107 661.359 28.1849 661.359 26.6484ZM666.984 26.2383V26.6484C666.984 27.5339 667.062 28.3607 667.219 29.1289C667.375 29.8971 667.622 30.5742 667.961 31.1602C668.312 31.7331 668.768 32.1823 669.328 32.5078C669.888 32.8333 670.572 32.9961 671.379 32.9961C672.16 32.9961 672.831 32.8333 673.391 32.5078C673.951 32.1823 674.4 31.7331 674.738 31.1602C675.077 30.5742 675.324 29.8971 675.48 29.1289C675.65 28.3607 675.734 27.5339 675.734 26.6484V26.2383C675.734 25.3789 675.65 24.5716 675.48 23.8164C675.324 23.0482 675.07 22.3711 674.719 21.7852C674.38 21.1862 673.931 20.7174 673.371 20.3789C672.811 20.0404 672.134 19.8711 671.34 19.8711C670.546 19.8711 669.868 20.0404 669.309 20.3789C668.762 20.7174 668.312 21.1862 667.961 21.7852C667.622 22.3711 667.375 23.0482 667.219 23.8164C667.062 24.5716 666.984 25.3789 666.984 26.2383ZM690.461 20.4766V37H684.836V15.8672H690.129L690.461 20.4766ZM696.828 15.7305L696.73 20.9453C696.457 20.9062 696.125 20.8737 695.734 20.8477C695.357 20.8086 695.012 20.7891 694.699 20.7891C693.905 20.7891 693.215 20.8932 692.629 21.1016C692.056 21.2969 691.574 21.5898 691.184 21.9805C690.806 22.3711 690.52 22.8464 690.324 23.4062C690.142 23.9661 690.038 24.6042 690.012 25.3203L688.879 24.9688C688.879 23.6016 689.016 22.3451 689.289 21.1992C689.562 20.0404 689.96 19.0312 690.48 18.1719C691.014 17.3125 691.665 16.6484 692.434 16.1797C693.202 15.7109 694.081 15.4766 695.07 15.4766C695.383 15.4766 695.702 15.5026 696.027 15.5547C696.353 15.5938 696.62 15.6523 696.828 15.7305ZM706.105 34.6172L711.711 15.8672H717.746L709.25 40.1836C709.068 40.7174 708.82 41.2904 708.508 41.9023C708.208 42.5143 707.798 43.0938 707.277 43.6406C706.77 44.2005 706.125 44.6562 705.344 45.0078C704.576 45.3594 703.632 45.5352 702.512 45.5352C701.978 45.5352 701.542 45.5026 701.203 45.4375C700.865 45.3724 700.461 45.2812 699.992 45.1641V41.043C700.135 41.043 700.285 41.043 700.441 41.043C700.598 41.056 700.747 41.0625 700.891 41.0625C701.633 41.0625 702.238 40.9779 702.707 40.8086C703.176 40.6393 703.553 40.3789 703.84 40.0273C704.126 39.6888 704.354 39.2461 704.523 38.6992L706.105 34.6172ZM703.762 15.8672L708.352 31.1797L709.152 37.1367L705.324 37.5469L697.727 15.8672H703.762ZM729.055 26.6484V26.2383C729.055 24.6888 729.276 23.263 729.719 21.9609C730.161 20.6458 730.806 19.5065 731.652 18.543C732.499 17.5794 733.54 16.8307 734.777 16.2969C736.014 15.75 737.434 15.4766 739.035 15.4766C740.637 15.4766 742.062 15.75 743.312 16.2969C744.562 16.8307 745.611 17.5794 746.457 18.543C747.316 19.5065 747.967 20.6458 748.41 21.9609C748.853 23.263 749.074 24.6888 749.074 26.2383V26.6484C749.074 28.1849 748.853 29.6107 748.41 30.9258C747.967 32.2279 747.316 33.3672 746.457 34.3438C745.611 35.3073 744.569 36.056 743.332 36.5898C742.095 37.1237 740.676 37.3906 739.074 37.3906C737.473 37.3906 736.047 37.1237 734.797 36.5898C733.56 36.056 732.512 35.3073 731.652 34.3438C730.806 33.3672 730.161 32.2279 729.719 30.9258C729.276 29.6107 729.055 28.1849 729.055 26.6484ZM734.68 26.2383V26.6484C734.68 27.5339 734.758 28.3607 734.914 29.1289C735.07 29.8971 735.318 30.5742 735.656 31.1602C736.008 31.7331 736.464 32.1823 737.023 32.5078C737.583 32.8333 738.267 32.9961 739.074 32.9961C739.855 32.9961 740.526 32.8333 741.086 32.5078C741.646 32.1823 742.095 31.7331 742.434 31.1602C742.772 30.5742 743.02 29.8971 743.176 29.1289C743.345 28.3607 743.43 27.5339 743.43 26.6484V26.2383C743.43 25.3789 743.345 24.5716 743.176 23.8164C743.02 23.0482 742.766 22.3711 742.414 21.7852C742.076 21.1862 741.626 20.7174 741.066 20.3789C740.507 20.0404 739.829 19.8711 739.035 19.8711C738.241 19.8711 737.564 20.0404 737.004 20.3789C736.457 20.7174 736.008 21.1862 735.656 21.7852C735.318 22.3711 735.07 23.0482 734.914 23.8164C734.758 24.5716 734.68 25.3789 734.68 26.2383ZM759.699 37H754.035V13.9922C754.035 12.3906 754.348 11.043 754.973 9.94922C755.611 8.84245 756.503 8.00911 757.648 7.44922C758.807 6.8763 760.181 6.58984 761.77 6.58984C762.29 6.58984 762.792 6.62891 763.273 6.70703C763.755 6.77214 764.224 6.85677 764.68 6.96094L764.621 11.1992C764.374 11.1341 764.113 11.0885 763.84 11.0625C763.566 11.0365 763.247 11.0234 762.883 11.0234C762.206 11.0234 761.626 11.1406 761.145 11.375C760.676 11.5964 760.318 11.9284 760.07 12.3711C759.823 12.8138 759.699 13.3542 759.699 13.9922V37ZM763.918 15.8672V19.8516H750.891V15.8672H763.918ZM799.738 7.37109L781.164 38.8359H777.512L796.105 7.37109H799.738ZM800.695 22.1172V23.4648C800.695 25.6263 800.402 27.5664 799.816 29.2852C799.243 31.0039 798.417 32.4688 797.336 33.6797C796.255 34.8776 794.979 35.7956 793.508 36.4336C792.036 37.0716 790.402 37.3906 788.605 37.3906C787.186 37.3906 785.852 37.1888 784.602 36.7852C783.365 36.3685 782.245 35.7695 781.242 34.9883C780.253 34.194 779.4 33.2305 778.684 32.0977C777.967 30.9648 777.414 29.6758 777.023 28.2305C776.646 26.7852 776.457 25.1966 776.457 23.4648V22.1172C776.457 19.9427 776.75 18.0026 777.336 16.2969C777.935 14.5781 778.768 13.1133 779.836 11.9023C780.904 10.6914 782.18 9.76693 783.664 9.12891C785.148 8.49089 786.783 8.17188 788.566 8.17188C789.999 8.17188 791.333 8.38021 792.57 8.79688C793.807 9.20052 794.921 9.79948 795.91 10.5938C796.913 11.375 797.766 12.332 798.469 13.4648C799.185 14.5977 799.732 15.8867 800.109 17.332C800.5 18.7773 800.695 20.3724 800.695 22.1172ZM794.777 23.4648V22.0781C794.777 20.8802 794.686 19.793 794.504 18.8164C794.322 17.8398 794.055 16.9805 793.703 16.2383C793.365 15.4961 792.941 14.8776 792.434 14.3828C791.939 13.875 791.366 13.4909 790.715 13.2305C790.077 12.9701 789.361 12.8398 788.566 12.8398C787.564 12.8398 786.678 13.0417 785.91 13.4453C785.155 13.8359 784.517 14.4219 783.996 15.2031C783.475 15.9844 783.078 16.9479 782.805 18.0938C782.531 19.2396 782.395 20.5677 782.395 22.0781V23.4648C782.395 24.6628 782.479 25.75 782.648 26.7266C782.831 27.7031 783.091 28.569 783.43 29.3242C783.781 30.0664 784.204 30.6914 784.699 31.1992C785.207 31.707 785.786 32.0911 786.438 32.3516C787.089 32.612 787.811 32.7422 788.605 32.7422C789.595 32.7422 790.467 32.5404 791.223 32.1367C791.991 31.7331 792.635 31.1406 793.156 30.3594C793.69 29.5651 794.094 28.5951 794.367 27.4492C794.641 26.2904 794.777 24.9622 794.777 23.4648ZM809.992 6.98047V37H804.367V6.98047H809.992ZM823.312 15.8672L814.133 26.3359L809.211 31.3164L807.16 27.2539L811.066 22.293L816.555 15.8672H823.312ZM817.473 37L811.223 27.2344L815.109 23.8359L823.957 37H817.473ZM824.836 26.6484V26.2383C824.836 24.6888 825.057 23.263 825.5 21.9609C825.943 20.6458 826.587 19.5065 827.434 18.543C828.28 17.5794 829.322 16.8307 830.559 16.2969C831.796 15.75 833.215 15.4766 834.816 15.4766C836.418 15.4766 837.844 15.75 839.094 16.2969C840.344 16.8307 841.392 17.5794 842.238 18.543C843.098 19.5065 843.749 20.6458 844.191 21.9609C844.634 23.263 844.855 24.6888 844.855 26.2383V26.6484C844.855 28.1849 844.634 29.6107 844.191 30.9258C843.749 32.2279 843.098 33.3672 842.238 34.3438C841.392 35.3073 840.35 36.056 839.113 36.5898C837.876 37.1237 836.457 37.3906 834.855 37.3906C833.254 37.3906 831.828 37.1237 830.578 36.5898C829.341 36.056 828.293 35.3073 827.434 34.3438C826.587 33.3672 825.943 32.2279 825.5 30.9258C825.057 29.6107 824.836 28.1849 824.836 26.6484ZM830.461 26.2383V26.6484C830.461 27.5339 830.539 28.3607 830.695 29.1289C830.852 29.8971 831.099 30.5742 831.438 31.1602C831.789 31.7331 832.245 32.1823 832.805 32.5078C833.365 32.8333 834.048 32.9961 834.855 32.9961C835.637 32.9961 836.307 32.8333 836.867 32.5078C837.427 32.1823 837.876 31.7331 838.215 31.1602C838.553 30.5742 838.801 29.8971 838.957 29.1289C839.126 28.3607 839.211 27.5339 839.211 26.6484V26.2383C839.211 25.3789 839.126 24.5716 838.957 23.8164C838.801 23.0482 838.547 22.3711 838.195 21.7852C837.857 21.1862 837.408 20.7174 836.848 20.3789C836.288 20.0404 835.611 19.8711 834.816 19.8711C834.022 19.8711 833.345 20.0404 832.785 20.3789C832.238 20.7174 831.789 21.1862 831.438 21.7852C831.099 22.3711 830.852 23.0482 830.695 23.8164C830.539 24.5716 830.461 25.3789 830.461 26.2383ZM854.25 7V37H848.605V7H854.25ZM870.305 32.2344V22.8203C870.305 22.1432 870.194 21.5638 869.973 21.082C869.751 20.5872 869.406 20.2031 868.938 19.9297C868.482 19.6562 867.889 19.5195 867.16 19.5195C866.535 19.5195 865.995 19.6302 865.539 19.8516C865.083 20.0599 864.732 20.3659 864.484 20.7695C864.237 21.1602 864.113 21.6224 864.113 22.1562H858.488C858.488 21.2578 858.697 20.4049 859.113 19.5977C859.53 18.7904 860.135 18.0807 860.93 17.4688C861.724 16.8438 862.668 16.3555 863.762 16.0039C864.868 15.6523 866.105 15.4766 867.473 15.4766C869.113 15.4766 870.572 15.75 871.848 16.2969C873.124 16.8438 874.126 17.6641 874.855 18.7578C875.598 19.8516 875.969 21.2188 875.969 22.8594V31.9023C875.969 33.0612 876.04 34.0117 876.184 34.7539C876.327 35.4831 876.535 36.1211 876.809 36.668V37H871.125C870.852 36.4271 870.643 35.7109 870.5 34.8516C870.37 33.9792 870.305 33.1068 870.305 32.2344ZM871.047 24.1289L871.086 27.3125H867.941C867.199 27.3125 866.555 27.3971 866.008 27.5664C865.461 27.7357 865.012 27.9766 864.66 28.2891C864.309 28.5885 864.048 28.9401 863.879 29.3438C863.723 29.7474 863.645 30.1901 863.645 30.6719C863.645 31.1536 863.755 31.5898 863.977 31.9805C864.198 32.3581 864.517 32.6576 864.934 32.8789C865.35 33.0872 865.839 33.1914 866.398 33.1914C867.245 33.1914 867.98 33.0221 868.605 32.6836C869.23 32.3451 869.712 31.9284 870.051 31.4336C870.402 30.9388 870.585 30.4701 870.598 30.0273L872.082 32.4102C871.874 32.944 871.587 33.4974 871.223 34.0703C870.871 34.6432 870.422 35.1836 869.875 35.6914C869.328 36.1862 868.671 36.5964 867.902 36.9219C867.134 37.2344 866.223 37.3906 865.168 37.3906C863.827 37.3906 862.609 37.1237 861.516 36.5898C860.435 36.043 859.576 35.2943 858.938 34.3438C858.312 33.3802 858 32.2865 858 31.0625C858 29.9557 858.208 28.9727 858.625 28.1133C859.042 27.2539 859.654 26.5312 860.461 25.9453C861.281 25.3464 862.303 24.8971 863.527 24.5977C864.751 24.2852 866.171 24.1289 867.785 24.1289H871.047ZM885.93 20.4766V37H880.305V15.8672H885.598L885.93 20.4766ZM892.297 15.7305L892.199 20.9453C891.926 20.9062 891.594 20.8737 891.203 20.8477C890.826 20.8086 890.48 20.7891 890.168 20.7891C889.374 20.7891 888.684 20.8932 888.098 21.1016C887.525 21.2969 887.043 21.5898 886.652 21.9805C886.275 22.3711 885.988 22.8464 885.793 23.4062C885.611 23.9661 885.507 24.6042 885.48 25.3203L884.348 24.9688C884.348 23.6016 884.484 22.3451 884.758 21.1992C885.031 20.0404 885.428 19.0312 885.949 18.1719C886.483 17.3125 887.134 16.6484 887.902 16.1797C888.671 15.7109 889.549 15.4766 890.539 15.4766C890.852 15.4766 891.171 15.5026 891.496 15.5547C891.822 15.5938 892.089 15.6523 892.297 15.7305ZM900.891 15.8672V37H895.246V15.8672H900.891ZM894.895 10.3594C894.895 9.53906 895.181 8.86198 895.754 8.32812C896.327 7.79427 897.095 7.52734 898.059 7.52734C899.009 7.52734 899.771 7.79427 900.344 8.32812C900.93 8.86198 901.223 9.53906 901.223 10.3594C901.223 11.1797 900.93 11.8568 900.344 12.3906C899.771 12.9245 899.009 13.1914 898.059 13.1914C897.095 13.1914 896.327 12.9245 895.754 12.3906C895.181 11.8568 894.895 11.1797 894.895 10.3594ZM915.266 37.3906C913.625 37.3906 912.154 37.1302 910.852 36.6094C909.549 36.0755 908.443 35.3398 907.531 34.4023C906.633 33.4648 905.943 32.3776 905.461 31.1406C904.979 29.8906 904.738 28.5625 904.738 27.1562V26.375C904.738 24.7734 904.966 23.3086 905.422 21.9805C905.878 20.6523 906.529 19.5 907.375 18.5234C908.234 17.5469 909.276 16.7982 910.5 16.2773C911.724 15.7435 913.104 15.4766 914.641 15.4766C916.138 15.4766 917.466 15.724 918.625 16.2188C919.784 16.7135 920.754 17.4167 921.535 18.3281C922.329 19.2396 922.928 20.3333 923.332 21.6094C923.736 22.8724 923.938 24.2786 923.938 25.8281V28.1719H907.141V24.4219H918.41V23.9922C918.41 23.2109 918.267 22.5143 917.98 21.9023C917.707 21.2773 917.29 20.7826 916.73 20.418C916.171 20.0534 915.454 19.8711 914.582 19.8711C913.84 19.8711 913.202 20.0339 912.668 20.3594C912.134 20.6849 911.698 21.1406 911.359 21.7266C911.034 22.3125 910.786 23.0026 910.617 23.7969C910.461 24.5781 910.383 25.4375 910.383 26.375V27.1562C910.383 28.0026 910.5 28.7839 910.734 29.5C910.982 30.2161 911.327 30.8346 911.77 31.3555C912.225 31.8763 912.772 32.2799 913.41 32.5664C914.061 32.8529 914.797 32.9961 915.617 32.9961C916.633 32.9961 917.577 32.8008 918.449 32.4102C919.335 32.0065 920.096 31.401 920.734 30.5938L923.469 33.5625C923.026 34.2005 922.421 34.8125 921.652 35.3984C920.897 35.9844 919.986 36.4661 918.918 36.8438C917.85 37.2083 916.633 37.3906 915.266 37.3906ZM937.492 15.8672V19.8516H925.188V15.8672H937.492ZM928.234 10.6523H933.859V30.6328C933.859 31.2448 933.938 31.7135 934.094 32.0391C934.263 32.3646 934.51 32.5924 934.836 32.7227C935.161 32.8398 935.572 32.8984 936.066 32.8984C936.418 32.8984 936.73 32.8854 937.004 32.8594C937.29 32.8203 937.531 32.7812 937.727 32.7422L937.746 36.8828C937.264 37.0391 936.743 37.1628 936.184 37.2539C935.624 37.3451 935.005 37.3906 934.328 37.3906C933.091 37.3906 932.01 37.1888 931.086 36.7852C930.174 36.3685 929.471 35.7044 928.977 34.793C928.482 33.8815 928.234 32.6836 928.234 31.1992V10.6523Z" fill="white"/>
<line x1="-5.10231e-08" y1="22.5" x2="440" y2="22.5" stroke="white"/>
<line x1="974" y1="22.5" x2="1382" y2="22.5" stroke="white"/>
</svg>
