<svg width="1265" height="45" viewBox="0 0 1265 45" fill="none" xmlns="http://www.w3.org/2000/svg">
<path d="M23.8242 20.8799V31.5859C23.4036 32.0931 22.7542 32.6436 21.876 33.2373C20.9977 33.8187 19.8659 34.3197 18.4805 34.7402C17.0951 35.1608 15.4189 35.3711 13.4521 35.3711C11.708 35.3711 10.1185 35.0866 8.68359 34.5176C7.2487 33.9362 6.01172 33.0889 4.97266 31.9756C3.94596 30.8623 3.1543 29.5016 2.59766 27.8936C2.04102 26.2731 1.7627 24.4238 1.7627 22.3457V20.6572C1.7627 18.5791 2.02865 16.7298 2.56055 15.1094C3.10482 13.4889 3.87793 12.1221 4.87988 11.0088C5.88184 9.89551 7.07552 9.04818 8.46094 8.4668C9.84635 7.88542 11.3864 7.59473 13.0811 7.59473C15.4313 7.59473 17.361 7.97819 18.8701 8.74512C20.3792 9.49967 21.5296 10.5511 22.3213 11.8994C23.1253 13.2354 23.6201 14.7692 23.8057 16.501H18.4062C18.2702 15.5856 18.0104 14.7878 17.627 14.1074C17.2435 13.4271 16.693 12.8952 15.9756 12.5117C15.2705 12.1283 14.3551 11.9365 13.2295 11.9365C12.3018 11.9365 11.473 12.1283 10.7432 12.5117C10.0257 12.8828 9.4196 13.4333 8.9248 14.1631C8.43001 14.8929 8.05273 15.7959 7.79297 16.8721C7.5332 17.9482 7.40332 19.1976 7.40332 20.6201V22.3457C7.40332 23.7559 7.53939 25.0052 7.81152 26.0938C8.08366 27.1699 8.48568 28.0791 9.01758 28.8213C9.56185 29.5511 10.2298 30.1016 11.0215 30.4727C11.8132 30.8438 12.7347 31.0293 13.7861 31.0293C14.6644 31.0293 15.3942 30.9551 15.9756 30.8066C16.5693 30.6582 17.0456 30.4788 17.4043 30.2686C17.7754 30.0459 18.0599 29.8356 18.2578 29.6377V24.8506H13.1738V20.8799H23.8242ZM33.3242 19.3027V35H27.9805V14.9238H33.0088L33.3242 19.3027ZM39.373 14.7939L39.2803 19.748C39.0205 19.7109 38.7051 19.68 38.334 19.6553C37.9753 19.6182 37.6475 19.5996 37.3506 19.5996C36.596 19.5996 35.9404 19.6986 35.3838 19.8965C34.8395 20.082 34.3818 20.3604 34.0107 20.7314C33.652 21.1025 33.3799 21.554 33.1943 22.0859C33.0212 22.6178 32.9222 23.224 32.8975 23.9043L31.8213 23.5703C31.8213 22.2715 31.9512 21.0778 32.2109 19.9893C32.4707 18.8883 32.848 17.9297 33.3428 17.1133C33.8499 16.2969 34.4684 15.666 35.1982 15.2207C35.9281 14.7754 36.763 14.5527 37.7031 14.5527C38 14.5527 38.3031 14.5775 38.6123 14.627C38.9215 14.6641 39.1751 14.7197 39.373 14.7939ZM50.7656 35.3711C49.207 35.3711 47.8092 35.1237 46.5723 34.6289C45.3353 34.1217 44.2839 33.4229 43.418 32.5322C42.5645 31.6416 41.9089 30.6087 41.4512 29.4336C40.9935 28.2461 40.7646 26.9844 40.7646 25.6484V24.9062C40.7646 23.3848 40.9811 21.9932 41.4141 20.7314C41.847 19.4697 42.4655 18.375 43.2695 17.4473C44.0859 16.5195 45.0755 15.8083 46.2383 15.3135C47.401 14.8063 48.7122 14.5527 50.1719 14.5527C51.5944 14.5527 52.8561 14.7878 53.957 15.2578C55.0579 15.7279 55.9795 16.3958 56.7217 17.2617C57.4762 18.1276 58.0452 19.1667 58.4287 20.3789C58.8122 21.5788 59.0039 22.9147 59.0039 24.3867V26.6133H43.0469V23.0508H53.7529V22.6426C53.7529 21.9004 53.6169 21.2386 53.3447 20.6572C53.085 20.0635 52.6891 19.5934 52.1572 19.2471C51.6253 18.9007 50.945 18.7275 50.1162 18.7275C49.4111 18.7275 48.805 18.8822 48.2979 19.1914C47.7907 19.5007 47.3763 19.9336 47.0547 20.4902C46.7454 21.0469 46.5104 21.7025 46.3496 22.457C46.2012 23.1992 46.127 24.0156 46.127 24.9062V25.6484C46.127 26.4525 46.2383 27.1947 46.4609 27.875C46.696 28.5553 47.0238 29.1429 47.4443 29.6377C47.8773 30.1325 48.3968 30.516 49.0029 30.7881C49.6214 31.0602 50.3203 31.1963 51.0996 31.1963C52.0645 31.1963 52.9613 31.0107 53.79 30.6396C54.6312 30.2562 55.3548 29.681 55.9609 28.9141L58.5586 31.7344C58.138 32.3405 57.5628 32.9219 56.833 33.4785C56.1156 34.0352 55.2497 34.4928 54.2354 34.8516C53.221 35.1979 52.0645 35.3711 50.7656 35.3711ZM71.2871 35.3711C69.7285 35.3711 68.3307 35.1237 67.0938 34.6289C65.8568 34.1217 64.8053 33.4229 63.9395 32.5322C63.0859 31.6416 62.4303 30.6087 61.9727 29.4336C61.515 28.2461 61.2861 26.9844 61.2861 25.6484V24.9062C61.2861 23.3848 61.5026 21.9932 61.9355 20.7314C62.3685 19.4697 62.987 18.375 63.791 17.4473C64.6074 16.5195 65.597 15.8083 66.7598 15.3135C67.9225 14.8063 69.2337 14.5527 70.6934 14.5527C72.1159 14.5527 73.3776 14.7878 74.4785 15.2578C75.5794 15.7279 76.501 16.3958 77.2432 17.2617C77.9977 18.1276 78.5667 19.1667 78.9502 20.3789C79.3337 21.5788 79.5254 22.9147 79.5254 24.3867V26.6133H63.5684V23.0508H74.2744V22.6426C74.2744 21.9004 74.1383 21.2386 73.8662 20.6572C73.6064 20.0635 73.2106 19.5934 72.6787 19.2471C72.1468 18.9007 71.4665 18.7275 70.6377 18.7275C69.9326 18.7275 69.3265 18.8822 68.8193 19.1914C68.3122 19.5007 67.8978 19.9336 67.5762 20.4902C67.2669 21.0469 67.0319 21.7025 66.8711 22.457C66.7227 23.1992 66.6484 24.0156 66.6484 24.9062V25.6484C66.6484 26.4525 66.7598 27.1947 66.9824 27.875C67.2174 28.5553 67.5452 29.1429 67.9658 29.6377C68.3988 30.1325 68.9183 30.516 69.5244 30.7881C70.1429 31.0602 70.8418 31.1963 71.6211 31.1963C72.5859 31.1963 73.4827 31.0107 74.3115 30.6396C75.1527 30.2562 75.8763 29.681 76.4824 28.9141L79.0801 31.7344C78.6595 32.3405 78.0843 32.9219 77.3545 33.4785C76.637 34.0352 75.7712 34.4928 74.7568 34.8516C73.7425 35.1979 72.5859 35.3711 71.2871 35.3711ZM87.8008 19.21V35H82.457V14.9238H87.4668L87.8008 19.21ZM87.0215 24.2568H85.5742C85.5742 22.7725 85.766 21.4365 86.1494 20.249C86.5329 19.0492 87.071 18.0286 87.7637 17.1875C88.4564 16.334 89.279 15.6846 90.2314 15.2393C91.1963 14.7816 92.2725 14.5527 93.46 14.5527C94.4001 14.5527 95.2598 14.6888 96.0391 14.9609C96.8184 15.2331 97.4863 15.666 98.043 16.2598C98.612 16.8535 99.0449 17.639 99.3418 18.6162C99.651 19.5934 99.8057 20.7871 99.8057 22.1973V35H94.4248V22.1787C94.4248 21.2881 94.3011 20.5954 94.0537 20.1006C93.8063 19.6058 93.4414 19.2594 92.959 19.0615C92.4889 18.8512 91.9076 18.7461 91.2148 18.7461C90.4974 18.7461 89.8727 18.8883 89.3408 19.1729C88.8213 19.4574 88.3883 19.8532 88.042 20.3604C87.708 20.8551 87.4544 21.4365 87.2812 22.1045C87.1081 22.7725 87.0215 23.4899 87.0215 24.2568ZM118.676 19.3027V35H113.332V14.9238H118.36L118.676 19.3027ZM124.725 14.7939L124.632 19.748C124.372 19.7109 124.057 19.68 123.686 19.6553C123.327 19.6182 122.999 19.5996 122.702 19.5996C121.948 19.5996 121.292 19.6986 120.735 19.8965C120.191 20.082 119.733 20.3604 119.362 20.7314C119.004 21.1025 118.731 21.554 118.546 22.0859C118.373 22.6178 118.274 23.224 118.249 23.9043L117.173 23.5703C117.173 22.2715 117.303 21.0778 117.562 19.9893C117.822 18.8883 118.2 17.9297 118.694 17.1133C119.201 16.2969 119.82 15.666 120.55 15.2207C121.28 14.7754 122.115 14.5527 123.055 14.5527C123.352 14.5527 123.655 14.5775 123.964 14.627C124.273 14.6641 124.527 14.7197 124.725 14.7939ZM125.838 25.166V24.7764C125.838 23.3044 126.048 21.9499 126.469 20.7129C126.889 19.4635 127.502 18.3812 128.306 17.4658C129.11 16.5505 130.099 15.8392 131.274 15.332C132.45 14.8125 133.798 14.5527 135.319 14.5527C136.841 14.5527 138.195 14.8125 139.383 15.332C140.57 15.8392 141.566 16.5505 142.37 17.4658C143.187 18.3812 143.805 19.4635 144.226 20.7129C144.646 21.9499 144.856 23.3044 144.856 24.7764V25.166C144.856 26.6257 144.646 27.9801 144.226 29.2295C143.805 30.4665 143.187 31.5488 142.37 32.4766C141.566 33.3919 140.576 34.1032 139.401 34.6104C138.226 35.1175 136.878 35.3711 135.356 35.3711C133.835 35.3711 132.48 35.1175 131.293 34.6104C130.118 34.1032 129.122 33.3919 128.306 32.4766C127.502 31.5488 126.889 30.4665 126.469 29.2295C126.048 27.9801 125.838 26.6257 125.838 25.166ZM131.182 24.7764V25.166C131.182 26.0072 131.256 26.7926 131.404 27.5225C131.553 28.2523 131.788 28.8955 132.109 29.4521C132.443 29.9964 132.876 30.4232 133.408 30.7324C133.94 31.0417 134.59 31.1963 135.356 31.1963C136.099 31.1963 136.736 31.0417 137.268 30.7324C137.799 30.4232 138.226 29.9964 138.548 29.4521C138.869 28.8955 139.104 28.2523 139.253 27.5225C139.414 26.7926 139.494 26.0072 139.494 25.166V24.7764C139.494 23.96 139.414 23.193 139.253 22.4756C139.104 21.7458 138.863 21.1025 138.529 20.5459C138.208 19.9769 137.781 19.5316 137.249 19.21C136.717 18.8883 136.074 18.7275 135.319 18.7275C134.565 18.7275 133.922 18.8883 133.39 19.21C132.87 19.5316 132.443 19.9769 132.109 20.5459C131.788 21.1025 131.553 21.7458 131.404 22.4756C131.256 23.193 131.182 23.96 131.182 24.7764ZM147.287 25.166V24.7764C147.287 23.3044 147.497 21.9499 147.918 20.7129C148.339 19.4635 148.951 18.3812 149.755 17.4658C150.559 16.5505 151.549 15.8392 152.724 15.332C153.899 14.8125 155.247 14.5527 156.769 14.5527C158.29 14.5527 159.645 14.8125 160.832 15.332C162.02 15.8392 163.015 16.5505 163.819 17.4658C164.636 18.3812 165.254 19.4635 165.675 20.7129C166.095 21.9499 166.306 23.3044 166.306 24.7764V25.166C166.306 26.6257 166.095 27.9801 165.675 29.2295C165.254 30.4665 164.636 31.5488 163.819 32.4766C163.015 33.3919 162.026 34.1032 160.851 34.6104C159.675 35.1175 158.327 35.3711 156.806 35.3711C155.284 35.3711 153.93 35.1175 152.742 34.6104C151.567 34.1032 150.571 33.3919 149.755 32.4766C148.951 31.5488 148.339 30.4665 147.918 29.2295C147.497 27.9801 147.287 26.6257 147.287 25.166ZM152.631 24.7764V25.166C152.631 26.0072 152.705 26.7926 152.854 27.5225C153.002 28.2523 153.237 28.8955 153.559 29.4521C153.893 29.9964 154.326 30.4232 154.857 30.7324C155.389 31.0417 156.039 31.1963 156.806 31.1963C157.548 31.1963 158.185 31.0417 158.717 30.7324C159.249 30.4232 159.675 29.9964 159.997 29.4521C160.319 28.8955 160.554 28.2523 160.702 27.5225C160.863 26.7926 160.943 26.0072 160.943 25.166V24.7764C160.943 23.96 160.863 23.193 160.702 22.4756C160.554 21.7458 160.312 21.1025 159.979 20.5459C159.657 19.9769 159.23 19.5316 158.698 19.21C158.166 18.8883 157.523 18.7275 156.769 18.7275C156.014 18.7275 155.371 18.8883 154.839 19.21C154.319 19.5316 153.893 19.9769 153.559 20.5459C153.237 21.1025 153.002 21.7458 152.854 22.4756C152.705 23.193 152.631 23.96 152.631 24.7764ZM176.399 35H171.019V13.1426C171.019 11.6211 171.315 10.3408 171.909 9.30176C172.515 8.25033 173.363 7.45866 174.451 6.92676C175.552 6.38249 176.857 6.11035 178.366 6.11035C178.861 6.11035 179.337 6.14746 179.795 6.22168C180.253 6.28353 180.698 6.36393 181.131 6.46289L181.075 10.4893C180.84 10.4274 180.593 10.3841 180.333 10.3594C180.073 10.3346 179.77 10.3223 179.424 10.3223C178.781 10.3223 178.23 10.4336 177.772 10.6562C177.327 10.8665 176.987 11.182 176.752 11.6025C176.517 12.0231 176.399 12.5365 176.399 13.1426V35ZM180.407 14.9238V18.709H168.031V14.9238H180.407ZM205.382 14.9238H210.225V34.332C210.225 36.1628 209.816 37.7152 209 38.9893C208.196 40.2757 207.07 41.2467 205.623 41.9023C204.176 42.5703 202.493 42.9043 200.576 42.9043C199.735 42.9043 198.844 42.793 197.904 42.5703C196.977 42.3477 196.086 42.0013 195.232 41.5312C194.391 41.0612 193.686 40.4674 193.117 39.75L195.474 36.5957C196.092 37.3132 196.81 37.8698 197.626 38.2656C198.442 38.6738 199.345 38.8779 200.335 38.8779C201.3 38.8779 202.116 38.6986 202.784 38.3398C203.452 37.9935 203.965 37.4801 204.324 36.7998C204.683 36.1318 204.862 35.3216 204.862 34.3691V19.5625L205.382 14.9238ZM191.874 25.2031V24.8135C191.874 23.2796 192.06 21.888 192.431 20.6387C192.814 19.377 193.352 18.2946 194.045 17.3916C194.75 16.4886 195.604 15.7897 196.605 15.2949C197.607 14.8001 198.739 14.5527 200.001 14.5527C201.337 14.5527 202.456 14.8001 203.359 15.2949C204.262 15.7897 205.005 16.4948 205.586 17.4102C206.167 18.3132 206.619 19.3831 206.94 20.6201C207.274 21.8447 207.534 23.1868 207.72 24.6465V25.5C207.534 26.8978 207.256 28.1966 206.885 29.3965C206.514 30.5964 206.025 31.6478 205.419 32.5508C204.813 33.4414 204.058 34.1341 203.155 34.6289C202.265 35.1237 201.201 35.3711 199.964 35.3711C198.727 35.3711 197.607 35.1175 196.605 34.6104C195.616 34.1032 194.769 33.3919 194.063 32.4766C193.358 31.5612 192.814 30.485 192.431 29.248C192.06 28.0111 191.874 26.6628 191.874 25.2031ZM197.218 24.8135V25.2031C197.218 26.0319 197.298 26.805 197.459 27.5225C197.62 28.2399 197.867 28.877 198.201 29.4336C198.548 29.9779 198.974 30.4046 199.481 30.7139C200.001 31.0107 200.613 31.1592 201.318 31.1592C202.296 31.1592 203.093 30.9551 203.712 30.5469C204.33 30.1263 204.794 29.5511 205.104 28.8213C205.413 28.0915 205.592 27.2503 205.642 26.2979V23.8672C205.617 23.0879 205.512 22.389 205.326 21.7705C205.141 21.1396 204.881 20.6016 204.547 20.1562C204.213 19.7109 203.78 19.3646 203.248 19.1172C202.716 18.8698 202.085 18.7461 201.355 18.7461C200.65 18.7461 200.038 18.9069 199.519 19.2285C199.011 19.5378 198.585 19.9645 198.238 20.5088C197.904 21.0531 197.651 21.6963 197.478 22.4385C197.304 23.1683 197.218 23.96 197.218 24.8135ZM225.217 30.4727V21.5293C225.217 20.8861 225.112 20.3356 224.901 19.8779C224.691 19.4079 224.363 19.043 223.918 18.7832C223.485 18.5234 222.922 18.3936 222.229 18.3936C221.636 18.3936 221.122 18.4987 220.689 18.709C220.257 18.9069 219.923 19.1976 219.688 19.5811C219.452 19.9521 219.335 20.3913 219.335 20.8984H213.991C213.991 20.0449 214.189 19.2347 214.585 18.4678C214.981 17.7008 215.556 17.0267 216.311 16.4453C217.065 15.8516 217.962 15.3877 219.001 15.0537C220.052 14.7197 221.228 14.5527 222.526 14.5527C224.085 14.5527 225.47 14.8125 226.683 15.332C227.895 15.8516 228.847 16.6309 229.54 17.6699C230.245 18.709 230.598 20.0078 230.598 21.5664V30.1572C230.598 31.2581 230.666 32.1611 230.802 32.8662C230.938 33.5589 231.136 34.165 231.396 34.6846V35H225.996C225.736 34.4557 225.538 33.7754 225.402 32.959C225.279 32.1302 225.217 31.3014 225.217 30.4727ZM225.922 22.7725L225.959 25.7969H222.972C222.267 25.7969 221.654 25.8773 221.135 26.0381C220.615 26.1989 220.188 26.4277 219.854 26.7246C219.521 27.0091 219.273 27.3431 219.112 27.7266C218.964 28.11 218.89 28.5306 218.89 28.9883C218.89 29.446 218.995 29.8604 219.205 30.2314C219.415 30.5902 219.718 30.8747 220.114 31.085C220.51 31.2829 220.974 31.3818 221.506 31.3818C222.31 31.3818 223.009 31.221 223.603 30.8994C224.196 30.5778 224.654 30.182 224.976 29.7119C225.31 29.2419 225.483 28.7965 225.495 28.376L226.905 30.6396C226.707 31.1468 226.435 31.6725 226.089 32.2168C225.755 32.7611 225.328 33.2744 224.809 33.7568C224.289 34.2269 223.664 34.6165 222.935 34.9258C222.205 35.2227 221.339 35.3711 220.337 35.3711C219.063 35.3711 217.906 35.1175 216.867 34.6104C215.84 34.0908 215.024 33.3796 214.418 32.4766C213.824 31.5612 213.527 30.5221 213.527 29.3594C213.527 28.3079 213.725 27.374 214.121 26.5576C214.517 25.7412 215.098 25.0547 215.865 24.498C216.645 23.929 217.616 23.5023 218.778 23.2178C219.941 22.9209 221.289 22.7725 222.823 22.7725H225.922ZM240.061 19.3027V35H234.717V14.9238H239.745L240.061 19.3027ZM246.109 14.7939L246.017 19.748C245.757 19.7109 245.441 19.68 245.07 19.6553C244.712 19.6182 244.384 19.5996 244.087 19.5996C243.332 19.5996 242.677 19.6986 242.12 19.8965C241.576 20.082 241.118 20.3604 240.747 20.7314C240.388 21.1025 240.116 21.554 239.931 22.0859C239.757 22.6178 239.659 23.224 239.634 23.9043L238.558 23.5703C238.558 22.2715 238.688 21.0778 238.947 19.9893C239.207 18.8883 239.584 17.9297 240.079 17.1133C240.586 16.2969 241.205 15.666 241.935 15.2207C242.664 14.7754 243.499 14.5527 244.439 14.5527C244.736 14.5527 245.039 14.5775 245.349 14.627C245.658 14.6641 245.911 14.7197 246.109 14.7939ZM260.118 30.6211V6.5H265.499V35H260.656L260.118 30.6211ZM247.427 25.2031V24.8135C247.427 23.2796 247.6 21.888 247.946 20.6387C248.293 19.377 248.8 18.2946 249.468 17.3916C250.136 16.4886 250.958 15.7897 251.936 15.2949C252.913 14.8001 254.026 14.5527 255.275 14.5527C256.451 14.5527 257.477 14.8001 258.355 15.2949C259.246 15.7897 260.001 16.4948 260.619 17.4102C261.25 18.3132 261.757 19.3831 262.141 20.6201C262.524 21.8447 262.802 23.1868 262.976 24.6465V25.5C262.802 26.8978 262.524 28.1966 262.141 29.3965C261.757 30.5964 261.25 31.6478 260.619 32.5508C260.001 33.4414 259.246 34.1341 258.355 34.6289C257.465 35.1237 256.426 35.3711 255.238 35.3711C253.989 35.3711 252.876 35.1175 251.898 34.6104C250.934 34.1032 250.117 33.3919 249.449 32.4766C248.794 31.5612 248.293 30.485 247.946 29.248C247.6 28.0111 247.427 26.6628 247.427 25.2031ZM252.771 24.8135V25.2031C252.771 26.0319 252.832 26.805 252.956 27.5225C253.092 28.2399 253.309 28.877 253.605 29.4336C253.915 29.9779 254.311 30.4046 254.793 30.7139C255.288 31.0107 255.888 31.1592 256.593 31.1592C257.508 31.1592 258.263 30.9551 258.856 30.5469C259.45 30.1263 259.902 29.5511 260.211 28.8213C260.533 28.0915 260.718 27.2503 260.768 26.2979V23.8672C260.73 23.0879 260.619 22.389 260.434 21.7705C260.26 21.1396 260.001 20.6016 259.654 20.1562C259.32 19.7109 258.9 19.3646 258.393 19.1172C257.898 18.8698 257.31 18.7461 256.63 18.7461C255.937 18.7461 255.343 18.9069 254.849 19.2285C254.354 19.5378 253.952 19.9645 253.643 20.5088C253.346 21.0531 253.123 21.6963 252.975 22.4385C252.839 23.1683 252.771 23.96 252.771 24.8135ZM278.914 35.3711C277.355 35.3711 275.958 35.1237 274.721 34.6289C273.484 34.1217 272.432 33.4229 271.566 32.5322C270.713 31.6416 270.057 30.6087 269.6 29.4336C269.142 28.2461 268.913 26.9844 268.913 25.6484V24.9062C268.913 23.3848 269.13 21.9932 269.562 20.7314C269.995 19.4697 270.614 18.375 271.418 17.4473C272.234 16.5195 273.224 15.8083 274.387 15.3135C275.549 14.8063 276.861 14.5527 278.32 14.5527C279.743 14.5527 281.005 14.7878 282.105 15.2578C283.206 15.7279 284.128 16.3958 284.87 17.2617C285.625 18.1276 286.194 19.1667 286.577 20.3789C286.961 21.5788 287.152 22.9147 287.152 24.3867V26.6133H271.195V23.0508H281.901V22.6426C281.901 21.9004 281.765 21.2386 281.493 20.6572C281.233 20.0635 280.838 19.5934 280.306 19.2471C279.774 18.9007 279.093 18.7275 278.265 18.7275C277.56 18.7275 276.953 18.8822 276.446 19.1914C275.939 19.5007 275.525 19.9336 275.203 20.4902C274.894 21.0469 274.659 21.7025 274.498 22.457C274.35 23.1992 274.275 24.0156 274.275 24.9062V25.6484C274.275 26.4525 274.387 27.1947 274.609 27.875C274.844 28.5553 275.172 29.1429 275.593 29.6377C276.026 30.1325 276.545 30.516 277.151 30.7881C277.77 31.0602 278.469 31.1963 279.248 31.1963C280.213 31.1963 281.11 31.0107 281.938 30.6396C282.78 30.2562 283.503 29.681 284.109 28.9141L286.707 31.7344C286.286 32.3405 285.711 32.9219 284.981 33.4785C284.264 34.0352 283.398 34.4928 282.384 34.8516C281.369 35.1979 280.213 35.3711 278.914 35.3711ZM295.428 19.21V35H290.084V14.9238H295.094L295.428 19.21ZM294.648 24.2568H293.201C293.201 22.7725 293.393 21.4365 293.776 20.249C294.16 19.0492 294.698 18.0286 295.391 17.1875C296.083 16.334 296.906 15.6846 297.858 15.2393C298.823 14.7816 299.899 14.5527 301.087 14.5527C302.027 14.5527 302.887 14.6888 303.666 14.9609C304.445 15.2331 305.113 15.666 305.67 16.2598C306.239 16.8535 306.672 17.639 306.969 18.6162C307.278 19.5934 307.433 20.7871 307.433 22.1973V35H302.052V22.1787C302.052 21.2881 301.928 20.5954 301.681 20.1006C301.433 19.6058 301.068 19.2594 300.586 19.0615C300.116 18.8512 299.535 18.7461 298.842 18.7461C298.124 18.7461 297.5 18.8883 296.968 19.1729C296.448 19.4574 296.015 19.8532 295.669 20.3604C295.335 20.8551 295.081 21.4365 294.908 22.1045C294.735 22.7725 294.648 23.4899 294.648 24.2568Z" fill="white"/>
<line x1="334" y1="21.5" x2="1265" y2="21.5" stroke="white"/>
</svg>
