<svg width="562" height="45" viewBox="0 0 562 45" fill="none" xmlns="http://www.w3.org/2000/svg">
<path d="M16.4766 27.9307C16.4766 27.4482 16.4023 27.0153 16.2539 26.6318C16.1178 26.236 15.8581 25.8773 15.4746 25.5557C15.0911 25.2217 14.5531 24.8939 13.8604 24.5723C13.1676 24.2507 12.2708 23.9167 11.1699 23.5703C9.94531 23.1745 8.78255 22.7292 7.68164 22.2344C6.5931 21.7396 5.62826 21.1644 4.78711 20.5088C3.95833 19.8408 3.30273 19.0677 2.82031 18.1895C2.35026 17.3112 2.11523 16.2907 2.11523 15.1279C2.11523 14.0023 2.36263 12.9818 2.85742 12.0664C3.35221 11.1387 4.04492 10.347 4.93555 9.69141C5.82617 9.02344 6.8776 8.51009 8.08984 8.15137C9.31445 7.79264 10.6566 7.61328 12.1162 7.61328C14.1077 7.61328 15.8457 7.97201 17.3301 8.68945C18.8145 9.4069 19.9648 10.3903 20.7812 11.6396C21.61 12.889 22.0244 14.3177 22.0244 15.9258H16.4951C16.4951 15.1341 16.3281 14.4414 15.9941 13.8477C15.6725 13.2415 15.1777 12.7653 14.5098 12.4189C13.8542 12.0726 13.0254 11.8994 12.0234 11.8994C11.0586 11.8994 10.2546 12.0479 9.61133 12.3447C8.9681 12.6292 8.48568 13.0189 8.16406 13.5137C7.84245 13.9961 7.68164 14.5404 7.68164 15.1465C7.68164 15.6042 7.79297 16.0186 8.01562 16.3896C8.25065 16.7607 8.59701 17.1071 9.05469 17.4287C9.51237 17.7503 10.0752 18.0534 10.7432 18.3379C11.4111 18.6224 12.1842 18.9007 13.0625 19.1729C14.5345 19.6182 15.8271 20.1191 16.9404 20.6758C18.0661 21.2324 19.0062 21.8571 19.7607 22.5498C20.5153 23.2425 21.0843 24.028 21.4678 24.9062C21.8512 25.7845 22.043 26.7803 22.043 27.8936C22.043 29.0687 21.8141 30.1201 21.3564 31.0479C20.8988 31.9756 20.237 32.7611 19.3711 33.4043C18.5052 34.0475 17.4723 34.5361 16.2725 34.8701C15.0726 35.2041 13.7305 35.3711 12.2461 35.3711C10.9102 35.3711 9.59277 35.1979 8.29395 34.8516C6.99512 34.4928 5.8138 33.9548 4.75 33.2373C3.69857 32.5199 2.85742 31.6045 2.22656 30.4912C1.5957 29.3779 1.28027 28.0605 1.28027 26.5391H6.86523C6.86523 27.3802 6.99512 28.0915 7.25488 28.6729C7.51465 29.2542 7.87956 29.7243 8.34961 30.083C8.83203 30.4417 9.40104 30.7015 10.0566 30.8623C10.7246 31.0231 11.4544 31.1035 12.2461 31.1035C13.2109 31.1035 14.0026 30.9674 14.6211 30.6953C15.252 30.4232 15.7158 30.0459 16.0127 29.5635C16.3219 29.0811 16.4766 28.5368 16.4766 27.9307ZM30.708 6.5V35H25.3643V6.5H30.708ZM29.9473 24.2568H28.4814C28.4938 22.859 28.6794 21.5726 29.0381 20.3975C29.3968 19.21 29.9102 18.1833 30.5781 17.3174C31.2461 16.4391 32.0439 15.7588 32.9717 15.2764C33.9118 14.7939 34.9508 14.5527 36.0889 14.5527C37.0785 14.5527 37.9753 14.695 38.7793 14.9795C39.5957 15.2516 40.2946 15.6969 40.876 16.3154C41.4697 16.9215 41.9274 17.7194 42.249 18.709C42.5706 19.6986 42.7314 20.8984 42.7314 22.3086V35H37.3506V22.2715C37.3506 21.3809 37.2207 20.682 36.9609 20.1748C36.7135 19.6553 36.3486 19.2904 35.8662 19.0801C35.3962 18.8574 34.8148 18.7461 34.1221 18.7461C33.3551 18.7461 32.6995 18.8883 32.1553 19.1729C31.6234 19.4574 31.1966 19.8532 30.875 20.3604C30.5534 20.8551 30.3184 21.4365 30.1699 22.1045C30.0215 22.7725 29.9473 23.4899 29.9473 24.2568ZM45.9414 25.166V24.7764C45.9414 23.3044 46.1517 21.9499 46.5723 20.7129C46.9928 19.4635 47.6051 18.3812 48.4092 17.4658C49.2132 16.5505 50.2028 15.8392 51.3779 15.332C52.5531 14.8125 53.9014 14.5527 55.4229 14.5527C56.9443 14.5527 58.2988 14.8125 59.4863 15.332C60.6738 15.8392 61.6696 16.5505 62.4736 17.4658C63.29 18.3812 63.9085 19.4635 64.3291 20.7129C64.7497 21.9499 64.96 23.3044 64.96 24.7764V25.166C64.96 26.6257 64.7497 27.9801 64.3291 29.2295C63.9085 30.4665 63.29 31.5488 62.4736 32.4766C61.6696 33.3919 60.68 34.1032 59.5049 34.6104C58.3298 35.1175 56.9814 35.3711 55.46 35.3711C53.9385 35.3711 52.584 35.1175 51.3965 34.6104C50.2214 34.1032 49.2256 33.3919 48.4092 32.4766C47.6051 31.5488 46.9928 30.4665 46.5723 29.2295C46.1517 27.9801 45.9414 26.6257 45.9414 25.166ZM51.2852 24.7764V25.166C51.2852 26.0072 51.3594 26.7926 51.5078 27.5225C51.6562 28.2523 51.8913 28.8955 52.2129 29.4521C52.5469 29.9964 52.9798 30.4232 53.5117 30.7324C54.0436 31.0417 54.693 31.1963 55.46 31.1963C56.2021 31.1963 56.8392 31.0417 57.3711 30.7324C57.903 30.4232 58.3298 29.9964 58.6514 29.4521C58.973 28.8955 59.208 28.2523 59.3564 27.5225C59.5173 26.7926 59.5977 26.0072 59.5977 25.166V24.7764C59.5977 23.96 59.5173 23.193 59.3564 22.4756C59.208 21.7458 58.9668 21.1025 58.6328 20.5459C58.3112 19.9769 57.8844 19.5316 57.3525 19.21C56.8206 18.8883 56.1774 18.7275 55.4229 18.7275C54.6683 18.7275 54.0251 18.8883 53.4932 19.21C52.9736 19.5316 52.5469 19.9769 52.2129 20.5459C51.8913 21.1025 51.6562 21.7458 51.5078 22.4756C51.3594 23.193 51.2852 23.96 51.2852 24.7764ZM73.5879 18.7832V42.7188H68.2441V14.9238H73.1982L73.5879 18.7832ZM86.2979 24.7393V25.1289C86.2979 26.5885 86.1247 27.943 85.7783 29.1924C85.4443 30.4417 84.9495 31.5303 84.2939 32.458C83.6383 33.3734 82.8219 34.0908 81.8447 34.6104C80.8799 35.1175 79.7666 35.3711 78.5049 35.3711C77.2803 35.3711 76.2165 35.1237 75.3135 34.6289C74.4105 34.1341 73.6497 33.4414 73.0312 32.5508C72.4251 31.6478 71.9365 30.6025 71.5654 29.415C71.1943 28.2275 70.9098 26.9535 70.7119 25.5928V24.5723C70.9098 23.1126 71.1943 21.7767 71.5654 20.5645C71.9365 19.3398 72.4251 18.2822 73.0312 17.3916C73.6497 16.4886 74.4043 15.7897 75.2949 15.2949C76.1979 14.8001 77.2555 14.5527 78.4678 14.5527C79.7419 14.5527 80.8613 14.7939 81.8262 15.2764C82.8034 15.7588 83.6198 16.4515 84.2754 17.3545C84.9434 18.2575 85.4443 19.3337 85.7783 20.583C86.1247 21.8324 86.2979 23.2178 86.2979 24.7393ZM80.9355 25.1289V24.7393C80.9355 23.8857 80.8613 23.1003 80.7129 22.3828C80.5768 21.653 80.3542 21.016 80.0449 20.4717C79.748 19.9274 79.3522 19.5068 78.8574 19.21C78.375 18.9007 77.7874 18.7461 77.0947 18.7461C76.3649 18.7461 75.7402 18.8636 75.2207 19.0986C74.7135 19.3337 74.2992 19.6738 73.9775 20.1191C73.6559 20.5645 73.4147 21.0964 73.2539 21.7148C73.0931 22.3333 72.9941 23.0322 72.957 23.8115V26.3906C73.0189 27.306 73.1921 28.1286 73.4766 28.8584C73.7611 29.5758 74.2002 30.1449 74.7939 30.5654C75.3877 30.986 76.167 31.1963 77.1318 31.1963C77.8369 31.1963 78.4307 31.0417 78.9131 30.7324C79.3955 30.4108 79.7852 29.9717 80.082 29.415C80.3913 28.8584 80.6077 28.2152 80.7314 27.4854C80.8675 26.7555 80.9355 25.9701 80.9355 25.1289Z" fill="white"/>
<line x1="98" y1="21.5" x2="562" y2="21.5" stroke="white"/>
</svg>
