<svg width="719" height="42" viewBox="0 0 719 42" fill="none" xmlns="http://www.w3.org/2000/svg">
<line x1="265.002" y1="20.5" x2="719.002" y2="22.5" stroke="white"/>
<path d="M15.6094 26.3027C15.6094 25.8457 15.5391 25.4355 15.3984 25.0723C15.2695 24.6973 15.0234 24.3574 14.6602 24.0527C14.2969 23.7363 13.7871 23.4258 13.1309 23.1211C12.4746 22.8164 11.625 22.5 10.582 22.1719C9.42188 21.7969 8.32031 21.375 7.27734 20.9062C6.24609 20.4375 5.33203 19.8926 4.53516 19.2715C3.75 18.6387 3.12891 17.9062 2.67188 17.0742C2.22656 16.2422 2.00391 15.2754 2.00391 14.1738C2.00391 13.1074 2.23828 12.1406 2.70703 11.2734C3.17578 10.3945 3.83203 9.64453 4.67578 9.02344C5.51953 8.39062 6.51562 7.9043 7.66406 7.56445C8.82422 7.22461 10.0957 7.05469 11.4785 7.05469C13.3652 7.05469 15.0117 7.39453 16.418 8.07422C17.8242 8.75391 18.9141 9.68555 19.6875 10.8691C20.4727 12.0527 20.8652 13.4062 20.8652 14.9297H15.627C15.627 14.1797 15.4688 13.5234 15.1523 12.9609C14.8477 12.3867 14.3789 11.9355 13.7461 11.6074C13.125 11.2793 12.3398 11.1152 11.3906 11.1152C10.4766 11.1152 9.71484 11.2559 9.10547 11.5371C8.49609 11.8066 8.03906 12.1758 7.73438 12.6445C7.42969 13.1016 7.27734 13.6172 7.27734 14.1914C7.27734 14.625 7.38281 15.0176 7.59375 15.3691C7.81641 15.7207 8.14453 16.0488 8.57812 16.3535C9.01172 16.6582 9.54492 16.9453 10.1777 17.2148C10.8105 17.4844 11.543 17.748 12.375 18.0059C13.7695 18.4277 14.9941 18.9023 16.0488 19.4297C17.1152 19.957 18.0059 20.5488 18.7207 21.2051C19.4355 21.8613 19.9746 22.6055 20.3379 23.4375C20.7012 24.2695 20.8828 25.2129 20.8828 26.2676C20.8828 27.3809 20.666 28.377 20.2324 29.2559C19.7988 30.1348 19.1719 30.8789 18.3516 31.4883C17.5312 32.0977 16.5527 32.5605 15.416 32.877C14.2793 33.1934 13.0078 33.3516 11.6016 33.3516C10.3359 33.3516 9.08789 33.1875 7.85742 32.8594C6.62695 32.5195 5.50781 32.0098 4.5 31.3301C3.50391 30.6504 2.70703 29.7832 2.10938 28.7285C1.51172 27.6738 1.21289 26.4258 1.21289 24.9844H6.50391C6.50391 25.7812 6.62695 26.4551 6.87305 27.0059C7.11914 27.5566 7.46484 28.002 7.91016 28.3418C8.36719 28.6816 8.90625 28.9277 9.52734 29.0801C10.1602 29.2324 10.8516 29.3086 11.6016 29.3086C12.5156 29.3086 13.2656 29.1797 13.8516 28.9219C14.4492 28.6641 14.8887 28.3066 15.1699 27.8496C15.4629 27.3926 15.6094 26.877 15.6094 26.3027ZM35.4023 28.4473V13.9805H40.4648V33H35.7012L35.4023 28.4473ZM35.9648 24.5449L37.459 24.5098C37.459 25.7754 37.3125 26.9531 37.0195 28.043C36.7266 29.1211 36.2871 30.0586 35.7012 30.8555C35.1152 31.6406 34.377 32.2559 33.4863 32.7012C32.5957 33.1348 31.5469 33.3516 30.3398 33.3516C29.4141 33.3516 28.5586 33.2227 27.7734 32.9648C27 32.6953 26.332 32.2793 25.7695 31.7168C25.2188 31.1426 24.7852 30.4102 24.4688 29.5195C24.1641 28.6172 24.0117 27.5332 24.0117 26.2676V13.9805H29.0742V26.3027C29.0742 26.8652 29.1387 27.3398 29.2676 27.7266C29.4082 28.1133 29.6016 28.4297 29.8477 28.6758C30.0938 28.9219 30.3809 29.0977 30.709 29.2031C31.0488 29.3086 31.4238 29.3613 31.834 29.3613C32.877 29.3613 33.6973 29.1504 34.2949 28.7285C34.9043 28.3066 35.332 27.7324 35.5781 27.0059C35.8359 26.2676 35.9648 25.4473 35.9648 24.5449ZM49.2891 18.041V33H44.2266V13.9805H48.9727L49.2891 18.041ZM48.5508 22.8223H47.1797C47.1797 21.416 47.3613 20.1504 47.7246 19.0254C48.0879 17.8887 48.5977 16.9219 49.2539 16.125C49.9102 15.3164 50.6895 14.7012 51.5918 14.2793C52.5059 13.8457 53.5254 13.6289 54.6504 13.6289C55.541 13.6289 56.3555 13.7578 57.0938 14.0156C57.832 14.2734 58.4648 14.6836 58.9922 15.2461C59.5312 15.8086 59.9414 16.5527 60.2227 17.4785C60.5156 18.4043 60.6621 19.5352 60.6621 20.8711V33H55.5645V20.8535C55.5645 20.0098 55.4473 19.3535 55.2129 18.8848C54.9785 18.416 54.6328 18.0879 54.1758 17.9004C53.7305 17.7012 53.1797 17.6016 52.5234 17.6016C51.8438 17.6016 51.252 17.7363 50.748 18.0059C50.2559 18.2754 49.8457 18.6504 49.5176 19.1309C49.2012 19.5996 48.9609 20.1504 48.7969 20.7832C48.6328 21.416 48.5508 22.0957 48.5508 22.8223ZM70.9629 33H65.8652V12.5215C65.8652 11.0332 66.1758 9.7793 66.7969 8.75977C67.418 7.72852 68.3145 6.94922 69.4863 6.42188C70.6582 5.89453 72.0703 5.63086 73.7227 5.63086C74.4141 5.63086 75.2754 5.66602 76.3066 5.73633C77.3496 5.79492 78.4102 5.87109 79.4883 5.96484C80.5781 6.04688 81.5332 6.13477 82.3535 6.22852L80.2441 10.2188C79.1895 10.0312 78.1758 9.88477 77.2031 9.7793C76.2305 9.67383 75.3047 9.62109 74.4258 9.62109C73.6758 9.62109 73.043 9.73242 72.5273 9.95508C72.0117 10.1777 71.6191 10.5059 71.3496 10.9395C71.0918 11.3613 70.9629 11.8887 70.9629 12.5215V33ZM77.291 33V6.22852H82.3535V33H77.291ZM74.7598 13.9805V17.5664H63.0352V13.9805H74.7598ZM85.7812 23.6836V23.3145C85.7812 21.9199 85.9805 20.6367 86.3789 19.4648C86.7773 18.2812 87.3574 17.2559 88.1191 16.3887C88.8809 15.5215 89.8184 14.8477 90.9316 14.3672C92.0449 13.875 93.3223 13.6289 94.7637 13.6289C96.2051 13.6289 97.4883 13.875 98.6133 14.3672C99.7383 14.8477 100.682 15.5215 101.443 16.3887C102.217 17.2559 102.803 18.2812 103.201 19.4648C103.6 20.6367 103.799 21.9199 103.799 23.3145V23.6836C103.799 25.0664 103.6 26.3496 103.201 27.5332C102.803 28.7051 102.217 29.7305 101.443 30.6094C100.682 31.4766 99.7441 32.1504 98.6309 32.6309C97.5176 33.1113 96.2402 33.3516 94.7988 33.3516C93.3574 33.3516 92.0742 33.1113 90.9492 32.6309C89.8359 32.1504 88.8926 31.4766 88.1191 30.6094C87.3574 29.7305 86.7773 28.7051 86.3789 27.5332C85.9805 26.3496 85.7812 25.0664 85.7812 23.6836ZM90.8438 23.3145V23.6836C90.8438 24.4805 90.9141 25.2246 91.0547 25.916C91.1953 26.6074 91.418 27.2168 91.7227 27.7441C92.0391 28.2598 92.4492 28.6641 92.9531 28.957C93.457 29.25 94.0723 29.3965 94.7988 29.3965C95.502 29.3965 96.1055 29.25 96.6094 28.957C97.1133 28.6641 97.5176 28.2598 97.8223 27.7441C98.127 27.2168 98.3496 26.6074 98.4902 25.916C98.6426 25.2246 98.7188 24.4805 98.7188 23.6836V23.3145C98.7188 22.541 98.6426 21.8145 98.4902 21.1348C98.3496 20.4434 98.1211 19.834 97.8047 19.3066C97.5 18.7676 97.0957 18.3457 96.5918 18.041C96.0879 17.7363 95.4785 17.584 94.7637 17.584C94.0488 17.584 93.4395 17.7363 92.9355 18.041C92.4434 18.3457 92.0391 18.7676 91.7227 19.3066C91.418 19.834 91.1953 20.4434 91.0547 21.1348C90.9141 21.8145 90.8438 22.541 90.8438 23.3145ZM112.342 28.0781L116.297 13.9805H119.514L118.477 19.5176L114.521 33H111.832L112.342 28.0781ZM110.338 13.9805L113.168 28.0605L113.432 33H110.268L105.451 13.9805H110.338ZM123.135 27.832L125.895 13.9805H130.799L125.982 33H122.836L123.135 27.832ZM119.953 13.9805L123.891 27.9727L124.436 33H121.729L117.773 19.5352L116.771 13.9805H119.953ZM142.102 33.3516C140.625 33.3516 139.301 33.1172 138.129 32.6484C136.957 32.168 135.961 31.5059 135.141 30.6621C134.332 29.8184 133.711 28.8398 133.277 27.7266C132.844 26.6016 132.627 25.4062 132.627 24.1406V23.4375C132.627 21.9961 132.832 20.6777 133.242 19.4824C133.652 18.2871 134.238 17.25 135 16.3711C135.773 15.4922 136.711 14.8184 137.812 14.3496C138.914 13.8691 140.156 13.6289 141.539 13.6289C142.887 13.6289 144.082 13.8516 145.125 14.2969C146.168 14.7422 147.041 15.375 147.744 16.1953C148.459 17.0156 148.998 18 149.361 19.1484C149.725 20.2852 149.906 21.5508 149.906 22.9453V25.0547H134.789V21.6797H144.932V21.293C144.932 20.5898 144.803 19.9629 144.545 19.4121C144.299 18.8496 143.924 18.4043 143.42 18.0762C142.916 17.748 142.271 17.584 141.486 17.584C140.818 17.584 140.244 17.7305 139.764 18.0234C139.283 18.3164 138.891 18.7266 138.586 19.2539C138.293 19.7812 138.07 20.4023 137.918 21.1172C137.777 21.8203 137.707 22.5938 137.707 23.4375V24.1406C137.707 24.9023 137.812 25.6055 138.023 26.25C138.246 26.8945 138.557 27.4512 138.955 27.9199C139.365 28.3887 139.857 28.752 140.432 29.0098C141.018 29.2676 141.68 29.3965 142.418 29.3965C143.332 29.3965 144.182 29.2207 144.967 28.8691C145.764 28.5059 146.449 27.9609 147.023 27.2344L149.484 29.9062C149.086 30.4805 148.541 31.0312 147.85 31.5586C147.17 32.0859 146.35 32.5195 145.389 32.8594C144.428 33.1875 143.332 33.3516 142.102 33.3516ZM157.852 18.1289V33H152.789V13.9805H157.553L157.852 18.1289ZM163.582 13.8574L163.494 18.5508C163.248 18.5156 162.949 18.4863 162.598 18.4629C162.258 18.4277 161.947 18.4102 161.666 18.4102C160.951 18.4102 160.33 18.5039 159.803 18.6914C159.287 18.8672 158.854 19.1309 158.502 19.4824C158.162 19.834 157.904 20.2617 157.729 20.7656C157.564 21.2695 157.471 21.8438 157.447 22.4883L156.428 22.1719C156.428 20.9414 156.551 19.8105 156.797 18.7793C157.043 17.7363 157.4 16.8281 157.869 16.0547C158.35 15.2812 158.936 14.6836 159.627 14.2617C160.318 13.8398 161.109 13.6289 162 13.6289C162.281 13.6289 162.568 13.6523 162.861 13.6992C163.154 13.7344 163.395 13.7871 163.582 13.8574ZM182.795 29.3965C183.416 29.3965 183.967 29.2793 184.447 29.0449C184.928 28.7988 185.303 28.459 185.572 28.0254C185.854 27.5801 186 27.0586 186.012 26.4609H190.775C190.764 27.7969 190.406 28.9863 189.703 30.0293C189 31.0605 188.057 31.875 186.873 32.4727C185.689 33.0586 184.365 33.3516 182.9 33.3516C181.424 33.3516 180.135 33.1055 179.033 32.6133C177.943 32.1211 177.035 31.4414 176.309 30.5742C175.582 29.6953 175.037 28.6758 174.674 27.5156C174.311 26.3438 174.129 25.0898 174.129 23.7539V23.2441C174.129 21.8965 174.311 20.6426 174.674 19.4824C175.037 18.3105 175.582 17.291 176.309 16.4238C177.035 15.5449 177.943 14.8594 179.033 14.3672C180.123 13.875 181.4 13.6289 182.865 13.6289C184.424 13.6289 185.789 13.9277 186.961 14.5254C188.145 15.123 189.07 15.9785 189.738 17.0918C190.418 18.1934 190.764 19.5 190.775 21.0117H186.012C186 20.3789 185.865 19.8047 185.607 19.2891C185.361 18.7734 184.998 18.3633 184.518 18.0586C184.049 17.7422 183.469 17.584 182.777 17.584C182.039 17.584 181.436 17.7422 180.967 18.0586C180.498 18.3633 180.135 18.7852 179.877 19.3242C179.619 19.8516 179.438 20.4551 179.332 21.1348C179.238 21.8027 179.191 22.5059 179.191 23.2441V23.7539C179.191 24.4922 179.238 25.2012 179.332 25.8809C179.426 26.5605 179.602 27.1641 179.859 27.6914C180.129 28.2188 180.498 28.6348 180.967 28.9395C181.436 29.2441 182.045 29.3965 182.795 29.3965ZM192.902 23.6836V23.3145C192.902 21.9199 193.102 20.6367 193.5 19.4648C193.898 18.2812 194.479 17.2559 195.24 16.3887C196.002 15.5215 196.939 14.8477 198.053 14.3672C199.166 13.875 200.443 13.6289 201.885 13.6289C203.326 13.6289 204.609 13.875 205.734 14.3672C206.859 14.8477 207.803 15.5215 208.564 16.3887C209.338 17.2559 209.924 18.2812 210.322 19.4648C210.721 20.6367 210.92 21.9199 210.92 23.3145V23.6836C210.92 25.0664 210.721 26.3496 210.322 27.5332C209.924 28.7051 209.338 29.7305 208.564 30.6094C207.803 31.4766 206.865 32.1504 205.752 32.6309C204.639 33.1113 203.361 33.3516 201.92 33.3516C200.479 33.3516 199.195 33.1113 198.07 32.6309C196.957 32.1504 196.014 31.4766 195.24 30.6094C194.479 29.7305 193.898 28.7051 193.5 27.5332C193.102 26.3496 192.902 25.0664 192.902 23.6836ZM197.965 23.3145V23.6836C197.965 24.4805 198.035 25.2246 198.176 25.916C198.316 26.6074 198.539 27.2168 198.844 27.7441C199.16 28.2598 199.57 28.6641 200.074 28.957C200.578 29.25 201.193 29.3965 201.92 29.3965C202.623 29.3965 203.227 29.25 203.73 28.957C204.234 28.6641 204.639 28.2598 204.943 27.7441C205.248 27.2168 205.471 26.6074 205.611 25.916C205.764 25.2246 205.84 24.4805 205.84 23.6836V23.3145C205.84 22.541 205.764 21.8145 205.611 21.1348C205.471 20.4434 205.242 19.834 204.926 19.3066C204.621 18.7676 204.217 18.3457 203.713 18.041C203.209 17.7363 202.6 17.584 201.885 17.584C201.17 17.584 200.561 17.7363 200.057 18.041C199.564 18.3457 199.16 18.7676 198.844 19.3066C198.539 19.834 198.316 20.4434 198.176 21.1348C198.035 21.8145 197.965 22.541 197.965 23.3145ZM219.094 18.1289V33H214.031V13.9805H218.795L219.094 18.1289ZM224.824 13.8574L224.736 18.5508C224.49 18.5156 224.191 18.4863 223.84 18.4629C223.5 18.4277 223.189 18.4102 222.908 18.4102C222.193 18.4102 221.572 18.5039 221.045 18.6914C220.529 18.8672 220.096 19.1309 219.744 19.4824C219.404 19.834 219.146 20.2617 218.971 20.7656C218.807 21.2695 218.713 21.8438 218.689 22.4883L217.67 22.1719C217.67 20.9414 217.793 19.8105 218.039 18.7793C218.285 17.7363 218.643 16.8281 219.111 16.0547C219.592 15.2812 220.178 14.6836 220.869 14.2617C221.561 13.8398 222.352 13.6289 223.242 13.6289C223.523 13.6289 223.811 13.6523 224.104 13.6992C224.396 13.7344 224.637 13.7871 224.824 13.8574ZM238.096 28.8516V6H243.193V33H238.605L238.096 28.8516ZM226.072 23.7188V23.3496C226.072 21.8965 226.236 20.5781 226.564 19.3945C226.893 18.1992 227.373 17.1738 228.006 16.3184C228.639 15.4629 229.418 14.8008 230.344 14.332C231.27 13.8633 232.324 13.6289 233.508 13.6289C234.621 13.6289 235.594 13.8633 236.426 14.332C237.27 14.8008 237.984 15.4688 238.57 16.3359C239.168 17.1914 239.648 18.2051 240.012 19.377C240.375 20.5371 240.639 21.8086 240.803 23.1914V24C240.639 25.3242 240.375 26.5547 240.012 27.6914C239.648 28.8281 239.168 29.8242 238.57 30.6797C237.984 31.5234 237.27 32.1797 236.426 32.6484C235.582 33.1172 234.598 33.3516 233.473 33.3516C232.289 33.3516 231.234 33.1113 230.309 32.6309C229.395 32.1504 228.621 31.4766 227.988 30.6094C227.367 29.7422 226.893 28.7227 226.564 27.5508C226.236 26.3789 226.072 25.1016 226.072 23.7188ZM231.135 23.3496V23.7188C231.135 24.5039 231.193 25.2363 231.311 25.916C231.439 26.5957 231.645 27.1992 231.926 27.7266C232.219 28.2422 232.594 28.6465 233.051 28.9395C233.52 29.2207 234.088 29.3613 234.756 29.3613C235.623 29.3613 236.338 29.168 236.9 28.7812C237.463 28.3828 237.891 27.8379 238.184 27.1465C238.488 26.4551 238.664 25.6582 238.711 24.7559V22.4531C238.676 21.7148 238.57 21.0527 238.395 20.4668C238.23 19.8691 237.984 19.3594 237.656 18.9375C237.34 18.5156 236.941 18.1875 236.461 17.9531C235.992 17.7188 235.436 17.6016 234.791 17.6016C234.135 17.6016 233.572 17.7539 233.104 18.0586C232.635 18.3516 232.254 18.7559 231.961 19.2715C231.68 19.7871 231.469 20.3965 231.328 21.0996C231.199 21.791 231.135 22.541 231.135 23.3496Z" fill="white"/>
</svg>
