<svg width="1286" height="48" viewBox="0 0 1286 48" fill="none" xmlns="http://www.w3.org/2000/svg">
<path d="M2.52841 39V9.90909H14.0057C16.2121 9.90909 18.0919 10.3305 19.6449 11.1733C21.1979 12.0066 22.3816 13.1667 23.196 14.6534C24.0199 16.1307 24.4318 17.8352 24.4318 19.767C24.4318 21.6989 24.0152 23.4034 23.1818 24.8807C22.3485 26.358 21.1411 27.5085 19.5597 28.3324C17.9877 29.1562 16.0843 29.5682 13.8494 29.5682H6.53409V24.6392H12.8551C14.0388 24.6392 15.0142 24.4356 15.7812 24.0284C16.5578 23.6117 17.1354 23.0388 17.5142 22.3097C17.9025 21.571 18.0966 20.7235 18.0966 19.767C18.0966 18.8011 17.9025 17.9583 17.5142 17.2386C17.1354 16.5095 16.5578 15.946 15.7812 15.5483C15.0047 15.1411 14.0199 14.9375 12.8267 14.9375H8.67898V39H2.52841ZM28.3132 39V17.1818H34.1797V20.9886H34.407C34.8047 19.6345 35.4723 18.6117 36.4098 17.9205C37.3473 17.2197 38.4268 16.8693 39.6484 16.8693C39.9515 16.8693 40.2782 16.8883 40.6286 16.9261C40.9789 16.964 41.2867 17.0161 41.5518 17.0824V22.4517C41.2678 22.3665 40.8748 22.2907 40.3729 22.2244C39.871 22.1581 39.4117 22.125 38.995 22.125C38.1049 22.125 37.3094 22.3191 36.6087 22.7074C35.9174 23.0862 35.3681 23.6165 34.9609 24.2983C34.5632 24.9801 34.3643 25.7661 34.3643 26.6562V39H28.3132ZM53.608 39.4261C51.3636 39.4261 49.4318 38.9716 47.8125 38.0625C46.2027 37.1439 44.9621 35.8466 44.0909 34.1705C43.2197 32.4848 42.7841 30.4915 42.7841 28.1903C42.7841 25.946 43.2197 23.9763 44.0909 22.2812C44.9621 20.5862 46.1884 19.2652 47.7699 18.3182C49.3608 17.3712 51.2263 16.8977 53.3665 16.8977C54.8059 16.8977 56.1458 17.1297 57.3864 17.5938C58.6364 18.0483 59.7254 18.7348 60.6534 19.6534C61.5909 20.572 62.3201 21.7273 62.8409 23.1193C63.3617 24.5019 63.6222 26.1212 63.6222 27.9773V29.6392H45.1989V25.8892H57.9261C57.9261 25.018 57.7367 24.2462 57.358 23.5739C56.9792 22.9015 56.4536 22.3759 55.7812 21.9972C55.1184 21.6089 54.3466 21.4148 53.4659 21.4148C52.5473 21.4148 51.733 21.6278 51.0227 22.054C50.322 22.4706 49.7727 23.0341 49.375 23.7443C48.9773 24.4451 48.7737 25.2263 48.7642 26.0881V29.6534C48.7642 30.733 48.9631 31.6657 49.3608 32.4517C49.768 33.2377 50.3409 33.8438 51.0795 34.2699C51.8182 34.696 52.6941 34.9091 53.7074 34.9091C54.3797 34.9091 54.9953 34.8144 55.554 34.625C56.1127 34.4356 56.5909 34.1515 56.9886 33.7727C57.3864 33.3939 57.6894 32.9299 57.8977 32.3807L63.4943 32.75C63.2102 34.0947 62.6278 35.2689 61.7472 36.2727C60.8759 37.267 59.7491 38.0436 58.3665 38.6023C56.9934 39.1515 55.4072 39.4261 53.608 39.4261ZM85.7244 23.4034L80.1847 23.7443C80.09 23.2708 79.8864 22.8447 79.5739 22.4659C79.2614 22.0777 78.8494 21.7699 78.3381 21.5426C77.8362 21.3059 77.2348 21.1875 76.5341 21.1875C75.5966 21.1875 74.8059 21.3864 74.1619 21.7841C73.518 22.1723 73.196 22.6932 73.196 23.3466C73.196 23.8674 73.4044 24.3078 73.821 24.6676C74.2377 25.0275 74.9527 25.3163 75.9659 25.5341L79.9148 26.3295C82.036 26.7652 83.6174 27.4659 84.6591 28.4318C85.7008 29.3977 86.2216 30.6667 86.2216 32.2386C86.2216 33.6686 85.8002 34.9233 84.9574 36.0028C84.1241 37.0824 82.9782 37.9252 81.5199 38.5312C80.071 39.1278 78.3996 39.4261 76.5057 39.4261C73.6174 39.4261 71.3163 38.8248 69.6023 37.6222C67.8977 36.41 66.8987 34.7623 66.6051 32.679L72.5568 32.3665C72.7367 33.2472 73.1723 33.9195 73.8636 34.3835C74.5549 34.8381 75.4403 35.0653 76.5199 35.0653C77.5805 35.0653 78.4328 34.8617 79.0767 34.4545C79.7301 34.0379 80.0616 33.5028 80.071 32.8494C80.0616 32.3002 79.8295 31.8504 79.375 31.5C78.9205 31.1402 78.2197 30.8655 77.2727 30.6761L73.4943 29.9233C71.3636 29.4972 69.7775 28.7585 68.7358 27.7074C67.7036 26.6562 67.1875 25.3163 67.1875 23.6875C67.1875 22.286 67.5663 21.0786 68.3239 20.0653C69.0909 19.0521 70.1657 18.2708 71.5483 17.7216C72.9403 17.1723 74.5691 16.8977 76.4347 16.8977C79.1903 16.8977 81.3589 17.4801 82.9403 18.6449C84.5313 19.8097 85.4593 21.3958 85.7244 23.4034ZM99.9751 39.4261C97.7308 39.4261 95.799 38.9716 94.1797 38.0625C92.5698 37.1439 91.3293 35.8466 90.4581 34.1705C89.5869 32.4848 89.1513 30.4915 89.1513 28.1903C89.1513 25.946 89.5869 23.9763 90.4581 22.2812C91.3293 20.5862 92.5556 19.2652 94.1371 18.3182C95.728 17.3712 97.5935 16.8977 99.7337 16.8977C101.173 16.8977 102.513 17.1297 103.754 17.5938C105.004 18.0483 106.093 18.7348 107.021 19.6534C107.958 20.572 108.687 21.7273 109.208 23.1193C109.729 24.5019 109.989 26.1212 109.989 27.9773V29.6392H91.5661V25.8892H104.293C104.293 25.018 104.104 24.2462 103.725 23.5739C103.346 22.9015 102.821 22.3759 102.148 21.9972C101.486 21.6089 100.714 21.4148 99.8331 21.4148C98.9145 21.4148 98.1001 21.6278 97.3899 22.054C96.6892 22.4706 96.1399 23.0341 95.7422 23.7443C95.3445 24.4451 95.1409 25.2263 95.1314 26.0881V29.6534C95.1314 30.733 95.3303 31.6657 95.728 32.4517C96.1352 33.2377 96.7081 33.8438 97.4467 34.2699C98.1854 34.696 99.0613 34.9091 100.075 34.9091C100.747 34.9091 101.362 34.8144 101.921 34.625C102.48 34.4356 102.958 34.1515 103.356 33.7727C103.754 33.3939 104.057 32.9299 104.265 32.3807L109.862 32.75C109.577 34.0947 108.995 35.2689 108.114 36.2727C107.243 37.267 106.116 38.0436 104.734 38.6023C103.361 39.1515 101.774 39.4261 99.9751 39.4261ZM119.989 26.3864V39H113.938V17.1818H119.705V21.0312H119.961C120.444 19.7623 121.254 18.7585 122.39 18.0199C123.526 17.2718 124.904 16.8977 126.523 16.8977C128.039 16.8977 129.36 17.2292 130.487 17.892C131.613 18.5549 132.489 19.5019 133.114 20.733C133.739 21.9545 134.052 23.4129 134.052 25.108V39H128.001V26.1875C128.01 24.8523 127.669 23.8106 126.978 23.0625C126.287 22.3049 125.335 21.9261 124.123 21.9261C123.308 21.9261 122.589 22.1013 121.964 22.4517C121.348 22.8021 120.865 23.3134 120.515 23.9858C120.174 24.6487 119.999 25.4489 119.989 26.3864ZM150.426 17.1818V21.7273H137.287V17.1818H150.426ZM140.27 11.9545H146.321V32.2955C146.321 32.8542 146.406 33.2898 146.577 33.6023C146.747 33.9053 146.984 34.1184 147.287 34.2415C147.599 34.3646 147.959 34.4261 148.366 34.4261C148.651 34.4261 148.935 34.4025 149.219 34.3551C149.503 34.2983 149.721 34.2557 149.872 34.2273L150.824 38.7301C150.521 38.8248 150.095 38.9337 149.545 39.0568C148.996 39.1894 148.329 39.2699 147.543 39.2983C146.084 39.3551 144.806 39.161 143.707 38.7159C142.618 38.2708 141.771 37.5795 141.165 36.642C140.559 35.7045 140.26 34.5208 140.27 33.0909V11.9545ZM160.589 39.4119C159.197 39.4119 157.957 39.1705 156.868 38.6875C155.779 38.1951 154.917 37.4706 154.283 36.5142C153.658 35.5483 153.345 34.3456 153.345 32.9062C153.345 31.6941 153.568 30.6761 154.013 29.8523C154.458 29.0284 155.064 28.3655 155.831 27.8636C156.598 27.3617 157.469 26.983 158.445 26.7273C159.429 26.4716 160.462 26.2917 161.541 26.1875C162.81 26.0549 163.833 25.9318 164.609 25.8182C165.386 25.6951 165.949 25.5152 166.3 25.2784C166.65 25.0417 166.825 24.6913 166.825 24.2273V24.142C166.825 23.2424 166.541 22.5464 165.973 22.054C165.414 21.5616 164.619 21.3153 163.587 21.3153C162.498 21.3153 161.631 21.5568 160.987 22.0398C160.343 22.5133 159.917 23.1098 159.709 23.8295L154.112 23.375C154.396 22.0492 154.955 20.9034 155.788 19.9375C156.622 18.9621 157.696 18.214 159.013 17.6932C160.339 17.1629 161.873 16.8977 163.615 16.8977C164.827 16.8977 165.987 17.0398 167.095 17.3239C168.213 17.608 169.202 18.0483 170.064 18.6449C170.935 19.2415 171.622 20.0085 172.124 20.946C172.625 21.8741 172.876 22.9867 172.876 24.2841V39H167.138V35.9744H166.967C166.617 36.6562 166.148 37.2576 165.561 37.7784C164.974 38.2898 164.268 38.6922 163.445 38.9858C162.621 39.2699 161.669 39.4119 160.589 39.4119ZM162.322 35.2358C163.213 35.2358 163.999 35.0606 164.68 34.7102C165.362 34.3504 165.897 33.8674 166.286 33.2614C166.674 32.6553 166.868 31.9687 166.868 31.2017V28.8864C166.679 29.0095 166.418 29.1231 166.087 29.2273C165.765 29.322 165.4 29.4119 164.993 29.4972C164.586 29.5729 164.179 29.6439 163.771 29.7102C163.364 29.767 162.995 29.8191 162.663 29.8665C161.953 29.9706 161.333 30.1364 160.803 30.3636C160.272 30.5909 159.86 30.8987 159.567 31.2869C159.273 31.6657 159.126 32.1392 159.126 32.7074C159.126 33.5312 159.425 34.161 160.021 34.5966C160.627 35.0227 161.394 35.2358 162.322 35.2358ZM189.176 17.1818V21.7273H176.037V17.1818H189.176ZM179.02 11.9545H185.071V32.2955C185.071 32.8542 185.156 33.2898 185.327 33.6023C185.497 33.9053 185.734 34.1184 186.037 34.2415C186.349 34.3646 186.709 34.4261 187.116 34.4261C187.401 34.4261 187.685 34.4025 187.969 34.3551C188.253 34.2983 188.471 34.2557 188.622 34.2273L189.574 38.7301C189.271 38.8248 188.845 38.9337 188.295 39.0568C187.746 39.1894 187.079 39.2699 186.293 39.2983C184.834 39.3551 183.556 39.161 182.457 38.7159C181.368 38.2708 180.521 37.5795 179.915 36.642C179.309 35.7045 179.01 34.5208 179.02 33.0909V11.9545ZM193.118 39V17.1818H199.169V39H193.118ZM196.158 14.3693C195.258 14.3693 194.486 14.071 193.842 13.4744C193.208 12.8684 192.891 12.1439 192.891 11.3011C192.891 10.4678 193.208 9.75284 193.842 9.15625C194.486 8.55019 195.258 8.24716 196.158 8.24716C197.057 8.24716 197.824 8.55019 198.459 9.15625C199.103 9.75284 199.425 10.4678 199.425 11.3011C199.425 12.1439 199.103 12.8684 198.459 13.4744C197.824 14.071 197.057 14.3693 196.158 14.3693ZM213.874 39.4261C211.668 39.4261 209.76 38.9574 208.15 38.0199C206.549 37.0729 205.314 35.7566 204.442 34.071C203.571 32.3759 203.136 30.411 203.136 28.1761C203.136 25.9223 203.571 23.9527 204.442 22.267C205.314 20.572 206.549 19.2557 208.15 18.3182C209.76 17.3712 211.668 16.8977 213.874 16.8977C216.081 16.8977 217.984 17.3712 219.585 18.3182C221.194 19.2557 222.435 20.572 223.306 22.267C224.177 23.9527 224.613 25.9223 224.613 28.1761C224.613 30.411 224.177 32.3759 223.306 34.071C222.435 35.7566 221.194 37.0729 219.585 38.0199C217.984 38.9574 216.081 39.4261 213.874 39.4261ZM213.903 34.7386C214.906 34.7386 215.745 34.4545 216.417 33.8864C217.089 33.3087 217.596 32.5227 217.937 31.5284C218.287 30.5341 218.462 29.4025 218.462 28.1335C218.462 26.8646 218.287 25.733 217.937 24.7386C217.596 23.7443 217.089 22.9583 216.417 22.3807C215.745 21.803 214.906 21.5142 213.903 21.5142C212.889 21.5142 212.037 21.803 211.346 22.3807C210.664 22.9583 210.148 23.7443 209.798 24.7386C209.457 25.733 209.286 26.8646 209.286 28.1335C209.286 29.4025 209.457 30.5341 209.798 31.5284C210.148 32.5227 210.664 33.3087 211.346 33.8864C212.037 34.4545 212.889 34.7386 213.903 34.7386ZM234.599 26.3864V39H228.548V17.1818H234.315V21.0312H234.57C235.053 19.7623 235.863 18.7585 236.999 18.0199C238.136 17.2718 239.513 16.8977 241.133 16.8977C242.648 16.8977 243.969 17.2292 245.096 17.892C246.223 18.5549 247.099 19.5019 247.724 20.733C248.349 21.9545 248.661 23.4129 248.661 25.108V39H242.61V26.1875C242.62 24.8523 242.279 23.8106 241.587 23.0625C240.896 22.3049 239.944 21.9261 238.732 21.9261C237.918 21.9261 237.198 22.1013 236.573 22.4517C235.958 22.8021 235.475 23.3134 235.124 23.9858C234.783 24.6487 234.608 25.4489 234.599 26.3864ZM271.584 23.4034L266.044 23.7443C265.949 23.2708 265.746 22.8447 265.433 22.4659C265.121 22.0777 264.709 21.7699 264.197 21.5426C263.696 21.3059 263.094 21.1875 262.393 21.1875C261.456 21.1875 260.665 21.3864 260.021 21.7841C259.377 22.1723 259.055 22.6932 259.055 23.3466C259.055 23.8674 259.264 24.3078 259.68 24.6676C260.097 25.0275 260.812 25.3163 261.825 25.5341L265.774 26.3295C267.895 26.7652 269.477 27.4659 270.518 28.4318C271.56 29.3977 272.081 30.6667 272.081 32.2386C272.081 33.6686 271.66 34.9233 270.817 36.0028C269.983 37.0824 268.838 37.9252 267.379 38.5312C265.93 39.1278 264.259 39.4261 262.365 39.4261C259.477 39.4261 257.176 38.8248 255.462 37.6222C253.757 36.41 252.758 34.7623 252.464 32.679L258.416 32.3665C258.596 33.2472 259.032 33.9195 259.723 34.3835C260.414 34.8381 261.3 35.0653 262.379 35.0653C263.44 35.0653 264.292 34.8617 264.936 34.4545C265.589 34.0379 265.921 33.5028 265.93 32.8494C265.921 32.3002 265.689 31.8504 265.234 31.5C264.78 31.1402 264.079 30.8655 263.132 30.6761L259.354 29.9233C257.223 29.4972 255.637 28.7585 254.595 27.7074C253.563 26.6562 253.047 25.3163 253.047 23.6875C253.047 22.286 253.426 21.0786 254.183 20.0653C254.95 19.0521 256.025 18.2708 257.408 17.7216C258.8 17.1723 260.429 16.8977 262.294 16.8977C265.05 16.8977 267.218 17.4801 268.8 18.6449C270.391 19.8097 271.319 21.3958 271.584 23.4034ZM294.07 39.4261C292.062 39.4261 290.329 39.0663 288.871 38.3466C287.412 37.6269 286.29 36.6515 285.504 35.4205C284.728 34.1799 284.339 32.7973 284.339 31.2727C284.339 30.1364 284.567 29.1278 285.021 28.2472C285.476 27.3665 286.11 26.5568 286.925 25.8182C287.739 25.0701 288.686 24.3267 289.766 23.5881L295.405 19.8807C296.134 19.4167 296.669 18.929 297.01 18.4176C297.351 17.8968 297.521 17.3333 297.521 16.7273C297.521 16.1496 297.289 15.6146 296.825 15.1222C296.361 14.6297 295.703 14.3883 294.851 14.3977C294.283 14.3977 293.79 14.5256 293.374 14.7812C292.957 15.0275 292.63 15.3542 292.393 15.7614C292.166 16.1591 292.053 16.6042 292.053 17.0966C292.053 17.7027 292.223 18.3182 292.564 18.9432C292.905 19.5682 293.359 20.2311 293.928 20.9318C294.496 21.6231 295.116 22.3712 295.788 23.1761L309.581 39H303.274L291.768 26.1875C291.011 25.3258 290.253 24.4261 289.496 23.4886C288.748 22.5417 288.123 21.5379 287.621 20.4773C287.119 19.4072 286.868 18.2472 286.868 16.9972C286.868 15.5862 287.195 14.3172 287.848 13.1903C288.511 12.0634 289.439 11.1733 290.632 10.5199C291.825 9.85701 293.217 9.52557 294.808 9.52557C296.361 9.52557 297.701 9.8428 298.828 10.4773C299.964 11.1023 300.836 11.9356 301.442 12.9773C302.057 14.0095 302.365 15.1458 302.365 16.3864C302.365 17.7595 302.024 19.0047 301.342 20.1222C300.67 21.2301 299.723 22.2244 298.501 23.1051L292.564 27.3807C291.759 27.9678 291.162 28.5691 290.774 29.1847C290.395 29.7907 290.206 30.3731 290.206 30.9318C290.206 31.6231 290.376 32.2434 290.717 32.7926C291.058 33.3419 291.541 33.7775 292.166 34.0994C292.791 34.4119 293.525 34.5682 294.368 34.5682C295.391 34.5682 296.399 34.3362 297.393 33.8722C298.397 33.3987 299.306 32.7311 300.121 31.8693C300.945 30.9981 301.603 29.9659 302.095 28.7727C302.588 27.5795 302.834 26.2585 302.834 24.8097H307.848C307.848 26.59 307.654 28.1951 307.266 29.625C306.877 31.0455 306.338 32.286 305.646 33.3466C304.955 34.3977 304.164 35.2595 303.274 35.9318C302.99 36.1117 302.715 36.2822 302.45 36.4432C302.185 36.6042 301.911 36.7746 301.626 36.9545C300.547 37.8258 299.339 38.4555 298.004 38.8438C296.679 39.232 295.367 39.4261 294.07 39.4261ZM320.366 14.9801V9.90909H344.258V14.9801H335.352V39H329.272V14.9801H320.366ZM354.773 39.4261C352.566 39.4261 350.658 38.9574 349.048 38.0199C347.448 37.0729 346.212 35.7566 345.341 34.071C344.47 32.3759 344.034 30.411 344.034 28.1761C344.034 25.9223 344.47 23.9527 345.341 22.267C346.212 20.572 347.448 19.2557 349.048 18.3182C350.658 17.3712 352.566 16.8977 354.773 16.8977C356.979 16.8977 358.883 17.3712 360.483 18.3182C362.093 19.2557 363.333 20.572 364.205 22.267C365.076 23.9527 365.511 25.9223 365.511 28.1761C365.511 30.411 365.076 32.3759 364.205 34.071C363.333 35.7566 362.093 37.0729 360.483 38.0199C358.883 38.9574 356.979 39.4261 354.773 39.4261ZM354.801 34.7386C355.805 34.7386 356.643 34.4545 357.315 33.8864C357.988 33.3087 358.494 32.5227 358.835 31.5284C359.186 30.5341 359.361 29.4025 359.361 28.1335C359.361 26.8646 359.186 25.733 358.835 24.7386C358.494 23.7443 357.988 22.9583 357.315 22.3807C356.643 21.803 355.805 21.5142 354.801 21.5142C353.788 21.5142 352.936 21.803 352.244 22.3807C351.563 22.9583 351.046 23.7443 350.696 24.7386C350.355 25.733 350.185 26.8646 350.185 28.1335C350.185 29.4025 350.355 30.5341 350.696 31.5284C351.046 32.5227 351.563 33.3087 352.244 33.8864C352.936 34.4545 353.788 34.7386 354.801 34.7386ZM383.438 29.7102V17.1818H389.489V39H383.679V35.0369H383.452C382.959 36.3153 382.14 37.3428 380.994 38.1193C379.858 38.8958 378.471 39.2841 376.832 39.2841C375.374 39.2841 374.091 38.9527 372.983 38.2898C371.875 37.6269 371.009 36.6847 370.384 35.4631C369.768 34.2415 369.455 32.7784 369.446 31.0739V17.1818H375.497V29.9943C375.507 31.2822 375.852 32.3002 376.534 33.0483C377.216 33.7964 378.13 34.1705 379.276 34.1705C380.005 34.1705 380.687 34.0047 381.321 33.6733C381.955 33.3324 382.467 32.8305 382.855 32.1676C383.253 31.5047 383.447 30.6856 383.438 29.7102ZM394.329 39V17.1818H400.195V20.9886H400.423C400.82 19.6345 401.488 18.6117 402.425 17.9205C403.363 17.2197 404.442 16.8693 405.664 16.8693C405.967 16.8693 406.294 16.8883 406.644 16.9261C406.995 16.964 407.302 17.0161 407.567 17.0824V22.4517C407.283 22.3665 406.89 22.2907 406.388 22.2244C405.887 22.1581 405.427 22.125 405.011 22.125C404.121 22.125 403.325 22.3191 402.624 22.7074C401.933 23.0862 401.384 23.6165 400.977 24.2983C400.579 24.9801 400.38 25.7661 400.38 26.6562V39H394.329ZM428.849 23.4034L423.31 23.7443C423.215 23.2708 423.011 22.8447 422.699 22.4659C422.386 22.0777 421.974 21.7699 421.463 21.5426C420.961 21.3059 420.36 21.1875 419.659 21.1875C418.722 21.1875 417.931 21.3864 417.287 21.7841C416.643 22.1723 416.321 22.6932 416.321 23.3466C416.321 23.8674 416.529 24.3078 416.946 24.6676C417.363 25.0275 418.078 25.3163 419.091 25.5341L423.04 26.3295C425.161 26.7652 426.742 27.4659 427.784 28.4318C428.826 29.3977 429.347 30.6667 429.347 32.2386C429.347 33.6686 428.925 34.9233 428.082 36.0028C427.249 37.0824 426.103 37.9252 424.645 38.5312C423.196 39.1278 421.525 39.4261 419.631 39.4261C416.742 39.4261 414.441 38.8248 412.727 37.6222C411.023 36.41 410.024 34.7623 409.73 32.679L415.682 32.3665C415.862 33.2472 416.297 33.9195 416.989 34.3835C417.68 34.8381 418.565 35.0653 419.645 35.0653C420.705 35.0653 421.558 34.8617 422.202 34.4545C422.855 34.0379 423.187 33.5028 423.196 32.8494C423.187 32.3002 422.955 31.8504 422.5 31.5C422.045 31.1402 421.345 30.8655 420.398 30.6761L416.619 29.9233C414.489 29.4972 412.902 28.7585 411.861 27.7074C410.829 26.6562 410.312 25.3163 410.312 23.6875C410.312 22.286 410.691 21.0786 411.449 20.0653C412.216 19.0521 413.291 18.2708 414.673 17.7216C416.065 17.1723 417.694 16.8977 419.56 16.8977C422.315 16.8977 424.484 17.4801 426.065 18.6449C427.656 19.8097 428.584 21.3958 428.849 23.4034Z" fill="white"/>
<line x1="485" y1="23.5" x2="1286" y2="23.5" stroke="white"/>
</svg>
