<svg width="430" height="107" viewBox="0 0 430 107" fill="none" xmlns="http://www.w3.org/2000/svg">
<rect opacity="0.4" y="6.41992" width="311.033" height="77.575" rx="25" fill="black"/>
<path d="M16.7876 56.3999V30.2181H25.6342C27.6882 30.2181 29.3672 30.5888 30.6712 31.3303C31.9837 32.0633 32.9553 33.0562 33.5859 34.309C34.2166 35.5618 34.532 36.9596 34.532 38.5022C34.532 40.0448 34.2166 41.4468 33.5859 42.7081C32.9638 43.9695 32.0007 44.9752 30.6967 45.7252C29.3928 46.4667 27.7223 46.8374 25.6854 46.8374H19.3445V44.0249H25.5831C26.9893 44.0249 28.1186 43.782 28.9709 43.2962C29.8232 42.8104 30.4411 42.1542 30.8246 41.3275C31.2166 40.4922 31.4126 39.5505 31.4126 38.5022C31.4126 37.4539 31.2166 36.5164 30.8246 35.6897C30.4411 34.863 29.8189 34.2152 28.9581 33.7465C28.0973 33.2692 26.9553 33.0306 25.532 33.0306H19.9581V56.3999H16.7876ZM39.2301 56.3999V36.7635H42.1449V39.7294H42.3494C42.7074 38.7579 43.3551 37.9695 44.2926 37.3644C45.2301 36.7593 46.2869 36.4567 47.4631 36.4567C47.6847 36.4567 47.9616 36.461 48.294 36.4695C48.6264 36.478 48.8778 36.4908 49.0483 36.5079V39.576C48.946 39.5505 48.7116 39.5121 48.3452 39.461C47.9872 39.4013 47.608 39.3715 47.2074 39.3715C46.2528 39.3715 45.4006 39.5718 44.6506 39.9723C43.9091 40.3644 43.321 40.9098 42.8864 41.6087C42.4602 42.299 42.2472 43.0874 42.2472 43.9738V56.3999H39.2301ZM60.2599 56.809C58.3679 56.809 56.7358 56.3914 55.3636 55.5562C54 54.7124 52.9474 53.5363 52.206 52.0277C51.473 50.5107 51.1065 48.7465 51.1065 46.7351C51.1065 44.7238 51.473 42.951 52.206 41.4169C52.9474 39.8743 53.9787 38.6726 55.2997 37.8118C56.6293 36.9425 58.1804 36.5079 59.9531 36.5079C60.9759 36.5079 61.9858 36.6783 62.983 37.0192C63.9801 37.3601 64.8878 37.9141 65.706 38.6812C66.5241 39.4397 67.1761 40.4454 67.6619 41.6982C68.1477 42.951 68.3906 44.4937 68.3906 46.326V47.6044H53.2543V44.9965H65.3224C65.3224 43.8885 65.1009 42.8999 64.6577 42.0306C64.223 41.1613 63.6009 40.4752 62.7912 39.9723C61.9901 39.4695 61.044 39.2181 59.9531 39.2181C58.7514 39.2181 57.7116 39.5164 56.8338 40.113C55.9645 40.701 55.2955 41.4681 54.8267 42.4141C54.358 43.3601 54.1236 44.3743 54.1236 45.4567V47.1954C54.1236 48.6783 54.3793 49.9354 54.8906 50.9667C55.4105 51.9894 56.1307 52.7692 57.0511 53.3062C57.9716 53.8346 59.0412 54.0988 60.2599 54.0988C61.0526 54.0988 61.7685 53.988 62.4077 53.7664C63.0554 53.5363 63.6136 53.1954 64.0824 52.7437C64.5511 52.2834 64.9134 51.7124 65.169 51.0306L68.0838 51.8488C67.777 52.8374 67.2614 53.7067 66.5369 54.4567C65.8125 55.1982 64.9176 55.7777 63.8523 56.1954C62.7869 56.6044 61.5895 56.809 60.2599 56.809ZM80.9574 56.809C79.1165 56.809 77.5313 56.3743 76.2017 55.505C74.8722 54.6357 73.8494 53.4383 73.1335 51.9127C72.4176 50.3871 72.0597 48.6442 72.0597 46.684C72.0597 44.6897 72.4261 42.9297 73.1591 41.4042C73.9006 39.8701 74.9318 38.6726 76.2528 37.8118C77.5824 36.9425 79.1335 36.5079 80.9062 36.5079C82.2869 36.5079 83.5312 36.7635 84.6392 37.2749C85.7472 37.7863 86.6548 38.5022 87.3622 39.4226C88.0696 40.3431 88.5085 41.4169 88.679 42.6442H85.6619C85.4318 41.7493 84.9205 40.9567 84.1278 40.2664C83.3438 39.5675 82.2869 39.2181 80.9574 39.2181C79.7813 39.2181 78.75 39.5249 77.8636 40.1385C76.9858 40.7437 76.2997 41.6002 75.8054 42.7081C75.3196 43.8076 75.0767 45.0988 75.0767 46.5817C75.0767 48.0988 75.3153 49.4198 75.7926 50.5448C76.2784 51.6698 76.9602 52.5434 77.8381 53.1655C78.7244 53.7877 79.7642 54.0988 80.9574 54.0988C81.7415 54.0988 82.4531 53.9624 83.0923 53.6897C83.7315 53.4169 84.2727 53.0249 84.7159 52.5135C85.1591 52.0022 85.4744 51.3885 85.6619 50.6726H88.679C88.5085 51.8317 88.0866 52.8758 87.4134 53.8047C86.7486 54.7252 85.8665 55.4581 84.767 56.0036C83.6761 56.5405 82.4063 56.809 80.9574 56.809ZM93.0895 56.3999V36.7635H96.1065V56.3999H93.0895ZM94.6236 33.4908C94.0355 33.4908 93.5284 33.2905 93.1023 32.89C92.6847 32.4894 92.4759 32.0079 92.4759 31.4454C92.4759 30.8829 92.6847 30.4013 93.1023 30.0008C93.5284 29.6002 94.0355 29.3999 94.6236 29.3999C95.2116 29.3999 95.7145 29.6002 96.1321 30.0008C96.5582 30.4013 96.7713 30.8829 96.7713 31.4454C96.7713 32.0079 96.5582 32.4894 96.1321 32.89C95.7145 33.2905 95.2116 33.4908 94.6236 33.4908ZM109.61 56.809C107.837 56.809 106.282 56.3871 104.944 55.5434C103.614 54.6996 102.574 53.5192 101.824 52.0022C101.083 50.4851 100.712 48.7124 100.712 46.684C100.712 44.6385 101.083 42.853 101.824 41.3275C102.574 39.8019 103.614 38.6172 104.944 37.7735C106.282 36.9297 107.837 36.5079 109.61 36.5079C111.382 36.5079 112.934 36.9297 114.263 37.7735C115.601 38.6172 116.641 39.8019 117.382 41.3275C118.132 42.853 118.507 44.6385 118.507 46.684C118.507 48.7124 118.132 50.4851 117.382 52.0022C116.641 53.5192 115.601 54.6996 114.263 55.5434C112.934 56.3871 111.382 56.809 109.61 56.809ZM109.61 54.0988C110.956 54.0988 112.064 53.7536 112.934 53.0633C113.803 52.3729 114.446 51.4652 114.864 50.3402C115.282 49.2152 115.49 47.9965 115.49 46.684C115.49 45.3715 115.282 44.1485 114.864 43.015C114.446 41.8814 113.803 40.9652 112.934 40.2664C112.064 39.5675 110.956 39.2181 109.61 39.2181C108.263 39.2181 107.155 39.5675 106.286 40.2664C105.417 40.9652 104.773 41.8814 104.355 43.015C103.938 44.1485 103.729 45.3715 103.729 46.684C103.729 47.9965 103.938 49.2152 104.355 50.3402C104.773 51.4652 105.417 52.3729 106.286 53.0633C107.155 53.7536 108.263 54.0988 109.61 54.0988ZM135.488 48.3715V36.7635H138.505V56.3999H135.488V53.076H135.283C134.823 54.0732 134.107 54.9212 133.136 55.6201C132.164 56.3104 130.937 56.6556 129.454 56.6556C128.227 56.6556 127.136 56.3871 126.181 55.8502C125.227 55.3047 124.477 54.4865 123.931 53.3956C123.386 52.2962 123.113 50.9113 123.113 49.2408V36.7635H126.13V49.0363C126.13 50.4681 126.531 51.6101 127.332 52.4624C128.141 53.3147 129.173 53.7408 130.425 53.7408C131.175 53.7408 131.938 53.549 132.714 53.1655C133.498 52.782 134.154 52.1939 134.683 51.4013C135.219 50.6087 135.488 49.5988 135.488 48.3715ZM157.94 41.1613L155.23 41.9283C155.059 41.4766 154.808 41.0377 154.475 40.6115C154.152 40.1769 153.708 39.8189 153.146 39.5377C152.583 39.2564 151.863 39.1158 150.985 39.1158C149.784 39.1158 148.782 39.3928 147.981 39.9468C147.189 40.4922 146.792 41.1868 146.792 42.0306C146.792 42.7806 147.065 43.3729 147.61 43.8076C148.156 44.2422 149.008 44.6044 150.167 44.8942L153.082 45.6101C154.838 46.0363 156.146 46.6883 157.007 47.5661C157.868 48.4354 158.298 49.5562 158.298 50.9283C158.298 52.0533 157.974 53.059 157.326 53.9454C156.687 54.8317 155.792 55.5306 154.642 56.0419C153.491 56.5533 152.153 56.809 150.627 56.809C148.625 56.809 146.967 56.3743 145.654 55.505C144.342 54.6357 143.511 53.3658 143.162 51.6954L146.025 50.9794C146.298 52.0363 146.814 52.8289 147.572 53.3573C148.339 53.8857 149.341 54.1499 150.576 54.1499C151.983 54.1499 153.099 53.8516 153.926 53.255C154.761 52.6499 155.179 51.9255 155.179 51.0817C155.179 50.3999 154.94 49.8289 154.463 49.3687C153.985 48.8999 153.252 48.5505 152.264 48.3204L148.991 47.5533C147.193 47.1272 145.872 46.4667 145.028 45.5718C144.193 44.6684 143.775 43.5391 143.775 42.184C143.775 41.076 144.086 40.0959 144.708 39.2437C145.339 38.3914 146.196 37.7223 147.278 37.2365C148.369 36.7508 149.605 36.5079 150.985 36.5079C152.929 36.5079 154.454 36.934 155.562 37.7863C156.679 38.6385 157.471 39.7635 157.94 41.1613ZM172.964 63.7635V36.7635H175.879V39.8829H176.237C176.459 39.5419 176.766 39.1073 177.158 38.5789C177.558 38.0419 178.129 37.5647 178.871 37.1471C179.621 36.7209 180.635 36.5079 181.913 36.5079C183.567 36.5079 185.024 36.9212 186.286 37.7479C187.547 38.5746 188.531 39.7465 189.239 41.2635C189.946 42.7806 190.3 44.5704 190.3 46.6329C190.3 48.7124 189.946 50.515 189.239 52.0405C188.531 53.5576 187.551 54.7337 186.298 55.5689C185.045 56.3956 183.601 56.809 181.964 56.809C180.703 56.809 179.693 56.6002 178.935 56.1826C178.176 55.7564 177.592 55.2749 177.183 54.738C176.774 54.1925 176.459 53.7408 176.237 53.3829H175.982V63.7635H172.964ZM175.93 46.5817C175.93 48.0647 176.148 49.3729 176.582 50.5064C177.017 51.6314 177.652 52.5135 178.487 53.1527C179.322 53.7834 180.345 54.0988 181.555 54.0988C182.817 54.0988 183.869 53.7664 184.713 53.1016C185.565 52.4283 186.205 51.5249 186.631 50.3914C187.065 49.2493 187.283 47.9794 187.283 46.5817C187.283 45.201 187.07 43.9567 186.643 42.8488C186.226 41.7323 185.591 40.8502 184.739 40.2025C183.895 39.5462 182.834 39.2181 181.555 39.2181C180.328 39.2181 179.297 39.5292 178.462 40.1513C177.626 40.765 176.996 41.6258 176.57 42.7337C176.143 43.8331 175.93 45.1158 175.93 46.5817ZM197.919 30.2181V56.3999H194.902V30.2181H197.919ZM209.223 56.8601C207.979 56.8601 206.85 56.6258 205.836 56.157C204.821 55.6797 204.016 54.9937 203.419 54.0988C202.823 53.1954 202.525 52.1044 202.525 50.826C202.525 49.701 202.746 48.7891 203.189 48.0902C203.632 47.3829 204.225 46.8289 204.966 46.4283C205.708 46.0277 206.526 45.7294 207.421 45.5334C208.324 45.3289 209.232 45.1669 210.144 45.0476C211.337 44.8942 212.304 44.7792 213.046 44.7025C213.796 44.6172 214.341 44.4766 214.682 44.2806C215.032 44.0846 215.206 43.7437 215.206 43.2579V43.1556C215.206 41.8942 214.861 40.9141 214.171 40.2152C213.489 39.5164 212.453 39.1669 211.064 39.1669C209.624 39.1669 208.495 39.4823 207.676 40.113C206.858 40.7437 206.283 41.4169 205.951 42.1329L203.087 41.1101C203.598 39.9169 204.28 38.988 205.132 38.3232C205.993 37.6499 206.931 37.1812 207.945 36.9169C208.968 36.6442 209.973 36.5079 210.962 36.5079C211.593 36.5079 212.317 36.5846 213.135 36.738C213.962 36.8829 214.759 37.1854 215.526 37.6456C216.301 38.1059 216.945 38.8005 217.456 39.7294C217.968 40.6584 218.223 41.9027 218.223 43.4624V56.3999H215.206V53.7408H215.053C214.848 54.1669 214.507 54.6229 214.03 55.1087C213.553 55.5945 212.918 56.0079 212.125 56.3488C211.333 56.6897 210.365 56.8601 209.223 56.8601ZM209.684 54.1499C210.877 54.1499 211.882 53.9155 212.701 53.4468C213.527 52.978 214.15 52.3729 214.567 51.6314C214.993 50.89 215.206 50.1101 215.206 49.2919V46.5306C215.078 46.684 214.797 46.8246 214.363 46.9525C213.936 47.0718 213.442 47.1783 212.88 47.2721C212.326 47.3573 211.784 47.434 211.256 47.5022C210.736 47.5618 210.314 47.613 209.99 47.6556C209.206 47.7579 208.473 47.924 207.792 48.1542C207.118 48.3758 206.573 48.7124 206.155 49.1641C205.746 49.6073 205.542 50.2124 205.542 50.9794C205.542 52.0277 205.929 52.8204 206.705 53.3573C207.489 53.8857 208.482 54.1499 209.684 54.1499ZM226.747 44.5874V56.3999H223.73V36.7635H226.645V39.8317H226.901C227.361 38.8346 228.06 38.0334 228.997 37.4283C229.935 36.8147 231.145 36.5079 232.628 36.5079C233.957 36.5079 235.121 36.7806 236.118 37.326C237.115 37.863 237.891 38.6812 238.445 39.7806C238.999 40.8715 239.276 42.2522 239.276 43.9226V56.3999H236.259V44.1272C236.259 42.5846 235.858 41.3829 235.057 40.5221C234.256 39.6527 233.156 39.2181 231.759 39.2181C230.795 39.2181 229.935 39.4269 229.176 39.8445C228.426 40.2621 227.834 40.8715 227.399 41.6726C226.964 42.4738 226.747 43.4454 226.747 44.5874ZM253.022 56.809C251.13 56.809 249.498 56.3914 248.125 55.5562C246.762 54.7124 245.709 53.5363 244.968 52.0277C244.235 50.5107 243.868 48.7465 243.868 46.7351C243.868 44.7238 244.235 42.951 244.968 41.4169C245.709 39.8743 246.74 38.6726 248.061 37.8118C249.391 36.9425 250.942 36.5079 252.715 36.5079C253.738 36.5079 254.748 36.6783 255.745 37.0192C256.742 37.3601 257.65 37.9141 258.468 38.6812C259.286 39.4397 259.938 40.4454 260.424 41.6982C260.909 42.951 261.152 44.4937 261.152 46.326V47.6044H246.016V44.9965H258.084C258.084 43.8885 257.863 42.8999 257.419 42.0306C256.985 41.1613 256.363 40.4752 255.553 39.9723C254.752 39.4695 253.806 39.2181 252.715 39.2181C251.513 39.2181 250.473 39.5164 249.596 40.113C248.726 40.701 248.057 41.4681 247.588 42.4141C247.12 43.3601 246.885 44.3743 246.885 45.4567V47.1954C246.885 48.6783 247.141 49.9354 247.652 50.9667C248.172 51.9894 248.892 52.7692 249.813 53.3062C250.733 53.8346 251.803 54.0988 253.022 54.0988C253.814 54.0988 254.53 53.988 255.169 53.7664C255.817 53.5363 256.375 53.1954 256.844 52.7437C257.313 52.2834 257.675 51.7124 257.931 51.0306L260.846 51.8488C260.539 52.8374 260.023 53.7067 259.299 54.4567C258.574 55.1982 257.679 55.7777 256.614 56.1954C255.549 56.6044 254.351 56.809 253.022 56.809ZM274.282 36.7635V39.3204H264.105V36.7635H274.282ZM267.071 32.059H270.088V50.7749C270.088 51.6272 270.212 52.2664 270.459 52.6925C270.715 53.1101 271.039 53.3914 271.431 53.5363C271.831 53.6726 272.253 53.7408 272.696 53.7408C273.029 53.7408 273.301 53.7238 273.515 53.6897C273.728 53.6471 273.898 53.613 274.026 53.5874L274.64 56.2976C274.435 56.3743 274.15 56.451 273.783 56.5277C273.417 56.613 272.952 56.6556 272.39 56.6556C271.537 56.6556 270.702 56.4723 269.884 56.1059C269.074 55.7394 268.401 55.1812 267.864 54.4312C267.336 53.6812 267.071 52.7351 267.071 51.5931V32.059Z" fill="white"/>
</svg>
