<svg width="1275" height="48" viewBox="0 0 1275 48" fill="none" xmlns="http://www.w3.org/2000/svg">
<path d="M527.841 39H517.528V9.90909H527.926C530.852 9.90909 533.371 10.4915 535.483 11.6562C537.595 12.8116 539.219 14.4735 540.355 16.642C541.501 18.8106 542.074 21.4053 542.074 24.4261C542.074 27.4564 541.501 30.0606 540.355 32.2386C539.219 34.4167 537.585 36.0881 535.455 37.2528C533.333 38.4176 530.795 39 527.841 39ZM523.679 33.7301H527.585C529.403 33.7301 530.933 33.4081 532.173 32.7642C533.423 32.1108 534.361 31.1023 534.986 29.7386C535.62 28.3655 535.938 26.5947 535.938 24.4261C535.938 22.2765 535.62 20.5199 534.986 19.1562C534.361 17.7926 533.428 16.7888 532.188 16.1449C530.947 15.5009 529.418 15.179 527.599 15.179H523.679V33.7301ZM546.516 39V17.1818H552.567V39H546.516ZM549.556 14.3693C548.656 14.3693 547.885 14.071 547.241 13.4744C546.606 12.8684 546.289 12.1439 546.289 11.3011C546.289 10.4678 546.606 9.75284 547.241 9.15625C547.885 8.55019 548.656 8.24716 549.556 8.24716C550.456 8.24716 551.223 8.55019 551.857 9.15625C552.501 9.75284 552.823 10.4678 552.823 11.3011C552.823 12.1439 552.501 12.8684 551.857 13.4744C551.223 14.071 550.456 14.3693 549.556 14.3693ZM557.415 39V17.1818H563.281V20.9886H563.509C563.906 19.6345 564.574 18.6117 565.511 17.9205C566.449 17.2197 567.528 16.8693 568.75 16.8693C569.053 16.8693 569.38 16.8883 569.73 16.9261C570.08 16.964 570.388 17.0161 570.653 17.0824V22.4517C570.369 22.3665 569.976 22.2907 569.474 22.2244C568.973 22.1581 568.513 22.125 568.097 22.125C567.206 22.125 566.411 22.3191 565.71 22.7074C565.019 23.0862 564.47 23.6165 564.062 24.2983C563.665 24.9801 563.466 25.7661 563.466 26.6562V39H557.415ZM582.71 39.4261C580.465 39.4261 578.533 38.9716 576.914 38.0625C575.304 37.1439 574.064 35.8466 573.192 34.1705C572.321 32.4848 571.886 30.4915 571.886 28.1903C571.886 25.946 572.321 23.9763 573.192 22.2812C574.064 20.5862 575.29 19.2652 576.871 18.3182C578.462 17.3712 580.328 16.8977 582.468 16.8977C583.907 16.8977 585.247 17.1297 586.488 17.5938C587.738 18.0483 588.827 18.7348 589.755 19.6534C590.692 20.572 591.422 21.7273 591.942 23.1193C592.463 24.5019 592.724 26.1212 592.724 27.9773V29.6392H574.3V25.8892H587.028C587.028 25.018 586.838 24.2462 586.46 23.5739C586.081 22.9015 585.555 22.3759 584.883 21.9972C584.22 21.6089 583.448 21.4148 582.567 21.4148C581.649 21.4148 580.835 21.6278 580.124 22.054C579.424 22.4706 578.874 23.0341 578.477 23.7443C578.079 24.4451 577.875 25.2263 577.866 26.0881V29.6534C577.866 30.733 578.065 31.6657 578.462 32.4517C578.87 33.2377 579.442 33.8438 580.181 34.2699C580.92 34.696 581.796 34.9091 582.809 34.9091C583.481 34.9091 584.097 34.8144 584.656 34.625C585.214 34.4356 585.692 34.1515 586.09 33.7727C586.488 33.3939 586.791 32.9299 586.999 32.3807L592.596 32.75C592.312 34.0947 591.729 35.2689 590.849 36.2727C589.978 37.267 588.851 38.0436 587.468 38.6023C586.095 39.1515 584.509 39.4261 582.71 39.4261ZM606.531 39.4261C604.296 39.4261 602.373 38.9527 600.763 38.0057C599.163 37.0492 597.932 35.7235 597.07 34.0284C596.218 32.3333 595.792 30.3826 595.792 28.1761C595.792 25.9413 596.223 23.9811 597.085 22.2955C597.956 20.6004 599.192 19.2794 600.792 18.3324C602.392 17.3759 604.296 16.8977 606.502 16.8977C608.406 16.8977 610.072 17.2434 611.502 17.9347C612.932 18.6259 614.064 19.5966 614.897 20.8466C615.73 22.0966 616.19 23.5644 616.275 25.25H610.565C610.404 24.161 609.978 23.285 609.286 22.6222C608.604 21.9498 607.71 21.6136 606.602 21.6136C605.664 21.6136 604.845 21.8693 604.144 22.3807C603.453 22.8826 602.913 23.6165 602.525 24.5824C602.137 25.5483 601.942 26.7178 601.942 28.0909C601.942 29.483 602.132 30.6667 602.511 31.642C602.899 32.6174 603.443 33.3608 604.144 33.8722C604.845 34.3835 605.664 34.6392 606.602 34.6392C607.293 34.6392 607.913 34.4972 608.462 34.2131C609.021 33.929 609.48 33.517 609.84 32.9773C610.21 32.428 610.451 31.7699 610.565 31.0028H616.275C616.18 32.6695 615.726 34.1373 614.911 35.4062C614.106 36.6657 612.994 37.6506 611.573 38.3608C610.153 39.071 608.472 39.4261 606.531 39.4261ZM631.754 17.1818V21.7273H618.615V17.1818H631.754ZM621.598 11.9545H627.649V32.2955C627.649 32.8542 627.734 33.2898 627.905 33.6023C628.075 33.9053 628.312 34.1184 628.615 34.2415C628.928 34.3646 629.287 34.4261 629.695 34.4261C629.979 34.4261 630.263 34.4025 630.547 34.3551C630.831 34.2983 631.049 34.2557 631.2 34.2273L632.152 38.7301C631.849 38.8248 631.423 38.9337 630.874 39.0568C630.324 39.1894 629.657 39.2699 628.871 39.2983C627.412 39.3551 626.134 39.161 625.036 38.7159C623.946 38.2708 623.099 37.5795 622.493 36.642C621.887 35.7045 621.589 34.5208 621.598 33.0909V11.9545ZM635.696 39V17.1818H641.747V39H635.696ZM638.736 14.3693C637.836 14.3693 637.064 14.071 636.42 13.4744C635.786 12.8684 635.469 12.1439 635.469 11.3011C635.469 10.4678 635.786 9.75284 636.42 9.15625C637.064 8.55019 637.836 8.24716 638.736 8.24716C639.635 8.24716 640.402 8.55019 641.037 9.15625C641.681 9.75284 642.003 10.4678 642.003 11.3011C642.003 12.1439 641.681 12.8684 641.037 13.4744C640.402 14.071 639.635 14.3693 638.736 14.3693ZM656.452 39.4261C654.246 39.4261 652.338 38.9574 650.728 38.0199C649.128 37.0729 647.892 35.7566 647.021 34.071C646.149 32.3759 645.714 30.411 645.714 28.1761C645.714 25.9223 646.149 23.9527 647.021 22.267C647.892 20.572 649.128 19.2557 650.728 18.3182C652.338 17.3712 654.246 16.8977 656.452 16.8977C658.659 16.8977 660.562 17.3712 662.163 18.3182C663.772 19.2557 665.013 20.572 665.884 22.267C666.755 23.9527 667.191 25.9223 667.191 28.1761C667.191 30.411 666.755 32.3759 665.884 34.071C665.013 35.7566 663.772 37.0729 662.163 38.0199C660.562 38.9574 658.659 39.4261 656.452 39.4261ZM656.481 34.7386C657.485 34.7386 658.323 34.4545 658.995 33.8864C659.667 33.3087 660.174 32.5227 660.515 31.5284C660.865 30.5341 661.04 29.4025 661.04 28.1335C661.04 26.8646 660.865 25.733 660.515 24.7386C660.174 23.7443 659.667 22.9583 658.995 22.3807C658.323 21.803 657.485 21.5142 656.481 21.5142C655.468 21.5142 654.615 21.803 653.924 22.3807C653.242 22.9583 652.726 23.7443 652.376 24.7386C652.035 25.733 651.864 26.8646 651.864 28.1335C651.864 29.4025 652.035 30.5341 652.376 31.5284C652.726 32.5227 653.242 33.3087 653.924 33.8864C654.615 34.4545 655.468 34.7386 656.481 34.7386ZM677.177 26.3864V39H671.126V17.1818H676.893V21.0312H677.148C677.631 19.7623 678.441 18.7585 679.577 18.0199C680.714 17.2718 682.092 16.8977 683.711 16.8977C685.226 16.8977 686.547 17.2292 687.674 17.892C688.801 18.5549 689.677 19.5019 690.302 20.733C690.927 21.9545 691.239 23.4129 691.239 25.108V39H685.188V26.1875C685.198 24.8523 684.857 23.8106 684.165 23.0625C683.474 22.3049 682.522 21.9261 681.31 21.9261C680.496 21.9261 679.776 22.1013 679.151 22.4517C678.536 22.8021 678.053 23.3134 677.702 23.9858C677.362 24.6487 677.186 25.4489 677.177 26.3864ZM714.162 23.4034L708.622 23.7443C708.527 23.2708 708.324 22.8447 708.011 22.4659C707.699 22.0777 707.287 21.7699 706.776 21.5426C706.274 21.3059 705.672 21.1875 704.972 21.1875C704.034 21.1875 703.243 21.3864 702.599 21.7841C701.955 22.1723 701.634 22.6932 701.634 23.3466C701.634 23.8674 701.842 24.3078 702.259 24.6676C702.675 25.0275 703.39 25.3163 704.403 25.5341L708.352 26.3295C710.473 26.7652 712.055 27.4659 713.097 28.4318C714.138 29.3977 714.659 30.6667 714.659 32.2386C714.659 33.6686 714.238 34.9233 713.395 36.0028C712.562 37.0824 711.416 37.9252 709.957 38.5312C708.509 39.1278 706.837 39.4261 704.943 39.4261C702.055 39.4261 699.754 38.8248 698.04 37.6222C696.335 36.41 695.336 34.7623 695.043 32.679L700.994 32.3665C701.174 33.2472 701.61 33.9195 702.301 34.3835C702.992 34.8381 703.878 35.0653 704.957 35.0653C706.018 35.0653 706.87 34.8617 707.514 34.4545C708.168 34.0379 708.499 33.5028 708.509 32.8494C708.499 32.3002 708.267 31.8504 707.812 31.5C707.358 31.1402 706.657 30.8655 705.71 30.6761L701.932 29.9233C699.801 29.4972 698.215 28.7585 697.173 27.7074C696.141 26.6562 695.625 25.3163 695.625 23.6875C695.625 22.286 696.004 21.0786 696.761 20.0653C697.528 19.0521 698.603 18.2708 699.986 17.7216C701.378 17.1723 703.007 16.8977 704.872 16.8977C707.628 16.8977 709.796 17.4801 711.378 18.6449C712.969 19.8097 713.897 21.3958 714.162 23.4034Z" fill="white"/>
<line x1="736" y1="23.5" x2="1275" y2="23.5" stroke="white"/>
<line y1="23.5" x2="496" y2="23.5" stroke="white"/>
</svg>
