<svg width="1288" height="48" viewBox="0 0 1288 48" fill="none" xmlns="http://www.w3.org/2000/svg">
<path d="M29.2614 24.4545C29.2614 27.6269 28.66 30.3258 27.4574 32.5511C26.2642 34.7765 24.6354 36.4763 22.571 37.6506C20.5161 38.8153 18.2055 39.3977 15.6392 39.3977C13.054 39.3977 10.7339 38.8106 8.67898 37.6364C6.62405 36.4621 5 34.7623 3.80682 32.5369C2.61364 30.3116 2.01705 27.6174 2.01705 24.4545C2.01705 21.2822 2.61364 18.5833 3.80682 16.358C5 14.1326 6.62405 12.4375 8.67898 11.2727C10.7339 10.0985 13.054 9.51136 15.6392 9.51136C18.2055 9.51136 20.5161 10.0985 22.571 11.2727C24.6354 12.4375 26.2642 14.1326 27.4574 16.358C28.66 18.5833 29.2614 21.2822 29.2614 24.4545ZM23.0256 24.4545C23.0256 22.3996 22.7178 20.6667 22.1023 19.2557C21.4962 17.8447 20.6392 16.7746 19.5312 16.0455C18.4233 15.3163 17.1259 14.9517 15.6392 14.9517C14.1525 14.9517 12.8551 15.3163 11.7472 16.0455C10.6392 16.7746 9.77746 17.8447 9.16193 19.2557C8.55587 20.6667 8.25284 22.3996 8.25284 24.4545C8.25284 26.5095 8.55587 28.2424 9.16193 29.6534C9.77746 31.0644 10.6392 32.1345 11.7472 32.8636C12.8551 33.5928 14.1525 33.9574 15.6392 33.9574C17.1259 33.9574 18.4233 33.5928 19.5312 32.8636C20.6392 32.1345 21.4962 31.0644 22.1023 29.6534C22.7178 28.2424 23.0256 26.5095 23.0256 24.4545ZM33.7038 47.1818V17.1818H39.6697V20.8466H39.9396C40.2048 20.2595 40.5883 19.6629 41.0902 19.0568C41.6016 18.4413 42.2644 17.9299 43.0788 17.5227C43.9027 17.1061 44.9254 16.8977 46.147 16.8977C47.7379 16.8977 49.2057 17.3144 50.5504 18.1477C51.8951 18.9716 52.9699 20.2169 53.7749 21.8835C54.5798 23.5407 54.9822 25.6193 54.9822 28.1193C54.9822 30.553 54.5893 32.608 53.8033 34.2841C53.0268 35.9508 51.9661 37.215 50.6214 38.0767C49.2862 38.929 47.79 39.3551 46.1328 39.3551C44.9586 39.3551 43.9595 39.161 43.1357 38.7727C42.3213 38.3845 41.6536 37.8968 41.1328 37.3097C40.612 36.7131 40.2143 36.1117 39.9396 35.5057H39.755V47.1818H33.7038ZM39.6271 28.0909C39.6271 29.3883 39.8071 30.5199 40.1669 31.4858C40.5268 32.4517 41.0476 33.2045 41.7294 33.7443C42.4112 34.2746 43.2398 34.5398 44.2152 34.5398C45.2 34.5398 46.0334 34.2699 46.7152 33.7301C47.397 33.1809 47.9131 32.4233 48.2635 31.4574C48.6233 30.482 48.8033 29.3598 48.8033 28.0909C48.8033 26.8314 48.6281 25.7235 48.2777 24.767C47.9273 23.8106 47.4112 23.0625 46.7294 22.5227C46.0476 21.983 45.2095 21.7131 44.2152 21.7131C43.2304 21.7131 42.397 21.9735 41.7152 22.4943C41.0429 23.0152 40.5268 23.7538 40.1669 24.7102C39.8071 25.6667 39.6271 26.7936 39.6271 28.0909ZM68.9595 39.4261C66.7152 39.4261 64.7834 38.9716 63.1641 38.0625C61.5542 37.1439 60.3137 35.8466 59.4425 34.1705C58.5713 32.4848 58.1357 30.4915 58.1357 28.1903C58.1357 25.946 58.5713 23.9763 59.4425 22.2812C60.3137 20.5862 61.54 19.2652 63.1214 18.3182C64.7124 17.3712 66.5779 16.8977 68.718 16.8977C70.1574 16.8977 71.4974 17.1297 72.7379 17.5938C73.9879 18.0483 75.0769 18.7348 76.005 19.6534C76.9425 20.572 77.6716 21.7273 78.1925 23.1193C78.7133 24.5019 78.9737 26.1212 78.9737 27.9773V29.6392H60.5504V25.8892H73.2777C73.2777 25.018 73.0883 24.2462 72.7095 23.5739C72.3307 22.9015 71.8052 22.3759 71.1328 21.9972C70.4699 21.6089 69.6982 21.4148 68.8175 21.4148C67.8989 21.4148 67.0845 21.6278 66.3743 22.054C65.6735 22.4706 65.1243 23.0341 64.7266 23.7443C64.3288 24.4451 64.1252 25.2263 64.1158 26.0881V29.6534C64.1158 30.733 64.3146 31.6657 64.7124 32.4517C65.1196 33.2377 65.6925 33.8438 66.4311 34.2699C67.1697 34.696 68.0457 34.9091 69.0589 34.9091C69.7313 34.9091 70.3468 34.8144 70.9055 34.625C71.4643 34.4356 71.9425 34.1515 72.3402 33.7727C72.7379 33.3939 73.041 32.9299 73.2493 32.3807L78.8459 32.75C78.5618 34.0947 77.9794 35.2689 77.0987 36.2727C76.2275 37.267 75.1006 38.0436 73.718 38.6023C72.3449 39.1515 70.7588 39.4261 68.9595 39.4261ZM88.9737 26.3864V39H82.9226V17.1818H88.6896V21.0312H88.9453C89.4283 19.7623 90.2379 18.7585 91.3743 18.0199C92.5107 17.2718 93.8885 16.8977 95.5078 16.8977C97.023 16.8977 98.344 17.2292 99.4709 17.892C100.598 18.5549 101.474 19.5019 102.099 20.733C102.724 21.9545 103.036 23.4129 103.036 25.108V39H96.9851V26.1875C96.9946 24.8523 96.6536 23.8106 95.9624 23.0625C95.2711 22.3049 94.3194 21.9261 93.1072 21.9261C92.2929 21.9261 91.5732 22.1013 90.9482 22.4517C90.3326 22.8021 89.8497 23.3134 89.4993 23.9858C89.1584 24.6487 88.9832 25.4489 88.9737 26.3864ZM107.805 39V17.1818H113.857V39H107.805ZM110.845 14.3693C109.946 14.3693 109.174 14.071 108.53 13.4744C107.895 12.8684 107.578 12.1439 107.578 11.3011C107.578 10.4678 107.895 9.75284 108.53 9.15625C109.174 8.55019 109.946 8.24716 110.845 8.24716C111.745 8.24716 112.512 8.55019 113.146 9.15625C113.79 9.75284 114.112 10.4678 114.112 11.3011C114.112 12.1439 113.79 12.8684 113.146 13.4744C112.512 14.071 111.745 14.3693 110.845 14.3693ZM124.755 26.3864V39H118.704V17.1818H124.471V21.0312H124.727C125.21 19.7623 126.019 18.7585 127.156 18.0199C128.292 17.2718 129.67 16.8977 131.289 16.8977C132.804 16.8977 134.125 17.2292 135.252 17.892C136.379 18.5549 137.255 19.5019 137.88 20.733C138.505 21.9545 138.817 23.4129 138.817 25.108V39H132.766V26.1875C132.776 24.8523 132.435 23.8106 131.744 23.0625C131.052 22.3049 130.101 21.9261 128.888 21.9261C128.074 21.9261 127.354 22.1013 126.729 22.4517C126.114 22.8021 125.631 23.3134 125.281 23.9858C124.94 24.6487 124.764 25.4489 124.755 26.3864ZM153.416 47.6364C151.456 47.6364 149.775 47.3665 148.374 46.8267C146.982 46.2964 145.874 45.572 145.05 44.6534C144.226 43.7348 143.691 42.7027 143.445 41.5568L149.041 40.804C149.212 41.2396 149.482 41.6468 149.851 42.0256C150.22 42.4044 150.708 42.7074 151.314 42.9347C151.929 43.1714 152.678 43.2898 153.558 43.2898C154.875 43.2898 155.959 42.9678 156.811 42.3239C157.673 41.6894 158.104 40.6241 158.104 39.1278V35.1364H157.848C157.583 35.7424 157.185 36.3153 156.655 36.8551C156.125 37.3949 155.443 37.8352 154.609 38.1761C153.776 38.517 152.782 38.6875 151.626 38.6875C149.988 38.6875 148.497 38.3087 147.152 37.5511C145.817 36.7841 144.751 35.6146 143.956 34.0426C143.17 32.4612 142.777 30.4631 142.777 28.0483C142.777 25.5767 143.179 23.5123 143.984 21.8551C144.789 20.1979 145.859 18.9574 147.195 18.1335C148.539 17.3097 150.012 16.8977 151.612 16.8977C152.834 16.8977 153.857 17.1061 154.68 17.5227C155.504 17.9299 156.167 18.4413 156.669 19.0568C157.18 19.6629 157.573 20.2595 157.848 20.8466H158.075V17.1818H164.084V39.2131C164.084 41.0691 163.629 42.6222 162.72 43.8722C161.811 45.1222 160.552 46.0597 158.942 46.6847C157.341 47.3191 155.5 47.6364 153.416 47.6364ZM153.544 34.142C154.519 34.142 155.343 33.9006 156.016 33.4176C156.697 32.9252 157.218 32.2244 157.578 31.3153C157.947 30.3968 158.132 29.2983 158.132 28.0199C158.132 26.7415 157.952 25.6335 157.592 24.696C157.232 23.7491 156.712 23.0152 156.03 22.4943C155.348 21.9735 154.519 21.7131 153.544 21.7131C152.55 21.7131 151.712 21.983 151.03 22.5227C150.348 23.053 149.832 23.7917 149.482 24.7386C149.131 25.6856 148.956 26.7794 148.956 28.0199C148.956 29.2794 149.131 30.3684 149.482 31.2869C149.841 32.196 150.357 32.9015 151.03 33.4034C151.712 33.8958 152.55 34.142 153.544 34.142ZM184.208 26.3864V39H178.157V9.90909H184.038V21.0312H184.293C184.786 19.7434 185.581 18.7348 186.68 18.0057C187.778 17.267 189.156 16.8977 190.813 16.8977C192.328 16.8977 193.649 17.2292 194.776 17.892C195.913 18.5455 196.793 19.4877 197.418 20.7188C198.053 21.9403 198.365 23.4034 198.356 25.108V39H192.305V26.1875C192.314 24.8428 191.973 23.7964 191.282 23.0483C190.6 22.3002 189.644 21.9261 188.413 21.9261C187.589 21.9261 186.86 22.1013 186.225 22.4517C185.6 22.8021 185.108 23.3134 184.748 23.9858C184.397 24.6487 184.218 25.4489 184.208 26.3864ZM212.976 39.4261C210.769 39.4261 208.861 38.9574 207.251 38.0199C205.651 37.0729 204.415 35.7566 203.544 34.071C202.673 32.3759 202.237 30.411 202.237 28.1761C202.237 25.9223 202.673 23.9527 203.544 22.267C204.415 20.572 205.651 19.2557 207.251 18.3182C208.861 17.3712 210.769 16.8977 212.976 16.8977C215.182 16.8977 217.086 17.3712 218.686 18.3182C220.296 19.2557 221.536 20.572 222.408 22.267C223.279 23.9527 223.714 25.9223 223.714 28.1761C223.714 30.411 223.279 32.3759 222.408 34.071C221.536 35.7566 220.296 37.0729 218.686 38.0199C217.086 38.9574 215.182 39.4261 212.976 39.4261ZM213.004 34.7386C214.008 34.7386 214.846 34.4545 215.518 33.8864C216.191 33.3087 216.697 32.5227 217.038 31.5284C217.389 30.5341 217.564 29.4025 217.564 28.1335C217.564 26.8646 217.389 25.733 217.038 24.7386C216.697 23.7443 216.191 22.9583 215.518 22.3807C214.846 21.803 214.008 21.5142 213.004 21.5142C211.991 21.5142 211.139 21.803 210.447 22.3807C209.766 22.9583 209.25 23.7443 208.899 24.7386C208.558 25.733 208.388 26.8646 208.388 28.1335C208.388 29.4025 208.558 30.5341 208.899 31.5284C209.25 32.5227 209.766 33.3087 210.447 33.8864C211.139 34.4545 211.991 34.7386 213.004 34.7386ZM241.641 29.7102V17.1818H247.692V39H241.882V35.0369H241.655C241.162 36.3153 240.343 37.3428 239.197 38.1193C238.061 38.8958 236.674 39.2841 235.036 39.2841C233.577 39.2841 232.294 38.9527 231.186 38.2898C230.078 37.6269 229.212 36.6847 228.587 35.4631C227.971 34.2415 227.659 32.7784 227.649 31.0739V17.1818H233.7V29.9943C233.71 31.2822 234.055 32.3002 234.737 33.0483C235.419 33.7964 236.333 34.1705 237.479 34.1705C238.208 34.1705 238.89 34.0047 239.524 33.6733C240.159 33.3324 240.67 32.8305 241.058 32.1676C241.456 31.5047 241.65 30.6856 241.641 29.7102ZM252.532 39V17.1818H258.398V20.9886H258.626C259.023 19.6345 259.691 18.6117 260.629 17.9205C261.566 17.2197 262.646 16.8693 263.867 16.8693C264.17 16.8693 264.497 16.8883 264.847 16.9261C265.198 16.964 265.505 17.0161 265.771 17.0824V22.4517C265.487 22.3665 265.094 22.2907 264.592 22.2244C264.09 22.1581 263.63 22.125 263.214 22.125C262.324 22.125 261.528 22.3191 260.827 22.7074C260.136 23.0862 259.587 23.6165 259.18 24.2983C258.782 24.9801 258.583 25.7661 258.583 26.6562V39H252.532ZM287.053 23.4034L281.513 23.7443C281.418 23.2708 281.214 22.8447 280.902 22.4659C280.589 22.0777 280.178 21.7699 279.666 21.5426C279.164 21.3059 278.563 21.1875 277.862 21.1875C276.925 21.1875 276.134 21.3864 275.49 21.7841C274.846 22.1723 274.524 22.6932 274.524 23.3466C274.524 23.8674 274.732 24.3078 275.149 24.6676C275.566 25.0275 276.281 25.3163 277.294 25.5341L281.243 26.3295C283.364 26.7652 284.946 27.4659 285.987 28.4318C287.029 29.3977 287.55 30.6667 287.55 32.2386C287.55 33.6686 287.128 34.9233 286.286 36.0028C285.452 37.0824 284.306 37.9252 282.848 38.5312C281.399 39.1278 279.728 39.4261 277.834 39.4261C274.946 39.4261 272.644 38.8248 270.93 37.6222C269.226 36.41 268.227 34.7623 267.933 32.679L273.885 32.3665C274.065 33.2472 274.5 33.9195 275.192 34.3835C275.883 34.8381 276.768 35.0653 277.848 35.0653C278.909 35.0653 279.761 34.8617 280.405 34.4545C281.058 34.0379 281.39 33.5028 281.399 32.8494C281.39 32.3002 281.158 31.8504 280.703 31.5C280.249 31.1402 279.548 30.8655 278.601 30.6761L274.822 29.9233C272.692 29.4972 271.106 28.7585 270.064 27.7074C269.032 26.6562 268.516 25.3163 268.516 23.6875C268.516 22.286 268.894 21.0786 269.652 20.0653C270.419 19.0521 271.494 18.2708 272.876 17.7216C274.268 17.1723 275.897 16.8977 277.763 16.8977C280.518 16.8977 282.687 17.4801 284.268 18.6449C285.859 19.8097 286.787 21.3958 287.053 23.4034ZM309.538 39.4261C307.531 39.4261 305.798 39.0663 304.339 38.3466C302.881 37.6269 301.759 36.6515 300.973 35.4205C300.196 34.1799 299.808 32.7973 299.808 31.2727C299.808 30.1364 300.036 29.1278 300.49 28.2472C300.945 27.3665 301.579 26.5568 302.393 25.8182C303.208 25.0701 304.155 24.3267 305.234 23.5881L310.874 19.8807C311.603 19.4167 312.138 18.929 312.479 18.4176C312.82 17.8968 312.99 17.3333 312.99 16.7273C312.99 16.1496 312.758 15.6146 312.294 15.1222C311.83 14.6297 311.172 14.3883 310.32 14.3977C309.751 14.3977 309.259 14.5256 308.842 14.7812C308.426 15.0275 308.099 15.3542 307.862 15.7614C307.635 16.1591 307.521 16.6042 307.521 17.0966C307.521 17.7027 307.692 18.3182 308.033 18.9432C308.374 19.5682 308.828 20.2311 309.396 20.9318C309.964 21.6231 310.585 22.3712 311.257 23.1761L325.05 39H318.743L307.237 26.1875C306.48 25.3258 305.722 24.4261 304.964 23.4886C304.216 22.5417 303.591 21.5379 303.089 20.4773C302.588 19.4072 302.337 18.2472 302.337 16.9972C302.337 15.5862 302.663 14.3172 303.317 13.1903C303.98 12.0634 304.908 11.1733 306.101 10.5199C307.294 9.85701 308.686 9.52557 310.277 9.52557C311.83 9.52557 313.17 9.8428 314.297 10.4773C315.433 11.1023 316.304 11.9356 316.911 12.9773C317.526 14.0095 317.834 15.1458 317.834 16.3864C317.834 17.7595 317.493 19.0047 316.811 20.1222C316.139 21.2301 315.192 22.2244 313.97 23.1051L308.033 27.3807C307.228 27.9678 306.631 28.5691 306.243 29.1847C305.864 29.7907 305.675 30.3731 305.675 30.9318C305.675 31.6231 305.845 32.2434 306.186 32.7926C306.527 33.3419 307.01 33.7775 307.635 34.0994C308.26 34.4119 308.994 34.5682 309.837 34.5682C310.859 34.5682 311.868 34.3362 312.862 33.8722C313.866 33.3987 314.775 32.7311 315.589 31.8693C316.413 30.9981 317.071 29.9659 317.564 28.7727C318.056 27.5795 318.303 26.2585 318.303 24.8097H323.317C323.317 26.59 323.123 28.1951 322.734 29.625C322.346 31.0455 321.806 32.286 321.115 33.3466C320.424 34.3977 319.633 35.2595 318.743 35.9318C318.459 36.1117 318.184 36.2822 317.919 36.4432C317.654 36.6042 317.379 36.7746 317.095 36.9545C316.016 37.8258 314.808 38.4555 313.473 38.8438C312.147 39.232 310.836 39.4261 309.538 39.4261ZM341.957 39H335.366L345.408 9.90909H353.335L363.363 39H356.772L349.485 16.5568H349.258L341.957 39ZM341.545 27.5653H357.113V32.3665H341.545V27.5653ZM373.775 39.3551C372.118 39.3551 370.617 38.929 369.272 38.0767C367.937 37.215 366.876 35.9508 366.09 34.2841C365.314 32.608 364.925 30.553 364.925 28.1193C364.925 25.6193 365.328 23.5407 366.133 21.8835C366.938 20.2169 368.008 18.9716 369.343 18.1477C370.688 17.3144 372.16 16.8977 373.761 16.8977C374.982 16.8977 376 17.1061 376.815 17.5227C377.638 17.9299 378.301 18.4413 378.803 19.0568C379.315 19.6629 379.703 20.2595 379.968 20.8466H380.153V9.90909H386.19V39H380.224V35.5057H379.968C379.684 36.1117 379.281 36.7131 378.761 37.3097C378.249 37.8968 377.582 38.3845 376.758 38.7727C375.943 39.161 374.949 39.3551 373.775 39.3551ZM375.692 34.5398C376.668 34.5398 377.492 34.2746 378.164 33.7443C378.846 33.2045 379.367 32.4517 379.727 31.4858C380.096 30.5199 380.281 29.3883 380.281 28.0909C380.281 26.7936 380.101 25.6667 379.741 24.7102C379.381 23.7538 378.86 23.0152 378.178 22.4943C377.496 21.9735 376.668 21.7131 375.692 21.7131C374.698 21.7131 373.86 21.983 373.178 22.5227C372.496 23.0625 371.98 23.8106 371.63 24.767C371.28 25.7235 371.104 26.8314 371.104 28.0909C371.104 29.3598 371.28 30.482 371.63 31.4574C371.99 32.4233 372.506 33.1809 373.178 33.7301C373.86 34.2699 374.698 34.5398 375.692 34.5398ZM391.165 39V17.1818H396.932V21.0312H397.188C397.642 19.7528 398.4 18.7443 399.46 18.0057C400.521 17.267 401.79 16.8977 403.267 16.8977C404.763 16.8977 406.037 17.2718 407.088 18.0199C408.139 18.7585 408.84 19.7623 409.19 21.0312H409.418C409.863 19.7812 410.668 18.7822 411.832 18.0341C413.007 17.2765 414.394 16.8977 415.994 16.8977C418.03 16.8977 419.683 17.5464 420.952 18.8438C422.23 20.1316 422.869 21.9593 422.869 24.3267V39H416.832V25.5199C416.832 24.3078 416.51 23.3987 415.866 22.7926C415.223 22.1866 414.418 21.8835 413.452 21.8835C412.353 21.8835 411.496 22.2339 410.881 22.9347C410.265 23.6259 409.957 24.5398 409.957 25.6761V39H404.091V25.392C404.091 24.322 403.783 23.4697 403.168 22.8352C402.562 22.2008 401.761 21.8835 400.767 21.8835C400.095 21.8835 399.489 22.054 398.949 22.3949C398.419 22.7263 397.997 23.1951 397.685 23.8011C397.372 24.3977 397.216 25.0985 397.216 25.9034V39H391.165ZM427.649 39V17.1818H433.7V39H427.649ZM430.689 14.3693C429.789 14.3693 429.018 14.071 428.374 13.4744C427.739 12.8684 427.422 12.1439 427.422 11.3011C427.422 10.4678 427.739 9.75284 428.374 9.15625C429.018 8.55019 429.789 8.24716 430.689 8.24716C431.589 8.24716 432.356 8.55019 432.99 9.15625C433.634 9.75284 433.956 10.4678 433.956 11.3011C433.956 12.1439 433.634 12.8684 432.99 13.4744C432.356 14.071 431.589 14.3693 430.689 14.3693ZM456.701 23.4034L451.161 23.7443C451.067 23.2708 450.863 22.8447 450.55 22.4659C450.238 22.0777 449.826 21.7699 449.315 21.5426C448.813 21.3059 448.211 21.1875 447.511 21.1875C446.573 21.1875 445.782 21.3864 445.138 21.7841C444.495 22.1723 444.173 22.6932 444.173 23.3466C444.173 23.8674 444.381 24.3078 444.798 24.6676C445.214 25.0275 445.929 25.3163 446.942 25.5341L450.891 26.3295C453.013 26.7652 454.594 27.4659 455.636 28.4318C456.677 29.3977 457.198 30.6667 457.198 32.2386C457.198 33.6686 456.777 34.9233 455.934 36.0028C455.101 37.0824 453.955 37.9252 452.496 38.5312C451.048 39.1278 449.376 39.4261 447.482 39.4261C444.594 39.4261 442.293 38.8248 440.579 37.6222C438.874 36.41 437.875 34.7623 437.582 32.679L443.533 32.3665C443.713 33.2472 444.149 33.9195 444.84 34.3835C445.531 34.8381 446.417 35.0653 447.496 35.0653C448.557 35.0653 449.409 34.8617 450.053 34.4545C450.707 34.0379 451.038 33.5028 451.048 32.8494C451.038 32.3002 450.806 31.8504 450.352 31.5C449.897 31.1402 449.196 30.8655 448.249 30.6761L444.471 29.9233C442.34 29.4972 440.754 28.7585 439.712 27.7074C438.68 26.6562 438.164 25.3163 438.164 23.6875C438.164 22.286 438.543 21.0786 439.3 20.0653C440.067 19.0521 441.142 18.2708 442.525 17.7216C443.917 17.1723 445.546 16.8977 447.411 16.8977C450.167 16.8977 452.335 17.4801 453.917 18.6449C455.508 19.8097 456.436 21.3958 456.701 23.4034ZM479.162 23.4034L473.622 23.7443C473.527 23.2708 473.324 22.8447 473.011 22.4659C472.699 22.0777 472.287 21.7699 471.776 21.5426C471.274 21.3059 470.672 21.1875 469.972 21.1875C469.034 21.1875 468.243 21.3864 467.599 21.7841C466.955 22.1723 466.634 22.6932 466.634 23.3466C466.634 23.8674 466.842 24.3078 467.259 24.6676C467.675 25.0275 468.39 25.3163 469.403 25.5341L473.352 26.3295C475.473 26.7652 477.055 27.4659 478.097 28.4318C479.138 29.3977 479.659 30.6667 479.659 32.2386C479.659 33.6686 479.238 34.9233 478.395 36.0028C477.562 37.0824 476.416 37.9252 474.957 38.5312C473.509 39.1278 471.837 39.4261 469.943 39.4261C467.055 39.4261 464.754 38.8248 463.04 37.6222C461.335 36.41 460.336 34.7623 460.043 32.679L465.994 32.3665C466.174 33.2472 466.61 33.9195 467.301 34.3835C467.992 34.8381 468.878 35.0653 469.957 35.0653C471.018 35.0653 471.87 34.8617 472.514 34.4545C473.168 34.0379 473.499 33.5028 473.509 32.8494C473.499 32.3002 473.267 31.8504 472.812 31.5C472.358 31.1402 471.657 30.8655 470.71 30.6761L466.932 29.9233C464.801 29.4972 463.215 28.7585 462.173 27.7074C461.141 26.6562 460.625 25.3163 460.625 23.6875C460.625 22.286 461.004 21.0786 461.761 20.0653C462.528 19.0521 463.603 18.2708 464.986 17.7216C466.378 17.1723 468.007 16.8977 469.872 16.8977C472.628 16.8977 474.796 17.4801 476.378 18.6449C477.969 19.8097 478.897 21.3958 479.162 23.4034ZM483.469 39V17.1818H489.521V39H483.469ZM486.509 14.3693C485.61 14.3693 484.838 14.071 484.194 13.4744C483.559 12.8684 483.242 12.1439 483.242 11.3011C483.242 10.4678 483.559 9.75284 484.194 9.15625C484.838 8.55019 485.61 8.24716 486.509 8.24716C487.409 8.24716 488.176 8.55019 488.81 9.15625C489.454 9.75284 489.776 10.4678 489.776 11.3011C489.776 12.1439 489.454 12.8684 488.81 13.4744C488.176 14.071 487.409 14.3693 486.509 14.3693ZM504.226 39.4261C502.019 39.4261 500.111 38.9574 498.501 38.0199C496.901 37.0729 495.665 35.7566 494.794 34.071C493.923 32.3759 493.487 30.411 493.487 28.1761C493.487 25.9223 493.923 23.9527 494.794 22.267C495.665 20.572 496.901 19.2557 498.501 18.3182C500.111 17.3712 502.019 16.8977 504.226 16.8977C506.432 16.8977 508.336 17.3712 509.936 18.3182C511.546 19.2557 512.786 20.572 513.658 22.267C514.529 23.9527 514.964 25.9223 514.964 28.1761C514.964 30.411 514.529 32.3759 513.658 34.071C512.786 35.7566 511.546 37.0729 509.936 38.0199C508.336 38.9574 506.432 39.4261 504.226 39.4261ZM504.254 34.7386C505.258 34.7386 506.096 34.4545 506.768 33.8864C507.441 33.3087 507.947 32.5227 508.288 31.5284C508.639 30.5341 508.814 29.4025 508.814 28.1335C508.814 26.8646 508.639 25.733 508.288 24.7386C507.947 23.7443 507.441 22.9583 506.768 22.3807C506.096 21.803 505.258 21.5142 504.254 21.5142C503.241 21.5142 502.389 21.803 501.697 22.3807C501.016 22.9583 500.5 23.7443 500.149 24.7386C499.808 25.733 499.638 26.8646 499.638 28.1335C499.638 29.4025 499.808 30.5341 500.149 31.5284C500.5 32.5227 501.016 33.3087 501.697 33.8864C502.389 34.4545 503.241 34.7386 504.254 34.7386ZM524.95 26.3864V39H518.899V17.1818H524.666V21.0312H524.922C525.405 19.7623 526.214 18.7585 527.351 18.0199C528.487 17.2718 529.865 16.8977 531.484 16.8977C533 16.8977 534.321 17.2292 535.447 17.892C536.574 18.5549 537.45 19.5019 538.075 20.733C538.7 21.9545 539.013 23.4129 539.013 25.108V39H532.962V26.1875C532.971 24.8523 532.63 23.8106 531.939 23.0625C531.248 22.3049 530.296 21.9261 529.084 21.9261C528.269 21.9261 527.55 22.1013 526.925 22.4517C526.309 22.8021 525.826 23.3134 525.476 23.9858C525.135 24.6487 524.96 25.4489 524.95 26.3864ZM561.935 23.4034L556.396 23.7443C556.301 23.2708 556.097 22.8447 555.785 22.4659C555.472 22.0777 555.06 21.7699 554.549 21.5426C554.047 21.3059 553.446 21.1875 552.745 21.1875C551.808 21.1875 551.017 21.3864 550.373 21.7841C549.729 22.1723 549.407 22.6932 549.407 23.3466C549.407 23.8674 549.615 24.3078 550.032 24.6676C550.449 25.0275 551.164 25.3163 552.177 25.5341L556.126 26.3295C558.247 26.7652 559.828 27.4659 560.87 28.4318C561.912 29.3977 562.433 30.6667 562.433 32.2386C562.433 33.6686 562.011 34.9233 561.168 36.0028C560.335 37.0824 559.189 37.9252 557.731 38.5312C556.282 39.1278 554.611 39.4261 552.717 39.4261C549.828 39.4261 547.527 38.8248 545.813 37.6222C544.109 36.41 543.11 34.7623 542.816 32.679L548.768 32.3665C548.948 33.2472 549.383 33.9195 550.075 34.3835C550.766 34.8381 551.651 35.0653 552.731 35.0653C553.791 35.0653 554.644 34.8617 555.288 34.4545C555.941 34.0379 556.272 33.5028 556.282 32.8494C556.272 32.3002 556.04 31.8504 555.586 31.5C555.131 31.1402 554.431 30.8655 553.484 30.6761L549.705 29.9233C547.575 29.4972 545.988 28.7585 544.947 27.7074C543.915 26.6562 543.398 25.3163 543.398 23.6875C543.398 22.286 543.777 21.0786 544.535 20.0653C545.302 19.0521 546.377 18.2708 547.759 17.7216C549.151 17.1723 550.78 16.8977 552.646 16.8977C555.401 16.8977 557.57 17.4801 559.151 18.6449C560.742 19.8097 561.67 21.3958 561.935 23.4034Z" fill="white"/>
<line x1="599" y1="27.5" x2="1288" y2="27.5" stroke="white"/>
</svg>
