<svg width="1256" height="48" viewBox="0 0 1256 48" fill="none" xmlns="http://www.w3.org/2000/svg">
<path d="M2.52841 39V9.90909H14.0057C16.2121 9.90909 18.0919 10.3305 19.6449 11.1733C21.1979 12.0066 22.3816 13.1667 23.196 14.6534C24.0199 16.1307 24.4318 17.8352 24.4318 19.767C24.4318 21.6989 24.0152 23.4034 23.1818 24.8807C22.3485 26.358 21.1411 27.5085 19.5597 28.3324C17.9877 29.1562 16.0843 29.5682 13.8494 29.5682H6.53409V24.6392H12.8551C14.0388 24.6392 15.0142 24.4356 15.7812 24.0284C16.5578 23.6117 17.1354 23.0388 17.5142 22.3097C17.9025 21.571 18.0966 20.7235 18.0966 19.767C18.0966 18.8011 17.9025 17.9583 17.5142 17.2386C17.1354 16.5095 16.5578 15.946 15.7812 15.5483C15.0047 15.1411 14.0199 14.9375 12.8267 14.9375H8.67898V39H2.52841ZM28.3132 39V17.1818H34.1797V20.9886H34.407C34.8047 19.6345 35.4723 18.6117 36.4098 17.9205C37.3473 17.2197 38.4268 16.8693 39.6484 16.8693C39.9515 16.8693 40.2782 16.8883 40.6286 16.9261C40.9789 16.964 41.2867 17.0161 41.5518 17.0824V22.4517C41.2678 22.3665 40.8748 22.2907 40.3729 22.2244C39.871 22.1581 39.4117 22.125 38.995 22.125C38.1049 22.125 37.3094 22.3191 36.6087 22.7074C35.9174 23.0862 35.3681 23.6165 34.9609 24.2983C34.5632 24.9801 34.3643 25.7661 34.3643 26.6562V39H28.3132ZM50.277 39.4119C48.8849 39.4119 47.6444 39.1705 46.5554 38.6875C45.4664 38.1951 44.6046 37.4706 43.9702 36.5142C43.3452 35.5483 43.0327 34.3456 43.0327 32.9062C43.0327 31.6941 43.2552 30.6761 43.7003 29.8523C44.1454 29.0284 44.7514 28.3655 45.5185 27.8636C46.2855 27.3617 47.1567 26.983 48.1321 26.7273C49.117 26.4716 50.1491 26.2917 51.2287 26.1875C52.4976 26.0549 53.5204 25.9318 54.2969 25.8182C55.0734 25.6951 55.6368 25.5152 55.9872 25.2784C56.3376 25.0417 56.5128 24.6913 56.5128 24.2273V24.142C56.5128 23.2424 56.2287 22.5464 55.6605 22.054C55.1018 21.5616 54.3063 21.3153 53.2741 21.3153C52.1851 21.3153 51.3187 21.5568 50.6747 22.0398C50.0308 22.5133 49.6046 23.1098 49.3963 23.8295L43.7997 23.375C44.0838 22.0492 44.6425 20.9034 45.4759 19.9375C46.3092 18.9621 47.384 18.214 48.7003 17.6932C50.026 17.1629 51.5601 16.8977 53.3026 16.8977C54.5147 16.8977 55.6747 17.0398 56.7827 17.3239C57.9001 17.608 58.8897 18.0483 59.7514 18.6449C60.6226 19.2415 61.3092 20.0085 61.8111 20.946C62.313 21.8741 62.5639 22.9867 62.5639 24.2841V39H56.8253V35.9744H56.6548C56.3045 36.6562 55.8357 37.2576 55.2486 37.7784C54.6615 38.2898 53.956 38.6922 53.1321 38.9858C52.3082 39.2699 51.3565 39.4119 50.277 39.4119ZM52.0099 35.2358C52.9001 35.2358 53.6861 35.0606 54.3679 34.7102C55.0497 34.3504 55.5848 33.8674 55.973 33.2614C56.3613 32.6553 56.5554 31.9687 56.5554 31.2017V28.8864C56.366 29.0095 56.1056 29.1231 55.7741 29.2273C55.4522 29.322 55.0876 29.4119 54.6804 29.4972C54.2732 29.5729 53.866 29.6439 53.4588 29.7102C53.0516 29.767 52.6823 29.8191 52.3509 29.8665C51.6406 29.9706 51.0204 30.1364 50.4901 30.3636C49.9598 30.5909 49.5478 30.8987 49.2543 31.2869C48.9607 31.6657 48.8139 32.1392 48.8139 32.7074C48.8139 33.5312 49.1122 34.161 49.7088 34.5966C50.3149 35.0227 51.0819 35.2358 52.0099 35.2358ZM77.1165 39.4261C74.8816 39.4261 72.9593 38.9527 71.3494 38.0057C69.7491 37.0492 68.518 35.7235 67.6562 34.0284C66.804 32.3333 66.3778 30.3826 66.3778 28.1761C66.3778 25.9413 66.8087 23.9811 67.6705 22.2955C68.5417 20.6004 69.7775 19.2794 71.3778 18.3324C72.9782 17.3759 74.8816 16.8977 77.0881 16.8977C78.9915 16.8977 80.6581 17.2434 82.0881 17.9347C83.518 18.6259 84.6496 19.5966 85.483 20.8466C86.3163 22.0966 86.7756 23.5644 86.8608 25.25H81.1506C80.9896 24.161 80.5634 23.285 79.8722 22.6222C79.1903 21.9498 78.2955 21.6136 77.1875 21.6136C76.25 21.6136 75.4309 21.8693 74.7301 22.3807C74.0388 22.8826 73.4991 23.6165 73.1108 24.5824C72.7225 25.5483 72.5284 26.7178 72.5284 28.0909C72.5284 29.483 72.7178 30.6667 73.0966 31.642C73.4848 32.6174 74.0294 33.3608 74.7301 33.8722C75.4309 34.3835 76.25 34.6392 77.1875 34.6392C77.8788 34.6392 78.4991 34.4972 79.0483 34.2131C79.607 33.929 80.0663 33.517 80.4261 32.9773C80.7955 32.428 81.0369 31.7699 81.1506 31.0028H86.8608C86.7661 32.6695 86.3116 34.1373 85.4972 35.4062C84.6922 36.6657 83.5795 37.6506 82.1591 38.3608C80.7386 39.071 79.0578 39.4261 77.1165 39.4261ZM102.34 17.1818V21.7273H89.201V17.1818H102.34ZM92.1839 11.9545H98.2351V32.2955C98.2351 32.8542 98.3203 33.2898 98.4908 33.6023C98.6612 33.9053 98.898 34.1184 99.201 34.2415C99.5135 34.3646 99.8733 34.4261 100.281 34.4261C100.565 34.4261 100.849 34.4025 101.133 34.3551C101.417 34.2983 101.635 34.2557 101.786 34.2273L102.738 38.7301C102.435 38.8248 102.009 38.9337 101.46 39.0568C100.91 39.1894 100.243 39.2699 99.4567 39.2983C97.9983 39.3551 96.7199 39.161 95.6214 38.7159C94.5324 38.2708 93.6849 37.5795 93.0788 36.642C92.4728 35.7045 92.1745 34.5208 92.1839 33.0909V11.9545ZM106.282 39V17.1818H112.333V39H106.282ZM109.322 14.3693C108.422 14.3693 107.65 14.071 107.006 13.4744C106.372 12.8684 106.055 12.1439 106.055 11.3011C106.055 10.4678 106.372 9.75284 107.006 9.15625C107.65 8.55019 108.422 8.24716 109.322 8.24716C110.221 8.24716 110.988 8.55019 111.623 9.15625C112.267 9.75284 112.589 10.4678 112.589 11.3011C112.589 12.1439 112.267 12.8684 111.623 13.4744C110.988 14.071 110.221 14.3693 109.322 14.3693ZM127.038 39.4261C124.804 39.4261 122.881 38.9527 121.271 38.0057C119.671 37.0492 118.44 35.7235 117.578 34.0284C116.726 32.3333 116.3 30.3826 116.3 28.1761C116.3 25.9413 116.731 23.9811 117.592 22.2955C118.464 20.6004 119.699 19.2794 121.3 18.3324C122.9 17.3759 124.804 16.8977 127.01 16.8977C128.913 16.8977 130.58 17.2434 132.01 17.9347C133.44 18.6259 134.571 19.5966 135.405 20.8466C136.238 22.0966 136.697 23.5644 136.783 25.25H131.072C130.911 24.161 130.485 23.285 129.794 22.6222C129.112 21.9498 128.217 21.6136 127.109 21.6136C126.172 21.6136 125.353 21.8693 124.652 22.3807C123.961 22.8826 123.421 23.6165 123.033 24.5824C122.644 25.5483 122.45 26.7178 122.45 28.0909C122.45 29.483 122.64 30.6667 123.018 31.642C123.407 32.6174 123.951 33.3608 124.652 33.8722C125.353 34.3835 126.172 34.6392 127.109 34.6392C127.801 34.6392 128.421 34.4972 128.97 34.2131C129.529 33.929 129.988 33.517 130.348 32.9773C130.717 32.428 130.959 31.7699 131.072 31.0028H136.783C136.688 32.6695 136.233 34.1373 135.419 35.4062C134.614 36.6657 133.501 37.6506 132.081 38.3608C130.661 39.071 128.98 39.4261 127.038 39.4261ZM146.879 39.4119C145.487 39.4119 144.246 39.1705 143.157 38.6875C142.068 38.1951 141.206 37.4706 140.572 36.5142C139.947 35.5483 139.634 34.3456 139.634 32.9062C139.634 31.6941 139.857 30.6761 140.302 29.8523C140.747 29.0284 141.353 28.3655 142.12 27.8636C142.887 27.3617 143.758 26.983 144.734 26.7273C145.719 26.4716 146.751 26.2917 147.83 26.1875C149.099 26.0549 150.122 25.9318 150.898 25.8182C151.675 25.6951 152.238 25.5152 152.589 25.2784C152.939 25.0417 153.114 24.6913 153.114 24.2273V24.142C153.114 23.2424 152.83 22.5464 152.262 22.054C151.703 21.5616 150.908 21.3153 149.876 21.3153C148.787 21.3153 147.92 21.5568 147.276 22.0398C146.632 22.5133 146.206 23.1098 145.998 23.8295L140.401 23.375C140.685 22.0492 141.244 20.9034 142.077 19.9375C142.911 18.9621 143.986 18.214 145.302 17.6932C146.628 17.1629 148.162 16.8977 149.904 16.8977C151.116 16.8977 152.276 17.0398 153.384 17.3239C154.502 17.608 155.491 18.0483 156.353 18.6449C157.224 19.2415 157.911 20.0085 158.413 20.946C158.915 21.8741 159.165 22.9867 159.165 24.2841V39H153.427V35.9744H153.256C152.906 36.6562 152.437 37.2576 151.85 37.7784C151.263 38.2898 150.558 38.6922 149.734 38.9858C148.91 39.2699 147.958 39.4119 146.879 39.4119ZM148.612 35.2358C149.502 35.2358 150.288 35.0606 150.969 34.7102C151.651 34.3504 152.186 33.8674 152.575 33.2614C152.963 32.6553 153.157 31.9687 153.157 31.2017V28.8864C152.968 29.0095 152.707 29.1231 152.376 29.2273C152.054 29.322 151.689 29.4119 151.282 29.4972C150.875 29.5729 150.468 29.6439 150.06 29.7102C149.653 29.767 149.284 29.8191 148.952 29.8665C148.242 29.9706 147.622 30.1364 147.092 30.3636C146.561 30.5909 146.149 30.8987 145.856 31.2869C145.562 31.6657 145.415 32.1392 145.415 32.7074C145.415 33.5312 145.714 34.161 146.31 34.5966C146.916 35.0227 147.683 35.2358 148.612 35.2358ZM169.911 9.90909V39H163.86V9.90909H169.911ZM184.016 39V17.1818H190.067V39H184.016ZM187.056 14.3693C186.156 14.3693 185.385 14.071 184.741 13.4744C184.106 12.8684 183.789 12.1439 183.789 11.3011C183.789 10.4678 184.106 9.75284 184.741 9.15625C185.385 8.55019 186.156 8.24716 187.056 8.24716C187.956 8.24716 188.723 8.55019 189.357 9.15625C190.001 9.75284 190.323 10.4678 190.323 11.3011C190.323 12.1439 190.001 12.8684 189.357 13.4744C188.723 14.071 187.956 14.3693 187.056 14.3693ZM200.966 26.3864V39H194.915V17.1818H200.682V21.0312H200.938C201.42 19.7623 202.23 18.7585 203.366 18.0199C204.503 17.2718 205.881 16.8977 207.5 16.8977C209.015 16.8977 210.336 17.2292 211.463 17.892C212.59 18.5549 213.466 19.5019 214.091 20.733C214.716 21.9545 215.028 23.4129 215.028 25.108V39H208.977V26.1875C208.987 24.8523 208.646 23.8106 207.955 23.0625C207.263 22.3049 206.312 21.9261 205.099 21.9261C204.285 21.9261 203.565 22.1013 202.94 22.4517C202.325 22.8021 201.842 23.3134 201.491 23.9858C201.151 24.6487 200.975 25.4489 200.966 26.3864ZM231.531 17.1818V21.7273H218.065V17.1818H231.531ZM221.147 39V15.6051C221.147 14.0237 221.455 12.7121 222.07 11.6705C222.695 10.6288 223.548 9.84754 224.627 9.3267C225.707 8.80587 226.933 8.54545 228.306 8.54545C229.234 8.54545 230.082 8.61648 230.849 8.75852C231.625 8.90057 232.203 9.02841 232.582 9.14205L231.502 13.6875C231.265 13.6117 230.972 13.5407 230.621 13.4744C230.281 13.4081 229.93 13.375 229.57 13.375C228.68 13.375 228.06 13.5833 227.71 14C227.359 14.4072 227.184 14.9801 227.184 15.7188V39H221.147ZM244.304 39.4261C242.098 39.4261 240.189 38.9574 238.58 38.0199C236.979 37.0729 235.743 35.7566 234.872 34.071C234.001 32.3759 233.565 30.411 233.565 28.1761C233.565 25.9223 234.001 23.9527 234.872 22.267C235.743 20.572 236.979 19.2557 238.58 18.3182C240.189 17.3712 242.098 16.8977 244.304 16.8977C246.51 16.8977 248.414 17.3712 250.014 18.3182C251.624 19.2557 252.865 20.572 253.736 22.267C254.607 23.9527 255.043 25.9223 255.043 28.1761C255.043 30.411 254.607 32.3759 253.736 34.071C252.865 35.7566 251.624 37.0729 250.014 38.0199C248.414 38.9574 246.51 39.4261 244.304 39.4261ZM244.332 34.7386C245.336 34.7386 246.174 34.4545 246.847 33.8864C247.519 33.3087 248.026 32.5227 248.366 31.5284C248.717 30.5341 248.892 29.4025 248.892 28.1335C248.892 26.8646 248.717 25.733 248.366 24.7386C248.026 23.7443 247.519 22.9583 246.847 22.3807C246.174 21.803 245.336 21.5142 244.332 21.5142C243.319 21.5142 242.467 21.803 241.776 22.3807C241.094 22.9583 240.578 23.7443 240.227 24.7386C239.886 25.733 239.716 26.8646 239.716 28.1335C239.716 29.4025 239.886 30.5341 240.227 31.5284C240.578 32.5227 241.094 33.3087 241.776 33.8864C242.467 34.4545 243.319 34.7386 244.332 34.7386ZM258.977 39V17.1818H264.844V20.9886H265.071C265.469 19.6345 266.136 18.6117 267.074 17.9205C268.011 17.2197 269.091 16.8693 270.312 16.8693C270.616 16.8693 270.942 16.8883 271.293 16.9261C271.643 16.964 271.951 17.0161 272.216 17.0824V22.4517C271.932 22.3665 271.539 22.2907 271.037 22.2244C270.535 22.1581 270.076 22.125 269.659 22.125C268.769 22.125 267.973 22.3191 267.273 22.7074C266.581 23.0862 266.032 23.6165 265.625 24.2983C265.227 24.9801 265.028 25.7661 265.028 26.6562V39H258.977ZM275.344 39V17.1818H281.112V21.0312H281.367C281.822 19.7528 282.579 18.7443 283.64 18.0057C284.701 17.267 285.969 16.8977 287.447 16.8977C288.943 16.8977 290.217 17.2718 291.268 18.0199C292.319 18.7585 293.02 19.7623 293.37 21.0312H293.597C294.042 19.7812 294.847 18.7822 296.012 18.0341C297.186 17.2765 298.574 16.8977 300.174 16.8977C302.21 16.8977 303.862 17.5464 305.131 18.8438C306.41 20.1316 307.049 21.9593 307.049 24.3267V39H301.012V25.5199C301.012 24.3078 300.69 23.3987 300.046 22.7926C299.402 22.1866 298.597 21.8835 297.631 21.8835C296.533 21.8835 295.676 22.2339 295.06 22.9347C294.445 23.6259 294.137 24.5398 294.137 25.6761V39H288.271V25.392C288.271 24.322 287.963 23.4697 287.347 22.8352C286.741 22.2008 285.941 21.8835 284.947 21.8835C284.274 21.8835 283.668 22.054 283.129 22.3949C282.598 22.7263 282.177 23.1951 281.864 23.8011C281.552 24.3977 281.396 25.0985 281.396 25.9034V39H275.344ZM318.05 39.4119C316.658 39.4119 315.418 39.1705 314.329 38.6875C313.24 38.1951 312.378 37.4706 311.744 36.5142C311.119 35.5483 310.806 34.3456 310.806 32.9062C310.806 31.6941 311.029 30.6761 311.474 29.8523C311.919 29.0284 312.525 28.3655 313.292 27.8636C314.059 27.3617 314.93 26.983 315.906 26.7273C316.89 26.4716 317.923 26.2917 319.002 26.1875C320.271 26.0549 321.294 25.9318 322.07 25.8182C322.847 25.6951 323.41 25.5152 323.761 25.2784C324.111 25.0417 324.286 24.6913 324.286 24.2273V24.142C324.286 23.2424 324.002 22.5464 323.434 22.054C322.875 21.5616 322.08 21.3153 321.048 21.3153C319.959 21.3153 319.092 21.5568 318.448 22.0398C317.804 22.5133 317.378 23.1098 317.17 23.8295L311.573 23.375C311.857 22.0492 312.416 20.9034 313.249 19.9375C314.083 18.9621 315.157 18.214 316.474 17.6932C317.799 17.1629 319.334 16.8977 321.076 16.8977C322.288 16.8977 323.448 17.0398 324.556 17.3239C325.674 17.608 326.663 18.0483 327.525 18.6449C328.396 19.2415 329.083 20.0085 329.585 20.946C330.086 21.8741 330.337 22.9867 330.337 24.2841V39H324.599V35.9744H324.428C324.078 36.6562 323.609 37.2576 323.022 37.7784C322.435 38.2898 321.729 38.6922 320.906 38.9858C320.082 39.2699 319.13 39.4119 318.05 39.4119ZM319.783 35.2358C320.674 35.2358 321.46 35.0606 322.141 34.7102C322.823 34.3504 323.358 33.8674 323.746 33.2614C324.135 32.6553 324.329 31.9687 324.329 31.2017V28.8864C324.139 29.0095 323.879 29.1231 323.548 29.2273C323.226 29.322 322.861 29.4119 322.454 29.4972C322.047 29.5729 321.639 29.6439 321.232 29.7102C320.825 29.767 320.456 29.8191 320.124 29.8665C319.414 29.9706 318.794 30.1364 318.263 30.3636C317.733 30.5909 317.321 30.8987 317.028 31.2869C316.734 31.6657 316.587 32.1392 316.587 32.7074C316.587 33.5312 316.886 34.161 317.482 34.5966C318.088 35.0227 318.855 35.2358 319.783 35.2358ZM346.637 17.1818V21.7273H333.498V17.1818H346.637ZM336.481 11.9545H342.532V32.2955C342.532 32.8542 342.617 33.2898 342.788 33.6023C342.958 33.9053 343.195 34.1184 343.498 34.2415C343.81 34.3646 344.17 34.4261 344.577 34.4261C344.862 34.4261 345.146 34.4025 345.43 34.3551C345.714 34.2983 345.932 34.2557 346.083 34.2273L347.035 38.7301C346.732 38.8248 346.306 38.9337 345.756 39.0568C345.207 39.1894 344.54 39.2699 343.754 39.2983C342.295 39.3551 341.017 39.161 339.918 38.7159C338.829 38.2708 337.982 37.5795 337.376 36.642C336.77 35.7045 336.471 34.5208 336.481 33.0909V11.9545ZM350.579 39V17.1818H356.63V39H350.579ZM353.619 14.3693C352.719 14.3693 351.947 14.071 351.303 13.4744C350.669 12.8684 350.352 12.1439 350.352 11.3011C350.352 10.4678 350.669 9.75284 351.303 9.15625C351.947 8.55019 352.719 8.24716 353.619 8.24716C354.518 8.24716 355.285 8.55019 355.92 9.15625C356.564 9.75284 356.886 10.4678 356.886 11.3011C356.886 12.1439 356.564 12.8684 355.92 13.4744C355.285 14.071 354.518 14.3693 353.619 14.3693ZM371.335 39.4261C369.129 39.4261 367.221 38.9574 365.611 38.0199C364.01 37.0729 362.775 35.7566 361.903 34.071C361.032 32.3759 360.597 30.411 360.597 28.1761C360.597 25.9223 361.032 23.9527 361.903 22.267C362.775 20.572 364.01 19.2557 365.611 18.3182C367.221 17.3712 369.129 16.8977 371.335 16.8977C373.542 16.8977 375.445 17.3712 377.045 18.3182C378.655 19.2557 379.896 20.572 380.767 22.267C381.638 23.9527 382.074 25.9223 382.074 28.1761C382.074 30.411 381.638 32.3759 380.767 34.071C379.896 35.7566 378.655 37.0729 377.045 38.0199C375.445 38.9574 373.542 39.4261 371.335 39.4261ZM371.364 34.7386C372.367 34.7386 373.205 34.4545 373.878 33.8864C374.55 33.3087 375.057 32.5227 375.398 31.5284C375.748 30.5341 375.923 29.4025 375.923 28.1335C375.923 26.8646 375.748 25.733 375.398 24.7386C375.057 23.7443 374.55 22.9583 373.878 22.3807C373.205 21.803 372.367 21.5142 371.364 21.5142C370.35 21.5142 369.498 21.803 368.807 22.3807C368.125 22.9583 367.609 23.7443 367.259 24.7386C366.918 25.733 366.747 26.8646 366.747 28.1335C366.747 29.4025 366.918 30.5341 367.259 31.5284C367.609 32.5227 368.125 33.3087 368.807 33.8864C369.498 34.4545 370.35 34.7386 371.364 34.7386ZM392.06 26.3864V39H386.009V17.1818H391.776V21.0312H392.031C392.514 19.7623 393.324 18.7585 394.46 18.0199C395.597 17.2718 396.974 16.8977 398.594 16.8977C400.109 16.8977 401.43 17.2292 402.557 17.892C403.684 18.5549 404.56 19.5019 405.185 20.733C405.81 21.9545 406.122 23.4129 406.122 25.108V39H400.071V26.1875C400.08 24.8523 399.74 23.8106 399.048 23.0625C398.357 22.3049 397.405 21.9261 396.193 21.9261C395.379 21.9261 394.659 22.1013 394.034 22.4517C393.419 22.8021 392.936 23.3134 392.585 23.9858C392.244 24.6487 392.069 25.4489 392.06 26.3864Z" fill="white"/>
<line x1="462" y1="23.5" x2="1256" y2="23.4999" stroke="white"/>
</svg>
